SplineFontDB: 3.2
FontName: Vazirmatn-UI-Thin
FullName: Vazirmatn UI Thin
FamilyName: Vazirmatn UI Thin
Weight: Thin
Copyright: Copyright 2015 The Vazirmatn Project Authors (https://github.com/rastikerdar/vazirmatn)
Version: 33.003
ItalicAngle: 0
UnderlinePosition: -780
UnderlineWidth: 100
Ascent: 1638
Descent: 410
InvalidEm: 0
sfntRevision: 0x002100c5
LayerCount: 2
Layer: 0 1 "Back" 1
Layer: 1 1 "Fore" 0
XUID: [1021 361 -1614679662 16219412]
StyleMap: 0x0040
FSType: 0
OS2Version: 4
OS2_WeightWidthSlopeOnly: 0
OS2_UseTypoMetrics: 1
CreationTime: 1431850356
ModificationTime: 1724682633
PfmFamily: 81
TTFWeight: 100
TTFWidth: 5
LineGap: 0
VLineGap: 0
Panose: 0 0 0 0 0 0 0 0 0 0
OS2TypoAscent: 1950
OS2TypoAOffset: 0
OS2TypoDescent: -970
OS2TypoDOffset: 0
OS2TypoLinegap: 0
OS2WinAscent: 1950
OS2WinAOffset: 0
OS2WinDescent: 970
OS2WinDOffset: 0
HheadAscent: 2100
HheadAOffset: 0
HheadDescent: -1100
HheadDOffset: 0
OS2SubXSize: 1331
OS2SubYSize: 1433
OS2SubXOff: 0
OS2SubYOff: 286
OS2SupXSize: 1331
OS2SupYSize: 1433
OS2SupXOff: 0
OS2SupYOff: 983
OS2StrikeYSize: 102
OS2StrikeYPos: 530
OS2CapHeight: 1638
OS2XHeight: 1082
OS2Vendor: '    '
OS2CodePages: 00000041.20080000
OS2UnicodeRanges: 80002003.80000000.00000008.00000000
Lookup: 1 0 0 "'c2sc' Capitals to Small Capitals lookup 0" { "'c2sc' Capitals to Small Capitals lookup 0 subtable"  } ['c2sc' ('DFLT' <'dflt' > 'cyrl' <'dflt' > 'grek' <'dflt' > 'latn' <'AZE ' 'CRT ' 'FRA ' 'MOL ' 'NAV ' 'ROM ' 'TRK ' 'dflt' > ) ]
Lookup: 1 0 0 "'smcp' Lowercase to Small Capitals lookup 1" { "'smcp' Lowercase to Small Capitals lookup 1 subtable"  } ['smcp' ('DFLT' <'dflt' > 'cyrl' <'dflt' > 'grek' <'dflt' > 'latn' <'AZE ' 'CRT ' 'FRA ' 'MOL ' 'NAV ' 'ROM ' 'TRK ' 'dflt' > ) ]
Lookup: 1 0 0 "'unic' Unicase lookup 2" { "'unic' Unicase lookup 2 subtable"  } ['unic' ('DFLT' <'dflt' > 'cyrl' <'dflt' > 'grek' <'dflt' > 'latn' <'AZE ' 'CRT ' 'FRA ' 'MOL ' 'NAV ' 'ROM ' 'TRK ' 'dflt' > ) ]

StartChar: A
Encoding: 65 65 2
Width: 1223
VWidth: 1798
GlyphClass: 2
Flags: W
AnchorPoint: "Anchor-1" 686 -250 basechar 0
AnchorPoint: "Anchor-0" 672 1351 basechar 0
LayerCount: 2
Fore
SplineSet
1130 -250 m 1,0,-1
 968 185 l 1,1,-1
 254 185 l 1,2,-1
 92 -250 l 1,3,-1
 33 -250 l 1,4,-1
 578 1206 l 1,5,-1
 644 1206 l 1,6,-1
 1189 -250 l 1,7,-1
 1130 -250 l 1,0,-1
274 239 m 1,8,-1
 948 239 l 1,9,-1
 611 1141 l 1,10,-1
 274 239 l 1,8,-1
EndSplineSet
Substitution2: "'unic' Unicase lookup 2 subtable" A.unic
Substitution2: "'c2sc' Capitals to Small Capitals lookup 0 subtable" A.smcp
Position2: "'cpsp' Capital Spacing lookup 0 subtable" dx=36 dy=0 dh=72 dv=0
EndChar

StartChar: A.smcp
Encoding: 65537 -1 3
Width: 1058
GlyphClass: 2
Flags: W
AnchorPoint: "Anchor-1" 592 0 basechar 0
AnchorPoint: "Anchor-0" 581 1320 basechar 0
LayerCount: 2
Fore
SplineSet
971 0 m 1,0,-1
 834 342 l 1,1,-1
 224 342 l 1,2,-1
 87 0 l 1,3,-1
 28 0 l 1,4,-1
 497 1165 l 1,5,-1
 560 1165 l 1,6,-1
 1029 0 l 1,7,-1
 971 0 l 1,0,-1
507 1049 m 1,8,-1
 246 396 l 1,9,-1
 813 396 l 1,10,-1
 551 1050 l 1,11,-1
 529 1115 l 1,12,-1
 507 1049 l 1,8,-1
EndSplineSet
EndChar

StartChar: A.unic
Encoding: 65538 -1 4
Width: 1317
GlyphClass: 2
Flags: W
AnchorPoint: "Anchor-1" 682 0 basechar 0
AnchorPoint: "Anchor-0" 701 1632 basechar 0
LayerCount: 2
Fore
SplineSet
1085 243 m 2,0,-1
 1085 282 l 1,1,2
 1040 203 1040 203 964 134 c 128,-1,3
 888 65 888 65 778.5 22.5 c 128,-1,4
 669 -20 669 -20 523 -20 c 0,5,6
 397 -20 397 -20 304.5 28 c 128,-1,7
 212 76 212 76 161 160.5 c 128,-1,8
 110 245 110 245 110 354 c 0,9,10
 110 492 110 492 175.5 588 c 128,-1,11
 241 684 241 684 388.5 734 c 128,-1,12
 536 784 536 784 780 784 c 2,13,-1
 1085 784 l 1,14,-1
 1085 1033 l 2,15,16
 1085 1220 1085 1220 972.5 1321 c 128,-1,17
 860 1422 860 1422 649 1422 c 0,18,19
 520 1422 520 1422 417 1376.5 c 128,-1,20
 314 1331 314 1331 253.5 1250 c 128,-1,21
 193 1169 193 1169 193 1063 c 1,22,-1
 139 1065 l 1,23,24
 139 1179 139 1179 204.5 1272.5 c 128,-1,25
 270 1366 270 1366 385.5 1421 c 128,-1,26
 501 1476 501 1476 649 1476 c 0,27,28
 794 1476 794 1476 904 1428.5 c 128,-1,29
 1014 1381 1014 1381 1076.5 1282.5 c 128,-1,30
 1139 1184 1139 1184 1139 1031 c 2,31,-1
 1139 258 l 2,32,33
 1139 188 1139 188 1146.5 118 c 128,-1,34
 1154 48 1154 48 1167 9 c 1,35,-1
 1167 0 l 1,36,-1
 1105 0 l 1,37,38
 1095 47 1095 47 1090 113 c 128,-1,39
 1085 179 1085 179 1085 243 c 2,0,-1
523 33 m 0,40,41
 733 33 733 33 874.5 129 c 128,-1,42
 1016 225 1016 225 1085 386 c 1,43,-1
 1085 729 l 1,44,-1
 779 729 l 2,45,46
 551 729 551 729 416.5 686.5 c 128,-1,47
 282 644 282 644 223 559.5 c 128,-1,48
 164 475 164 475 164 350 c 0,49,50
 164 263 164 263 209.5 191 c 128,-1,51
 255 119 255 119 336 76 c 128,-1,52
 417 33 417 33 523 33 c 0,40,41
EndSplineSet
EndChar

StartChar: AE
Encoding: 198 198 5
Width: 1816
VWidth: 1798
GlyphClass: 2
Flags: W
AnchorPoint: "Anchor-0" 939 1362 basechar 0
LayerCount: 2
Fore
SplineSet
1768 -196 m 1,0,-1
 1768 -250 l 1,1,-1
 1016 -250 l 1,2,-1
 998 175 l 1,3,-1
 371 175 l 1,4,-1
 115 -250 l 1,5,-1
 50 -250 l 1,6,-1
 931 1206 l 1,7,-1
 1707 1206 l 1,8,-1
 1707 1152 l 1,9,-1
 1011 1152 l 1,10,-1
 1037 536 l 1,11,-1
 1625 536 l 1,12,-1
 1625 482 l 1,13,-1
 1039 482 l 1,14,-1
 1068 -196 l 1,15,-1
 1768 -196 l 1,0,-1
403 228 m 1,16,-1
 996 228 l 1,17,-1
 957 1149 l 1,18,-1
 403 228 l 1,16,-1
EndSplineSet
Substitution2: "'c2sc' Capitals to Small Capitals lookup 0 subtable" AE.smcp
Position2: "'cpsp' Capital Spacing lookup 0 subtable" dx=36 dy=0 dh=72 dv=0
EndChar

StartChar: AE.smcp
Encoding: 65539 -1 6
Width: 1553
GlyphClass: 2
Flags: W
AnchorPoint: "Anchor-1" 896 0 basechar 0
AnchorPoint: "Anchor-0" 896 1290 basechar 0
LayerCount: 2
Fore
SplineSet
1485 54 m 1,0,-1
 1485 0 l 1,1,-1
 752 0 l 1,2,-1
 752 346 l 1,3,-1
 296 346 l 1,4,-1
 86 0 l 1,5,-1
 20 0 l 1,6,-1
 733 1165 l 1,7,-1
 1485 1165 l 1,8,-1
 1485 1111 l 1,9,-1
 806 1111 l 1,10,-1
 806 630 l 1,11,-1
 1398 630 l 1,12,-1
 1398 576 l 1,13,-1
 806 576 l 1,14,-1
 806 54 l 1,15,-1
 1485 54 l 1,0,-1
328 400 m 1,16,-1
 752 400 l 1,17,-1
 752 1099 l 1,18,-1
 328 400 l 1,16,-1
EndSplineSet
EndChar

StartChar: Aogonek
Encoding: 260 260 27
Width: 1223
VWidth: 1798
GlyphClass: 2
Flags: W
AnchorPoint: "Anchor-1" 686 -250 basechar 0
AnchorPoint: "Anchor-0" 672 1351 basechar 0
LayerCount: 2
Fore
SplineSet
33 -250 m 1,0,-1
 578 1206 l 1,1,-1
 644 1206 l 1,2,-1
 1189 -250 l 1,3,4
 1118 -306 1118 -306 1059.5 -365 c 128,-1,5
 1001 -424 1001 -424 1001 -496 c 0,6,7
 1001 -533 1001 -533 1020 -562 c 128,-1,8
 1039 -591 1039 -591 1094 -591 c 0,9,10
 1134 -591 1134 -591 1160 -578.5 c 128,-1,11
 1186 -566 1186 -566 1204 -553 c 1,12,-1
 1220 -601 l 1,13,14
 1201 -616 1201 -616 1170.5 -630.5 c 128,-1,15
 1140 -645 1140 -645 1094 -645 c 0,16,17
 1027 -645 1027 -645 987 -608.5 c 128,-1,18
 947 -572 947 -572 947 -496 c 0,19,20
 947 -430 947 -430 1003 -364 c 128,-1,21
 1059 -298 1059 -298 1128 -244 c 1,22,-1
 968 185 l 1,23,-1
 254 185 l 1,24,-1
 92 -250 l 1,25,-1
 33 -250 l 1,0,-1
274 239 m 1,26,-1
 948 239 l 1,27,-1
 611 1141 l 1,28,-1
 274 239 l 1,26,-1
EndSplineSet
Substitution2: "'locl' Localized Forms in Latin lookup 8 subtable" Aogonek.NAV
Substitution2: "'unic' Unicase lookup 2 subtable" Aogonek.unic
Substitution2: "'c2sc' Capitals to Small Capitals lookup 0 subtable" Aogonek.smcp
Position2: "'cpsp' Capital Spacing lookup 0 subtable" dx=36 dy=0 dh=72 dv=0
EndChar

StartChar: Aogonek.smcp
Encoding: 65554 -1 29
Width: 1058
GlyphClass: 2
Flags: W
AnchorPoint: "Anchor-1" 592 0 basechar 0
AnchorPoint: "Anchor-0" 581 1320 basechar 0
LayerCount: 2
Fore
SplineSet
28 0 m 1,0,-1
 497 1165 l 1,1,-1
 560 1165 l 1,2,-1
 1029 0 l 1,3,-1
 1027 0 l 1,4,5
 956 -56 956 -56 897.5 -115 c 128,-1,6
 839 -174 839 -174 839 -246 c 0,7,8
 839 -283 839 -283 858 -312 c 128,-1,9
 877 -341 877 -341 932 -341 c 0,10,11
 972 -341 972 -341 998 -328.5 c 128,-1,12
 1024 -316 1024 -316 1042 -303 c 1,13,-1
 1058 -351 l 1,14,15
 1039 -366 1039 -366 1008.5 -380.5 c 128,-1,16
 978 -395 978 -395 932 -395 c 0,17,18
 865 -395 865 -395 825 -358.5 c 128,-1,19
 785 -322 785 -322 785 -246 c 0,20,21
 785 -179 785 -179 842 -112.5 c 128,-1,22
 899 -46 899 -46 968 8 c 1,23,-1
 834 342 l 1,24,-1
 224 342 l 1,25,-1
 87 0 l 1,26,-1
 28 0 l 1,0,-1
507 1049 m 1,27,-1
 246 396 l 1,28,-1
 813 396 l 1,29,-1
 551 1050 l 1,30,-1
 529 1115 l 1,31,-1
 507 1049 l 1,27,-1
EndSplineSet
Substitution2: "'locl' Localized Forms in Latin lookup 8 subtable" Aogonek.smcp.NAV
EndChar

StartChar: B
Encoding: 66 66 41
Width: 1235
VWidth: 1798
GlyphClass: 2
Flags: W
AnchorPoint: "Anchor-1" 613 -240 basechar 0
AnchorPoint: "Anchor-0" 606 1362 basechar 0
LayerCount: 2
Fore
SplineSet
675 -250 m 2,0,-1
 200 -250 l 1,1,-1
 200 1206 l 1,2,-1
 583 1206 l 2,3,4
 804 1206 804 1206 931.5 1116 c 128,-1,5
 1059 1026 1059 1026 1059 833 c 0,6,7
 1059 706 1059 706 993 616.5 c 128,-1,8
 927 527 927 527 803 504 c 1,9,10
 894 492 894 492 967 441.5 c 128,-1,11
 1040 391 1040 391 1082.5 315.5 c 128,-1,12
 1125 240 1125 240 1125 151 c 0,13,14
 1125 -43 1125 -43 999.5 -146.5 c 128,-1,15
 874 -250 874 -250 675 -250 c 2,0,-1
583 1152 m 2,16,-1
 254 1152 l 1,17,-1
 254 523 l 1,18,-1
 603 523 l 2,19,20
 1004 523 1004 523 1004 837 c 0,21,22
 1004 1152 1004 1152 583 1152 c 2,16,-1
1071 149 m 0,23,24
 1071 233 1071 233 1028.5 306 c 128,-1,25
 986 379 986 379 900 424 c 128,-1,26
 814 469 814 469 685 469 c 2,27,-1
 254 469 l 1,28,-1
 254 -196 l 1,29,-1
 675 -196 l 2,30,31
 859 -196 859 -196 965 -105 c 128,-1,32
 1071 -14 1071 -14 1071 149 c 0,23,24
EndSplineSet
Substitution2: "'c2sc' Capitals to Small Capitals lookup 0 subtable" B.smcp
Position2: "'cpsp' Capital Spacing lookup 0 subtable" dx=36 dy=0 dh=72 dv=0
EndChar

StartChar: B.smcp
Encoding: 65563 -1 42
Width: 1064
GlyphClass: 2
Flags: W
AnchorPoint: "Anchor-1" 536 10 basechar 0
AnchorPoint: "Anchor-0" 529 1320 basechar 0
LayerCount: 2
Fore
SplineSet
580 0 m 2,0,-1
 170 0 l 1,1,-1
 170 1165 l 1,2,-1
 504 1165 l 2,3,4
 694 1165 694 1165 803.5 1092 c 128,-1,5
 913 1019 913 1019 913 864 c 0,6,7
 913 766 913 766 859.5 696 c 128,-1,8
 806 626 806 626 705 604 c 1,9,10
 819 587 819 587 894 506.5 c 128,-1,11
 969 426 969 426 969 322 c 0,12,13
 969 165 969 165 860.5 82.5 c 128,-1,14
 752 0 752 0 580 0 c 2,0,-1
504 1110 m 2,15,-1
 224 1110 l 1,16,-1
 224 625 l 1,17,-1
 521 625 l 2,18,19
 859 625 859 625 859 867 c 0,20,21
 859 1110 859 1110 504 1110 c 2,15,-1
915 320 m 0,22,23
 915 421 915 421 834 496 c 128,-1,24
 753 571 753 571 589 571 c 2,25,-1
 224 571 l 1,26,-1
 224 54 l 1,27,-1
 580 54 l 2,28,29
 736 54 736 54 825.5 124 c 128,-1,30
 915 194 915 194 915 320 c 0,22,23
EndSplineSet
EndChar

StartChar: C
Encoding: 67 67 43
Width: 1327
VWidth: 1798
GlyphClass: 2
Flags: W
AnchorPoint: "Anchor-1" 680 -260 basechar 0
AnchorPoint: "Anchor-0" 680 1383 basechar 0
LayerCount: 2
Fore
SplineSet
1136 196 m 1,0,-1
 1190 196 l 1,1,2
 1168 -40 1168 -40 1029 -155 c 128,-1,3
 890 -270 890 -270 671 -270 c 0,4,5
 511 -270 511 -270 392.5 -189.5 c 128,-1,6
 274 -109 274 -109 209 35 c 128,-1,7
 144 179 144 179 144 369 c 2,8,-1
 144 587 l 2,9,10
 144 777 144 777 209 921 c 128,-1,11
 274 1065 274 1065 392.5 1145.5 c 128,-1,12
 511 1226 511 1226 671 1226 c 0,13,14
 890 1226 890 1226 1029 1110.5 c 128,-1,15
 1168 995 1168 995 1190 762 c 1,16,-1
 1136 762 l 1,17,18
 1114 962 1114 962 996 1067 c 128,-1,19
 878 1172 878 1172 671 1172 c 0,20,21
 530 1172 530 1172 423.5 1099.5 c 128,-1,22
 317 1027 317 1027 257.5 896 c 128,-1,23
 198 765 198 765 198 589 c 2,24,-1
 198 369 l 2,25,26
 198 193 198 193 257.5 61 c 128,-1,27
 317 -71 317 -71 423.5 -143.5 c 128,-1,28
 530 -216 530 -216 671 -216 c 0,29,30
 874 -216 874 -216 994 -117 c 128,-1,31
 1114 -18 1114 -18 1136 196 c 1,0,-1
EndSplineSet
Substitution2: "'c2sc' Capitals to Small Capitals lookup 0 subtable" C.smcp
Position2: "'cpsp' Capital Spacing lookup 0 subtable" dx=36 dy=0 dh=72 dv=0
EndChar

StartChar: C.smcp
Encoding: 65564 -1 44
Width: 1141
GlyphClass: 2
Flags: W
AnchorPoint: "Anchor-1" 586 -4 basechar 0
AnchorPoint: "Anchor-0" 587 1320 basechar 0
LayerCount: 2
Fore
SplineSet
972 358 m 1,0,-1
 1026 358 l 1,1,2
 1007 172 1007 172 888 78 c 128,-1,3
 769 -16 769 -16 578 -16 c 0,4,5
 440 -16 440 -16 337.5 49 c 128,-1,6
 235 114 235 114 178.5 229.5 c 128,-1,7
 122 345 122 345 122 498 c 2,8,-1
 122 666 l 2,9,10
 122 819 122 819 178.5 935 c 128,-1,11
 235 1051 235 1051 337.5 1116 c 128,-1,12
 440 1181 440 1181 579 1181 c 0,13,14
 769 1181 769 1181 888 1086.5 c 128,-1,15
 1007 992 1007 992 1026 807 c 1,16,-1
 972 807 l 1,17,18
 953 962 953 962 854 1044 c 128,-1,19
 755 1126 755 1126 579 1126 c 0,20,21
 458 1126 458 1126 367 1069 c 128,-1,22
 276 1012 276 1012 226 908.5 c 128,-1,23
 176 805 176 805 176 667 c 2,24,-1
 176 498 l 2,25,26
 176 361 176 361 226 257 c 128,-1,27
 276 153 276 153 366.5 95 c 128,-1,28
 457 37 457 37 578 37 c 0,29,30
 751 37 751 37 852 115 c 128,-1,31
 953 193 953 193 972 358 c 1,0,-1
EndSplineSet
EndChar

StartChar: D
Encoding: 68 68 54
Width: 1340
VWidth: 1798
GlyphClass: 2
Flags: W
AnchorPoint: "Anchor-1" 613 -240 basechar 0
AnchorPoint: "Anchor-0" 609 1362 basechar 0
LayerCount: 2
Fore
SplineSet
603 -250 m 2,0,-1
 200 -250 l 1,1,-1
 200 1206 l 1,2,-1
 603 1206 l 2,3,4
 775 1206 775 1206 911 1125 c 128,-1,5
 1047 1044 1047 1044 1125.5 900.5 c 128,-1,6
 1204 757 1204 757 1204 567 c 2,7,-1
 1204 389 l 2,8,9
 1204 199 1204 199 1125.5 55.5 c 128,-1,10
 1047 -88 1047 -88 911 -169 c 128,-1,11
 775 -250 775 -250 603 -250 c 2,0,-1
603 1152 m 2,12,-1
 254 1152 l 1,13,-1
 254 -196 l 1,14,-1
 603 -196 l 2,15,16
 760 -196 760 -196 883.5 -121 c 128,-1,17
 1007 -46 1007 -46 1078.5 86 c 128,-1,18
 1150 218 1150 218 1150 389 c 2,19,-1
 1150 570 l 2,20,21
 1150 740 1150 740 1078.5 871 c 128,-1,22
 1007 1002 1007 1002 883.5 1077 c 128,-1,23
 760 1152 760 1152 603 1152 c 2,12,-1
EndSplineSet
Substitution2: "'c2sc' Capitals to Small Capitals lookup 0 subtable" D.smcp
Position2: "'cpsp' Capital Spacing lookup 0 subtable" dx=36 dy=0 dh=72 dv=0
EndChar

StartChar: D.smcp
Encoding: 65569 -1 55
Width: 1152
GlyphClass: 2
Flags: W
AnchorPoint: "Anchor-1" 500 10 basechar 0
AnchorPoint: "Anchor-0" 500 1320 basechar 0
LayerCount: 2
Fore
SplineSet
516 0 m 2,0,-1
 170 0 l 1,1,-1
 170 1165 l 1,2,-1
 517 1165 l 2,3,4
 666 1165 666 1165 783.5 1100 c 128,-1,5
 901 1035 901 1035 968.5 918.5 c 128,-1,6
 1036 802 1036 802 1036 648 c 2,7,-1
 1036 516 l 2,8,9
 1036 362 1036 362 968.5 246 c 128,-1,10
 901 130 901 130 783.5 65 c 128,-1,11
 666 0 666 0 516 0 c 2,0,-1
517 1110 m 2,12,-1
 224 1110 l 1,13,-1
 224 54 l 1,14,-1
 516 54 l 2,15,16
 651 54 651 54 756 113 c 128,-1,17
 861 172 861 172 921.5 276.5 c 128,-1,18
 982 381 982 381 982 516 c 2,19,-1
 982 650 l 2,20,21
 982 786 982 786 921.5 889.5 c 128,-1,22
 861 993 861 993 756 1051.5 c 128,-1,23
 651 1110 651 1110 517 1110 c 2,12,-1
EndSplineSet
EndChar

StartChar: Dcroat
Encoding: 272 272 58
Width: 1370
VWidth: 1798
GlyphClass: 2
Flags: W
AnchorPoint: "Anchor-1" 613 -240 basechar 0
AnchorPoint: "Anchor-0" 609 1362 basechar 0
LayerCount: 2
Fore
SplineSet
633 -250 m 2,0,-1
 230 -250 l 1,1,-1
 230 463 l 1,2,-1
 90 463 l 1,3,-1
 90 517 l 1,4,-1
 230 517 l 1,5,-1
 230 1206 l 1,6,-1
 633 1206 l 2,7,8
 805 1206 805 1206 941 1125 c 128,-1,9
 1077 1044 1077 1044 1155.5 900.5 c 128,-1,10
 1234 757 1234 757 1234 567 c 2,11,-1
 1234 389 l 2,12,13
 1234 199 1234 199 1155.5 55.5 c 128,-1,14
 1077 -88 1077 -88 941 -169 c 128,-1,15
 805 -250 805 -250 633 -250 c 2,0,-1
677 517 m 1,16,-1
 677 463 l 1,17,-1
 284 463 l 1,18,-1
 284 -196 l 1,19,-1
 633 -196 l 2,20,21
 790 -196 790 -196 913.5 -121 c 128,-1,22
 1037 -46 1037 -46 1108.5 86 c 128,-1,23
 1180 218 1180 218 1180 389 c 2,24,-1
 1180 570 l 2,25,26
 1180 740 1180 740 1108.5 871 c 128,-1,27
 1037 1002 1037 1002 913.5 1077 c 128,-1,28
 790 1152 790 1152 633 1152 c 2,29,-1
 284 1152 l 1,30,-1
 284 517 l 1,31,-1
 677 517 l 1,16,-1
EndSplineSet
Substitution2: "'c2sc' Capitals to Small Capitals lookup 0 subtable" Dcroat.smcp
Position2: "'cpsp' Capital Spacing lookup 0 subtable" dx=36 dy=0 dh=72 dv=0
EndChar

StartChar: Delta
Encoding: 8710 8710 60
Width: 1411
GlyphClass: 2
Flags: W
LayerCount: 2
Fore
SplineSet
58 0 m 1,0,-1
 674 1456 l 1,1,-1
 739 1456 l 1,2,-1
 1356 0 l 1,3,-1
 58 0 l 1,0,-1
676 1325 m 1,4,-1
 140 54 l 1,5,-1
 1273 54 l 1,6,-1
 736 1325 l 1,7,-1
 706 1405 l 1,8,-1
 676 1325 l 1,4,-1
EndSplineSet
Substitution2: "'c2sc' Capitals to Small Capitals lookup 0 subtable" Delta.smcp
Position2: "'cpsp' Capital Spacing lookup 0 subtable" dx=36 dy=0 dh=72 dv=0
EndChar

StartChar: Delta.smcp
Encoding: 65572 -1 61
Width: 1056
GlyphClass: 2
Flags: W
LayerCount: 2
Fore
SplineSet
29 0 m 1,0,-1
 497 1165 l 1,1,-1
 559 1165 l 1,2,-1
 1027 0 l 1,3,-1
 29 0 l 1,0,-1
554 1028 m 1,4,-1
 528 1108 l 1,5,-1
 503 1028 l 1,6,-1
 111 54 l 1,7,-1
 946 54 l 1,8,-1
 554 1028 l 1,4,-1
EndSplineSet
EndChar

StartChar: E
Encoding: 69 69 62
Width: 1166
VWidth: 1798
GlyphClass: 2
Flags: W
AnchorPoint: "Anchor-1" 619 -240 basechar 0
AnchorPoint: "Anchor-0" 619 1362 basechar 0
LayerCount: 2
Fore
SplineSet
1086 -196 m 1,0,-1
 1086 -250 l 1,1,-1
 200 -250 l 1,2,-1
 200 1206 l 1,3,-1
 1086 1206 l 1,4,-1
 1086 1152 l 1,5,-1
 254 1152 l 1,6,-1
 254 526 l 1,7,-1
 984 526 l 1,8,-1
 984 472 l 1,9,-1
 254 472 l 1,10,-1
 254 -196 l 1,11,-1
 1086 -196 l 1,0,-1
EndSplineSet
Substitution2: "'unic' Unicase lookup 2 subtable" E.unic
Substitution2: "'c2sc' Capitals to Small Capitals lookup 0 subtable" E.smcp
Position2: "'cpsp' Capital Spacing lookup 0 subtable" dx=36 dy=0 dh=72 dv=0
EndChar

StartChar: E.smcp
Encoding: 65573 -1 63
Width: 1002
GlyphClass: 2
Flags: W
AnchorPoint: "Anchor-1" 537 8 basechar 0
AnchorPoint: "Anchor-0" 537 1320 basechar 0
LayerCount: 2
Fore
SplineSet
934 54 m 1,0,-1
 934 0 l 1,1,-1
 170 0 l 1,2,-1
 170 1165 l 1,3,-1
 933 1165 l 1,4,-1
 933 1110 l 1,5,-1
 224 1110 l 1,6,-1
 224 633 l 1,7,-1
 846 633 l 1,8,-1
 846 579 l 1,9,-1
 224 579 l 1,10,-1
 224 54 l 1,11,-1
 934 54 l 1,0,-1
EndSplineSet
EndChar

StartChar: E.unic
Encoding: 65574 -1 64
Width: 1339
GlyphClass: 2
Flags: W
AnchorPoint: "Anchor-1" 743 10 basechar 0
AnchorPoint: "Anchor-0" 735 1643 basechar 0
LayerCount: 2
Fore
SplineSet
712 -20 m 0,0,1
 530 -20 530 -20 400 64.5 c 128,-1,2
 270 149 270 149 201.5 298 c 128,-1,3
 133 447 133 447 133 641 c 2,4,-1
 133 793 l 2,5,6
 133 1005 133 1005 203.5 1158 c 128,-1,7
 274 1311 274 1311 400.5 1393.5 c 128,-1,8
 527 1476 527 1476 694 1476 c 0,9,10
 848 1476 848 1476 967.5 1410.5 c 128,-1,11
 1087 1345 1087 1345 1155.5 1214.5 c 128,-1,12
 1224 1084 1224 1084 1224 888 c 2,13,-1
 1224 725 l 1,14,-1
 187 725 l 1,15,-1
 187 641 l 2,16,17
 187 473 187 473 243.5 335 c 128,-1,18
 300 197 300 197 416.5 115 c 128,-1,19
 533 33 533 33 712 34 c 0,20,21
 873 35 873 35 985 97.5 c 128,-1,22
 1097 160 1097 160 1163 246 c 1,23,-1
 1203 214 l 1,24,25
 1159 159 1159 159 1093.5 105 c 128,-1,26
 1028 51 1028 51 935 15.5 c 128,-1,27
 842 -20 842 -20 712 -20 c 0,0,1
694 1422 m 0,28,29
 530 1422 530 1422 417 1341.5 c 128,-1,30
 304 1261 304 1261 245.5 1119 c 128,-1,31
 187 977 187 977 187 793 c 2,32,-1
 187 780 l 1,33,-1
 1170 780 l 1,34,-1
 1170 892 l 2,35,36
 1170 1149 1170 1149 1041.5 1285.5 c 128,-1,37
 913 1422 913 1422 694 1422 c 0,28,29
EndSplineSet
EndChar

StartChar: Eng
Encoding: 330 330 89
Width: 1450
VWidth: 1798
GlyphClass: 2
Flags: W
AnchorPoint: "Anchor-1" 720 -240 basechar 0
AnchorPoint: "Anchor-0" 726 1351 basechar 0
LayerCount: 2
Fore
SplineSet
200 1206 m 1,0,-1
 254 1206 l 1,1,-1
 1196 -157 l 1,2,-1
 1196 1206 l 1,3,-1
 1250 1206 l 1,4,-1
 1250 -339 l 2,5,6
 1250 -508 1250 -508 1174.5 -597.5 c 128,-1,7
 1099 -687 1099 -687 965 -687 c 0,8,9
 934 -687 934 -687 908 -682 c 128,-1,10
 882 -677 882 -677 853 -667 c 1,11,-1
 866 -615 l 1,12,13
 882 -621 882 -621 909.5 -627 c 128,-1,14
 937 -633 937 -633 965 -633 c 0,15,16
 1075 -633 1075 -633 1135.5 -556.5 c 128,-1,17
 1196 -480 1196 -480 1196 -339 c 2,18,-1
 1196 -250 l 1,19,-1
 254 1114 l 1,20,-1
 254 -250 l 1,21,-1
 200 -250 l 1,22,-1
 200 1206 l 1,0,-1
EndSplineSet
Substitution2: "'c2sc' Capitals to Small Capitals lookup 0 subtable" Eng.smcp
Position2: "'cpsp' Capital Spacing lookup 0 subtable" dx=36 dy=0 dh=72 dv=0
EndChar

StartChar: Eng.smcp
Encoding: 65591 -1 90
Width: 1246
GlyphClass: 2
Flags: W
AnchorPoint: "Anchor-1" 619 4 basechar 0
AnchorPoint: "Anchor-0" 624 1320 basechar 0
LayerCount: 2
Fore
SplineSet
1076 1165 m 1,0,-1
 1076 -89 l 2,1,2
 1076 -258 1076 -258 1000.5 -347.5 c 128,-1,3
 925 -437 925 -437 791 -437 c 0,4,5
 760 -437 760 -437 734 -432 c 128,-1,6
 708 -427 708 -427 679 -417 c 1,7,-1
 692 -365 l 1,8,9
 708 -371 708 -371 735.5 -377.5 c 128,-1,10
 763 -384 763 -384 791 -384 c 0,11,12
 902 -384 902 -384 962 -307 c 128,-1,13
 1022 -230 1022 -230 1022 -89 c 2,14,-1
 1022 0 l 1,15,-1
 224 1075 l 1,16,-1
 224 0 l 1,17,-1
 170 0 l 1,18,-1
 170 1165 l 1,19,-1
 224 1165 l 1,20,-1
 1022 93 l 1,21,-1
 1022 1165 l 1,22,-1
 1076 1165 l 1,0,-1
EndSplineSet
EndChar

StartChar: Eogonek
Encoding: 280 280 91
Width: 1166
VWidth: 1798
GlyphClass: 2
Flags: W
AnchorPoint: "Anchor-1" 619 -240 basechar 0
AnchorPoint: "Anchor-0" 619 1362 basechar 0
LayerCount: 2
Fore
SplineSet
1086 -196 m 1,0,-1
 1086 -250 l 1,1,-1
 1027 -250 l 1,2,3
 956 -306 956 -306 897.5 -365 c 128,-1,4
 839 -424 839 -424 839 -496 c 0,5,6
 839 -533 839 -533 858 -562 c 128,-1,7
 877 -591 877 -591 932 -591 c 0,8,9
 972 -591 972 -591 998 -578.5 c 128,-1,10
 1024 -566 1024 -566 1042 -553 c 1,11,-1
 1058 -601 l 1,12,13
 1039 -616 1039 -616 1008.5 -630.5 c 128,-1,14
 978 -645 978 -645 932 -645 c 0,15,16
 865 -645 865 -645 825 -608.5 c 128,-1,17
 785 -572 785 -572 785 -496 c 0,18,19
 785 -432 785 -432 838.5 -367.5 c 128,-1,20
 892 -303 892 -303 958 -250 c 1,21,-1
 200 -250 l 1,22,-1
 200 1206 l 1,23,-1
 1086 1206 l 1,24,-1
 1086 1152 l 1,25,-1
 254 1152 l 1,26,-1
 254 526 l 1,27,-1
 984 526 l 1,28,-1
 984 472 l 1,29,-1
 254 472 l 1,30,-1
 254 -196 l 1,31,-1
 1086 -196 l 1,0,-1
EndSplineSet
Substitution2: "'locl' Localized Forms in Latin lookup 8 subtable" Eogonek.NAV
Substitution2: "'unic' Unicase lookup 2 subtable" Eogonek.unic
Substitution2: "'c2sc' Capitals to Small Capitals lookup 0 subtable" Eogonek.smcp
Position2: "'cpsp' Capital Spacing lookup 0 subtable" dx=36 dy=0 dh=72 dv=0
EndChar

StartChar: Eogonek.smcp
Encoding: 65593 -1 93
Width: 1002
GlyphClass: 2
Flags: W
AnchorPoint: "Anchor-1" 537 8 basechar 0
AnchorPoint: "Anchor-0" 537 1320 basechar 0
LayerCount: 2
Fore
SplineSet
934 54 m 1,0,-1
 934 0 l 1,1,-1
 886 0 l 1,2,3
 815 -56 815 -56 756.5 -115 c 128,-1,4
 698 -174 698 -174 698 -246 c 0,5,6
 698 -283 698 -283 717 -312 c 128,-1,7
 736 -341 736 -341 791 -341 c 0,8,9
 831 -341 831 -341 857 -328.5 c 128,-1,10
 883 -316 883 -316 901 -303 c 1,11,-1
 917 -351 l 1,12,13
 898 -366 898 -366 867.5 -380.5 c 128,-1,14
 837 -395 837 -395 791 -395 c 0,15,16
 724 -395 724 -395 684 -358.5 c 128,-1,17
 644 -322 644 -322 644 -246 c 0,18,19
 644 -182 644 -182 697.5 -117.5 c 128,-1,20
 751 -53 751 -53 817 0 c 1,21,-1
 170 0 l 1,22,-1
 170 1165 l 1,23,-1
 933 1165 l 1,24,-1
 933 1110 l 1,25,-1
 224 1110 l 1,26,-1
 224 633 l 1,27,-1
 846 633 l 1,28,-1
 846 579 l 1,29,-1
 224 579 l 1,30,-1
 224 54 l 1,31,-1
 934 54 l 1,0,-1
EndSplineSet
Substitution2: "'locl' Localized Forms in Latin lookup 8 subtable" Eogonek.smcp.NAV
EndChar

StartChar: Eth
Encoding: 208 208 96
Width: 1370
VWidth: 1798
GlyphClass: 2
Flags: W
AnchorPoint: "Anchor-1" 613 -240 basechar 0
AnchorPoint: "Anchor-0" 609 1362 basechar 0
LayerCount: 2
Fore
SplineSet
633 -250 m 2,0,-1
 230 -250 l 1,1,-1
 230 463 l 1,2,-1
 90 463 l 1,3,-1
 90 517 l 1,4,-1
 230 517 l 1,5,-1
 230 1206 l 1,6,-1
 633 1206 l 2,7,8
 805 1206 805 1206 941 1125 c 128,-1,9
 1077 1044 1077 1044 1155.5 900.5 c 128,-1,10
 1234 757 1234 757 1234 567 c 2,11,-1
 1234 389 l 2,12,13
 1234 199 1234 199 1155.5 55.5 c 128,-1,14
 1077 -88 1077 -88 941 -169 c 128,-1,15
 805 -250 805 -250 633 -250 c 2,0,-1
677 517 m 1,16,-1
 677 463 l 1,17,-1
 284 463 l 1,18,-1
 284 -196 l 1,19,-1
 633 -196 l 2,20,21
 790 -196 790 -196 913.5 -121 c 128,-1,22
 1037 -46 1037 -46 1108.5 86 c 128,-1,23
 1180 218 1180 218 1180 389 c 2,24,-1
 1180 570 l 2,25,26
 1180 740 1180 740 1108.5 871 c 128,-1,27
 1037 1002 1037 1002 913.5 1077 c 128,-1,28
 790 1152 790 1152 633 1152 c 2,29,-1
 284 1152 l 1,30,-1
 284 517 l 1,31,-1
 677 517 l 1,16,-1
EndSplineSet
Substitution2: "'c2sc' Capitals to Small Capitals lookup 0 subtable" Eth.smcp
Position2: "'cpsp' Capital Spacing lookup 0 subtable" dx=36 dy=0 dh=72 dv=0
EndChar

StartChar: Euro
Encoding: 8364 8364 98
Width: 1121
GlyphClass: 2
Flags: W
LayerCount: 2
Fore
SplineSet
812 33 m 0,0,1
 928 33 928 33 1032 67 c 1,2,-1
 1032 10 l 1,3,4
 927 -21 927 -21 812 -21 c 0,5,6
 655 -21 655 -21 534 41.5 c 128,-1,7
 413 104 413 104 345 228 c 128,-1,8
 277 352 277 352 277 534 c 2,9,-1
 277 584 l 1,10,-1
 72 584 l 1,11,-1
 72 639 l 1,12,-1
 277 639 l 1,13,-1
 277 830 l 1,14,-1
 72 830 l 1,15,-1
 72 886 l 1,16,-1
 277 886 l 1,17,-1
 277 922 l 2,18,19
 277 1105 277 1105 344.5 1228 c 128,-1,20
 412 1351 412 1351 532.5 1413.5 c 128,-1,21
 653 1476 653 1476 810 1476 c 0,22,23
 868 1476 868 1476 921.5 1467.5 c 128,-1,24
 975 1459 975 1459 1032 1445 c 1,25,-1
 1032 1387 l 1,26,27
 982 1403 982 1403 925.5 1412.5 c 128,-1,28
 869 1422 869 1422 810 1422 c 0,29,30
 591 1422 591 1422 461 1298.5 c 128,-1,31
 331 1175 331 1175 331 924 c 2,32,-1
 331 886 l 1,33,-1
 786 886 l 1,34,-1
 786 830 l 1,35,-1
 331 830 l 1,36,-1
 331 639 l 1,37,-1
 786 639 l 1,38,-1
 786 584 l 1,39,-1
 331 584 l 1,40,-1
 331 534 l 2,41,42
 331 289 331 289 462 161 c 128,-1,43
 593 33 593 33 812 33 c 0,0,1
EndSplineSet
Substitution2: "'c2sc' Capitals to Small Capitals lookup 0 subtable" Euro.smcp
Position2: "'cpsp' Capital Spacing lookup 0 subtable" dx=36 dy=0 dh=72 dv=0
EndChar

StartChar: Euro.smcp
Encoding: 65597 -1 99
Width: 922
GlyphClass: 2
Flags: W
LayerCount: 2
Fore
SplineSet
649 33 m 0,0,1
 707 33 707 33 758 42 c 128,-1,2
 809 51 809 51 859 67 c 1,3,-1
 859 10 l 1,4,5
 808 -5 808 -5 757 -13 c 128,-1,6
 706 -21 706 -21 649 -21 c 0,7,8
 456 -21 456 -21 349 102.5 c 128,-1,9
 242 226 242 226 227 441 c 1,10,-1
 40 441 l 1,11,-1
 40 495 l 1,12,-1
 224 495 l 1,13,14
 224 504 224 504 224 514 c 2,15,-1
 224 647 l 2,16,17
 224 649 224 649 224 651 c 1,18,-1
 40 651 l 1,19,-1
 40 705 l 1,20,-1
 226 705 l 1,21,22
 238 926 238 926 344 1053.5 c 128,-1,23
 450 1181 450 1181 647 1181 c 0,24,25
 705 1181 705 1181 753.5 1172.5 c 128,-1,26
 802 1164 802 1164 859 1150 c 1,27,-1
 859 1092 l 1,28,29
 809 1108 809 1108 757.5 1117.5 c 128,-1,30
 706 1127 706 1127 647 1127 c 0,31,32
 467 1127 467 1127 378.5 1015 c 128,-1,33
 290 903 290 903 279 705 c 1,34,-1
 733 705 l 1,35,-1
 733 651 l 1,36,-1
 278 651 l 1,37,-1
 278 649 l 1,38,-1
 278 514 l 2,39,40
 278 504 278 504 278 495 c 1,41,-1
 733 495 l 1,42,-1
 733 441 l 1,43,-1
 281 441 l 1,44,45
 294 254 294 254 384 143.5 c 128,-1,46
 474 33 474 33 649 33 c 0,0,1
EndSplineSet
EndChar

StartChar: F
Encoding: 70 70 100
Width: 1172
VWidth: 1798
GlyphClass: 2
Flags: W
AnchorPoint: "Anchor-1" 619 -240 basechar 0
AnchorPoint: "Anchor-0" 619 1362 basechar 0
LayerCount: 2
Fore
SplineSet
1000 522 m 1,0,-1
 1000 466 l 1,1,-1
 254 466 l 1,2,-1
 254 -250 l 1,3,-1
 200 -250 l 1,4,-1
 200 1206 l 1,5,-1
 1102 1206 l 1,6,-1
 1102 1152 l 1,7,-1
 254 1152 l 1,8,-1
 254 522 l 1,9,-1
 1000 522 l 1,0,-1
EndSplineSet
Substitution2: "'c2sc' Capitals to Small Capitals lookup 0 subtable" F.smcp
Position2: "'cpsp' Capital Spacing lookup 0 subtable" dx=36 dy=0 dh=72 dv=0
EndChar

StartChar: F.smcp
Encoding: 65598 -1 101
Width: 1005
GlyphClass: 2
Flags: W
AnchorPoint: "Anchor-1" 489 10 basechar 0
AnchorPoint: "Anchor-0" 541 1320 basechar 0
LayerCount: 2
Fore
SplineSet
857 620 m 1,0,-1
 857 565 l 1,1,-1
 224 565 l 1,2,-1
 224 0 l 1,3,-1
 170 0 l 1,4,-1
 170 1165 l 1,5,-1
 945 1165 l 1,6,-1
 945 1110 l 1,7,-1
 224 1110 l 1,8,-1
 224 620 l 1,9,-1
 857 620 l 1,0,-1
EndSplineSet
EndChar

StartChar: G
Encoding: 71 71 102
Width: 1406
VWidth: 1798
GlyphClass: 2
Flags: W
AnchorPoint: "Anchor-1" 730 -259 basechar 0
AnchorPoint: "Anchor-0" 672 1383 basechar 0
LayerCount: 2
Fore
SplineSet
1226 410 m 1,0,-1
 1226 -94 l 1,1,2
 1203 -127 1203 -127 1139.5 -168 c 128,-1,3
 1076 -209 1076 -209 973.5 -239.5 c 128,-1,4
 871 -270 871 -270 729 -270 c 0,5,6
 563 -270 563 -270 436.5 -189 c 128,-1,7
 310 -108 310 -108 239 36 c 128,-1,8
 168 180 168 180 168 370 c 2,9,-1
 168 608 l 2,10,11
 168 792 168 792 237 931 c 128,-1,12
 306 1070 306 1070 429 1148 c 128,-1,13
 552 1226 552 1226 712 1226 c 0,14,15
 870 1226 870 1226 979 1171 c 128,-1,16
 1088 1116 1088 1116 1149.5 1022.5 c 128,-1,17
 1211 929 1211 929 1224 812 c 1,18,-1
 1170 812 l 1,19,20
 1155 907 1155 907 1105 989 c 128,-1,21
 1055 1071 1055 1071 959.5 1121.5 c 128,-1,22
 864 1172 864 1172 712 1172 c 0,23,24
 564 1172 564 1172 453.5 1100 c 128,-1,25
 343 1028 343 1028 282.5 901 c 128,-1,26
 222 774 222 774 222 610 c 2,27,-1
 222 370 l 2,28,29
 222 199 222 199 284.5 66.5 c 128,-1,30
 347 -66 347 -66 461 -141 c 128,-1,31
 575 -216 575 -216 729 -216 c 0,32,33
 848 -216 848 -216 939.5 -191.5 c 128,-1,34
 1031 -167 1031 -167 1090.5 -132.5 c 128,-1,35
 1150 -98 1150 -98 1172 -69 c 1,36,-1
 1172 355 l 1,37,-1
 727 355 l 1,38,-1
 727 410 l 1,39,-1
 1226 410 l 1,0,-1
EndSplineSet
Substitution2: "'c2sc' Capitals to Small Capitals lookup 0 subtable" G.smcp
Position2: "'cpsp' Capital Spacing lookup 0 subtable" dx=36 dy=0 dh=72 dv=0
EndChar

StartChar: G.smcp
Encoding: 65599 -1 103
Width: 1208
GlyphClass: 2
Flags: W
AnchorPoint: "Anchor-1" 591 -4 basechar 0
AnchorPoint: "Anchor-0" 584 1320 basechar 0
LayerCount: 2
Fore
SplineSet
1055 534 m 1,0,-1
 1055 129 l 1,1,2
 1035 102 1035 102 981 68 c 128,-1,3
 927 34 927 34 839 9 c 128,-1,4
 751 -16 751 -16 627 -16 c 0,5,6
 484 -16 484 -16 374.5 48.5 c 128,-1,7
 265 113 265 113 203.5 230 c 128,-1,8
 142 347 142 347 142 502 c 2,9,-1
 142 678 l 2,10,11
 142 829 142 829 201.5 942 c 128,-1,12
 261 1055 261 1055 366.5 1118 c 128,-1,13
 472 1181 472 1181 611 1181 c 0,14,15
 815 1181 815 1181 925 1084.5 c 128,-1,16
 1035 988 1035 988 1053 846 c 1,17,-1
 999 846 l 1,18,19
 987 920 987 920 944.5 984 c 128,-1,20
 902 1048 902 1048 821 1087 c 128,-1,21
 740 1126 740 1126 611 1126 c 0,22,23
 484 1126 484 1126 391 1069 c 128,-1,24
 298 1012 298 1012 246.5 911.5 c 128,-1,25
 195 811 195 811 195 680 c 2,26,-1
 195 502 l 2,27,28
 195 365 195 365 248.5 260 c 128,-1,29
 302 155 302 155 399 96 c 128,-1,30
 496 37 496 37 627 37 c 0,31,32
 779 37 779 37 875.5 77 c 128,-1,33
 972 117 972 117 1001 151 c 1,34,-1
 1001 480 l 1,35,-1
 624 480 l 1,36,-1
 624 534 l 1,37,-1
 1055 534 l 1,0,-1
EndSplineSet
EndChar

StartChar: Germandbls.smcp
Encoding: 65604 -1 111
Width: 1064
GlyphClass: 2
Flags: W
LayerCount: 2
Fore
SplineSet
358 38 m 1,0,-1
 384 87 l 1,1,2
 420 68 420 68 474.5 51 c 128,-1,3
 529 34 529 34 592 34 c 0,4,5
 746 34 746 34 840.5 108 c 128,-1,6
 935 182 935 182 935 338 c 0,7,8
 935 454 935 454 851 529.5 c 128,-1,9
 767 605 767 605 562 605 c 2,10,-1
 499 605 l 1,11,-1
 499 657 l 1,12,-1
 819 988 l 1,13,14
 774 1050 774 1050 698.5 1090.5 c 128,-1,15
 623 1131 623 1131 529 1131 c 0,16,17
 371 1131 371 1131 297 1041.5 c 128,-1,18
 223 952 223 952 223 751 c 2,19,-1
 223 0 l 1,20,-1
 170 0 l 1,21,-1
 170 753 l 1,22,-1
 170 753 l 1,23,24
 170 881 170 881 203 977.5 c 128,-1,25
 236 1074 236 1074 314 1127.5 c 128,-1,26
 392 1181 392 1181 529 1181 c 0,27,28
 646 1181 646 1181 731.5 1132 c 128,-1,29
 817 1083 817 1083 887 990 c 1,30,-1
 561 657 l 1,31,-1
 562 657 l 2,32,33
 781 657 781 657 885 569 c 128,-1,34
 989 481 989 481 989 338 c 0,35,36
 989 167 989 167 884.5 73.5 c 128,-1,37
 780 -20 780 -20 592 -20 c 0,38,39
 530 -20 530 -20 469.5 -5.5 c 128,-1,40
 409 9 409 9 358 38 c 1,0,-1
EndSplineSet
EndChar

StartChar: H
Encoding: 72 72 112
Width: 1438
VWidth: 1798
GlyphClass: 2
Flags: W
AnchorPoint: "Anchor-1" 714 -240 basechar 0
AnchorPoint: "Anchor-0" 712 1362 basechar 0
LayerCount: 2
Fore
SplineSet
254 1206 m 1,0,-1
 254 526 l 1,1,-1
 1184 526 l 1,2,-1
 1184 1206 l 1,3,-1
 1238 1206 l 1,4,-1
 1238 -250 l 1,5,-1
 1184 -250 l 1,6,-1
 1184 472 l 1,7,-1
 254 472 l 1,8,-1
 254 -250 l 1,9,-1
 200 -250 l 1,10,-1
 200 1206 l 1,11,-1
 254 1206 l 1,0,-1
EndSplineSet
Substitution2: "'c2sc' Capitals to Small Capitals lookup 0 subtable" H.smcp
Position2: "'cpsp' Capital Spacing lookup 0 subtable" dx=36 dy=0 dh=72 dv=0
EndChar

StartChar: H.smcp
Encoding: 65605 -1 113
Width: 1238
GlyphClass: 2
Flags: W
AnchorPoint: "Anchor-1" 615 10 basechar 0
AnchorPoint: "Anchor-0" 615 1320 basechar 0
LayerCount: 2
Fore
SplineSet
224 1165 m 1,0,-1
 224 604 l 1,1,-1
 1013 604 l 1,2,-1
 1013 1165 l 1,3,-1
 1067 1165 l 1,4,-1
 1067 0 l 1,5,-1
 1013 0 l 1,6,-1
 1013 550 l 1,7,-1
 224 550 l 1,8,-1
 224 0 l 1,9,-1
 170 0 l 1,10,-1
 170 1165 l 1,11,-1
 224 1165 l 1,0,-1
EndSplineSet
EndChar

StartChar: Hbar
Encoding: 294 294 114
Width: 1389
VWidth: 1798
GlyphClass: 2
Flags: W
AnchorPoint: "Anchor-1" 724 -240 basechar 0
AnchorPoint: "Anchor-0" 724 1362 basechar 0
LayerCount: 2
Fore
SplineSet
213 1206 m 1,0,-1
 213 831 l 1,1,-1
 1143 831 l 1,2,-1
 1143 1206 l 1,3,-1
 1197 1206 l 1,4,-1
 1197 831 l 1,5,-1
 1352 831 l 1,6,-1
 1352 778 l 1,7,-1
 1197 778 l 1,8,-1
 1197 -250 l 1,9,-1
 1143 -250 l 1,10,-1
 1143 472 l 1,11,-1
 213 472 l 1,12,-1
 213 -250 l 1,13,-1
 159 -250 l 1,14,-1
 159 778 l 1,15,-1
 20 778 l 1,16,-1
 20 831 l 1,17,-1
 159 831 l 1,18,-1
 159 1206 l 1,19,-1
 213 1206 l 1,0,-1
213 526 m 1,20,-1
 1143 526 l 1,21,-1
 1143 778 l 1,22,-1
 213 778 l 1,23,-1
 213 526 l 1,20,-1
EndSplineSet
Substitution2: "'c2sc' Capitals to Small Capitals lookup 0 subtable" Hbar.smcp
Position2: "'cpsp' Capital Spacing lookup 0 subtable" dx=36 dy=0 dh=72 dv=0
EndChar

StartChar: Hbar.smcp
Encoding: 65606 -1 115
Width: 1237
GlyphClass: 2
Flags: W
AnchorPoint: "Anchor-1" 615 10 basechar 0
AnchorPoint: "Anchor-0" 615 1320 basechar 0
LayerCount: 2
Fore
SplineSet
224 1165 m 1,0,-1
 224 925 l 1,1,-1
 1013 925 l 1,2,-1
 1013 1165 l 1,3,-1
 1067 1165 l 1,4,-1
 1067 925 l 1,5,-1
 1159 925 l 1,6,-1
 1159 871 l 1,7,-1
 1067 871 l 1,8,-1
 1067 0 l 1,9,-1
 1013 0 l 1,10,-1
 1013 550 l 1,11,-1
 224 550 l 1,12,-1
 224 0 l 1,13,-1
 170 0 l 1,14,-1
 170 871 l 1,15,-1
 78 871 l 1,16,-1
 78 925 l 1,17,-1
 170 925 l 1,18,-1
 170 1165 l 1,19,-1
 224 1165 l 1,0,-1
224 604 m 1,20,-1
 1013 604 l 1,21,-1
 1013 871 l 1,22,-1
 224 871 l 1,23,-1
 224 604 l 1,20,-1
EndSplineSet
EndChar

StartChar: I
Encoding: 73 73 118
Width: 534
VWidth: 1798
GlyphClass: 2
Flags: W
AnchorPoint: "Anchor-1" 279 -241 basechar 0
AnchorPoint: "Anchor-0" 279 1362 basechar 0
LayerCount: 2
Fore
SplineSet
294 1206 m 1,0,-1
 294 -250 l 1,1,-1
 240 -250 l 1,2,-1
 240 1206 l 1,3,-1
 294 1206 l 1,0,-1
EndSplineSet
Substitution2: "'c2sc' Capitals to Small Capitals lookup 0 subtable" I.smcp
Position2: "'cpsp' Capital Spacing lookup 0 subtable" dx=36 dy=0 dh=72 dv=0
EndChar

StartChar: I.smcp
Encoding: 65608 -1 119
Width: 460
GlyphClass: 2
Flags: W
AnchorPoint: "Anchor-1" 244 4 basechar 0
AnchorPoint: "Anchor-0" 244 1320 basechar 0
LayerCount: 2
Fore
SplineSet
257 1165 m 1,0,-1
 257 0 l 1,1,-1
 203 0 l 1,2,-1
 203 1165 l 1,3,-1
 257 1165 l 1,0,-1
EndSplineSet
EndChar

StartChar: J
Encoding: 74 74 140
Width: 1125
VWidth: 1798
GlyphClass: 2
Flags: W
AnchorPoint: "Anchor-1" 512 -260 basechar 0
AnchorPoint: "Anchor-0" 852 1349 basechar 0
LayerCount: 2
Fore
SplineSet
876 192 m 2,0,-1
 876 1206 l 1,1,-1
 930 1206 l 1,2,-1
 930 192 l 2,3,4
 930 43 930 43 874.5 -60.5 c 128,-1,5
 819 -164 819 -164 724 -217 c 128,-1,6
 629 -270 629 -270 510 -270 c 0,7,8
 317 -270 317 -270 203.5 -166.5 c 128,-1,9
 90 -63 90 -63 90 151 c 1,10,-1
 144 151 l 1,11,12
 144 -26 144 -26 236 -121 c 128,-1,13
 328 -216 328 -216 510 -216 c 0,14,15
 610 -216 610 -216 693 -170 c 128,-1,16
 776 -124 776 -124 826 -33 c 128,-1,17
 876 58 876 58 876 192 c 2,0,-1
EndSplineSet
Substitution2: "'c2sc' Capitals to Small Capitals lookup 0 subtable" J.smcp
Position2: "'cpsp' Capital Spacing lookup 0 subtable" dx=36 dy=0 dh=72 dv=0
EndChar

StartChar: J.smcp
Encoding: 65619 -1 141
Width: 967
GlyphClass: 2
Flags: W
AnchorPoint: "Anchor-1" 457 -10 basechar 0
AnchorPoint: "Anchor-0" 734 1320 basechar 0
LayerCount: 2
Fore
SplineSet
747 335 m 2,0,-1
 747 1165 l 1,1,-1
 802 1165 l 1,2,-1
 802 335 l 2,3,4
 802 172 802 172 702 78 c 128,-1,5
 602 -16 602 -16 448 -16 c 0,6,7
 282 -16 282 -16 178.5 67 c 128,-1,8
 75 150 75 150 75 321 c 1,9,-1
 129 321 l 1,10,11
 129 184 129 184 211.5 110.5 c 128,-1,12
 294 37 294 37 448 37 c 0,13,14
 575 37 575 37 661 116.5 c 128,-1,15
 747 196 747 196 747 335 c 2,0,-1
EndSplineSet
EndChar

StartChar: K
Encoding: 75 75 144
Width: 1300
VWidth: 1798
GlyphClass: 2
Flags: W
AnchorPoint: "Anchor-1" 660 -160 basechar 0
AnchorPoint: "Anchor-0" 605 1345 basechar 0
LayerCount: 2
Fore
SplineSet
1156 -250 m 1,0,-1
 487 516 l 1,1,-1
 254 301 l 1,2,-1
 254 -250 l 1,3,-1
 200 -250 l 1,4,-1
 200 1206 l 1,5,-1
 254 1206 l 1,6,-1
 254 365 l 1,7,-1
 492 597 l 1,8,-1
 1098 1206 l 1,9,-1
 1176 1206 l 1,10,-1
 528 554 l 1,11,-1
 1226 -250 l 1,12,-1
 1156 -250 l 1,0,-1
EndSplineSet
Substitution2: "'salt' Stylistic Alternatives lookup 13 subtable" K.alt
Substitution2: "'c2sc' Capitals to Small Capitals lookup 0 subtable" K.smcp
Position2: "'cpsp' Capital Spacing lookup 0 subtable" dx=36 dy=0 dh=72 dv=0
EndChar

StartChar: K.alt
Encoding: 65621 -1 145
Width: 1300
GlyphClass: 2
Flags: W
LayerCount: 2
Fore
SplineSet
1156 0 m 1,0,-1
 477 711 l 1,1,-1
 254 711 l 1,2,-1
 254 0 l 1,3,-1
 200 0 l 1,4,-1
 200 1456 l 1,5,-1
 254 1456 l 1,6,-1
 254 764 l 1,7,-1
 492 764 l 1,8,-1
 1110 1456 l 1,9,-1
 1181 1456 l 1,10,-1
 537 730 l 1,11,-1
 1227 0 l 1,12,-1
 1156 0 l 1,0,-1
EndSplineSet
EndChar

StartChar: K.smcp
Encoding: 65622 -1 146
Width: 1116
GlyphClass: 2
Flags: W
AnchorPoint: "Anchor-1" 532 6 basechar 0
AnchorPoint: "Anchor-0" 518 1320 basechar 0
LayerCount: 2
Fore
SplineSet
988 0 m 1,0,-1
 419 607 l 1,1,-1
 224 434 l 1,2,-1
 224 0 l 1,3,-1
 170 0 l 1,4,-1
 170 1165 l 1,5,-1
 224 1165 l 1,6,-1
 224 500 l 1,7,-1
 424 685 l 1,8,-1
 934 1165 l 1,9,-1
 1010 1165 l 1,10,-1
 462 646 l 1,11,-1
 1060 0 l 1,12,-1
 988 0 l 1,0,-1
EndSplineSet
EndChar

StartChar: L
Encoding: 76 76 149
Width: 1057
VWidth: 1798
GlyphClass: 2
Flags: W
AnchorPoint: "Anchor-1" 620 -240 basechar 0
AnchorPoint: "Anchor-0" 264 1346 basechar 0
LayerCount: 2
Fore
SplineSet
1002 -196 m 1,0,-1
 1002 -250 l 1,1,-1
 200 -250 l 1,2,-1
 200 1206 l 1,3,-1
 255 1206 l 1,4,-1
 255 -196 l 1,5,-1
 1002 -196 l 1,0,-1
EndSplineSet
Substitution2: "'c2sc' Capitals to Small Capitals lookup 0 subtable" L.smcp
Position2: "'cpsp' Capital Spacing lookup 0 subtable" dx=36 dy=0 dh=72 dv=0
EndChar

StartChar: L.smcp
Encoding: 65624 -1 150
Width: 912
GlyphClass: 2
Flags: W
AnchorPoint: "Anchor-1" 527 8 basechar 0
AnchorPoint: "Anchor-0" 233 1320 basechar 0
LayerCount: 2
Fore
SplineSet
864 54 m 1,0,-1
 864 0 l 1,1,-1
 170 0 l 1,2,-1
 170 1165 l 1,3,-1
 224 1165 l 1,4,-1
 224 54 l 1,5,-1
 864 54 l 1,0,-1
EndSplineSet
EndChar

StartChar: Lslash
Encoding: 321 321 161
Width: 1061
VWidth: 1798
GlyphClass: 2
Flags: W
AnchorPoint: "Anchor-1" 618 -240 basechar 0
AnchorPoint: "Anchor-0" 262 1346 basechar 0
LayerCount: 2
Fore
SplineSet
994 -196 m 1,0,-1
 994 -250 l 1,1,-1
 192 -250 l 1,2,-1
 192 466 l 1,3,-1
 8 408 l 1,4,-1
 8 465 l 1,5,-1
 192 523 l 1,6,-1
 192 1206 l 1,7,-1
 247 1206 l 1,8,-1
 247 541 l 1,9,-1
 598 652 l 1,10,-1
 598 595 l 1,11,-1
 247 484 l 1,12,-1
 247 -196 l 1,13,-1
 994 -196 l 1,0,-1
EndSplineSet
Substitution2: "'c2sc' Capitals to Small Capitals lookup 0 subtable" Lslash.smcp
Position2: "'cpsp' Capital Spacing lookup 0 subtable" dx=36 dy=0 dh=72 dv=0
EndChar

StartChar: Lslash.smcp
Encoding: 65631 -1 162
Width: 912
GlyphClass: 2
Flags: W
AnchorPoint: "Anchor-1" 527 8 basechar 0
AnchorPoint: "Anchor-0" 233 1320 basechar 0
LayerCount: 2
Fore
SplineSet
864 54 m 1,0,-1
 864 0 l 1,1,-1
 170 0 l 1,2,-1
 170 509 l 1,3,-1
 8 458 l 1,4,-1
 8 515 l 1,5,-1
 170 566 l 1,6,-1
 170 1165 l 1,7,-1
 224 1165 l 1,8,-1
 224 583 l 1,9,-1
 598 702 l 1,10,-1
 598 645 l 1,11,-1
 224 526 l 1,12,-1
 224 54 l 1,13,-1
 864 54 l 1,0,-1
EndSplineSet
EndChar

StartChar: M
Encoding: 77 77 163
Width: 1756
VWidth: 1798
GlyphClass: 2
Flags: W
AnchorPoint: "Anchor-1" 893 -240 basechar 0
AnchorPoint: "Anchor-0" 890 1351 basechar 0
LayerCount: 2
Fore
SplineSet
200 1206 m 1,0,-1
 277 1206 l 1,1,-1
 876 -171 l 1,2,-1
 1477 1206 l 1,3,-1
 1556 1206 l 1,4,-1
 1556 -250 l 1,5,-1
 1502 -250 l 1,6,-1
 1502 1126 l 1,7,-1
 898 -250 l 1,8,-1
 855 -250 l 1,9,-1
 254 1119 l 1,10,-1
 254 -250 l 1,11,-1
 200 -250 l 1,12,-1
 200 1206 l 1,0,-1
EndSplineSet
Substitution2: "'unic' Unicase lookup 2 subtable" M.unic
Substitution2: "'c2sc' Capitals to Small Capitals lookup 0 subtable" M.smcp
Position2: "'cpsp' Capital Spacing lookup 0 subtable" dx=36 dy=0 dh=72 dv=0
EndChar

StartChar: M.smcp
Encoding: 65632 -1 164
Width: 1512
GlyphClass: 2
Flags: W
AnchorPoint: "Anchor-1" 765 10 basechar 0
AnchorPoint: "Anchor-0" 765 1320 basechar 0
LayerCount: 2
Fore
SplineSet
170 1165 m 1,0,-1
 245 1165 l 1,1,-1
 754 82 l 1,2,-1
 1264 1165 l 1,3,-1
 1341 1165 l 1,4,-1
 1341 0 l 1,5,-1
 1287 0 l 1,6,-1
 1287 549 l 1,7,-1
 1288 1090 l 1,8,-1
 776 0 l 1,9,-1
 733 0 l 1,10,-1
 223 1086 l 1,11,-1
 224 549 l 1,12,-1
 224 0 l 1,13,-1
 170 0 l 1,14,-1
 170 1165 l 1,0,-1
EndSplineSet
EndChar

StartChar: M.unic
Encoding: 65633 -1 165
Width: 2222
GlyphClass: 2
Flags: W
AnchorPoint: "Anchor-1" 1118 10 basechar 0
AnchorPoint: "Anchor-0" 1114 1632 basechar 0
LayerCount: 2
Fore
SplineSet
743 1423 m 0,0,1
 627 1423 627 1423 540.5 1378.5 c 128,-1,2
 454 1334 454 1334 395 1265.5 c 128,-1,3
 336 1197 336 1197 301.5 1122 c 128,-1,4
 267 1047 267 1047 254 986 c 1,5,-1
 254 0 l 1,6,-1
 200 0 l 1,7,-1
 200 1456 l 1,8,-1
 254 1456 l 1,9,-1
 254 1125 l 1,10,11
 291 1222 291 1222 361 1301.5 c 128,-1,12
 431 1381 431 1381 528.5 1428.5 c 128,-1,13
 626 1476 626 1476 746 1476 c 0,14,15
 924 1476 924 1476 1029 1390 c 128,-1,16
 1134 1304 1134 1304 1160 1102 c 1,17,18
 1194 1205 1194 1205 1264.5 1289.5 c 128,-1,19
 1335 1374 1335 1374 1435.5 1425 c 128,-1,20
 1536 1476 1536 1476 1660 1476 c 0,21,22
 1866 1476 1866 1476 1974 1359 c 128,-1,23
 2082 1242 2082 1242 2082 964 c 2,24,-1
 2082 0 l 1,25,-1
 2028 0 l 1,26,-1
 2028 964 l 2,27,28
 2028 1142 2028 1142 1982 1242 c 128,-1,29
 1936 1342 1936 1342 1852.5 1382.5 c 128,-1,30
 1769 1423 1769 1423 1657 1423 c 0,31,32
 1541 1423 1541 1423 1454.5 1378.5 c 128,-1,33
 1368 1334 1368 1334 1308.5 1265 c 128,-1,34
 1249 1196 1249 1196 1214.5 1121 c 128,-1,35
 1180 1046 1180 1046 1168 985 c 0,36,37
 1168 975 1168 975 1168 964 c 2,38,-1
 1168 0 l 1,39,-1
 1114 0 l 1,40,-1
 1114 964 l 2,41,42
 1114 1142 1114 1142 1068 1242 c 128,-1,43
 1022 1342 1022 1342 938.5 1382.5 c 128,-1,44
 855 1423 855 1423 743 1423 c 0,0,1
EndSplineSet
EndChar

StartChar: N
Encoding: 78 78 166
Width: 1449
VWidth: 1798
GlyphClass: 2
Flags: W
AnchorPoint: "Anchor-1" 720 -240 basechar 0
AnchorPoint: "Anchor-0" 726 1351 basechar 0
LayerCount: 2
Fore
SplineSet
1249 1206 m 1,0,-1
 1249 -250 l 1,1,-1
 1195 -250 l 1,2,-1
 255 1114 l 1,3,-1
 255 -250 l 1,4,-1
 200 -250 l 1,5,-1
 200 1206 l 1,6,-1
 255 1206 l 1,7,-1
 1195 -155 l 1,8,-1
 1195 1206 l 1,9,-1
 1249 1206 l 1,0,-1
EndSplineSet
Substitution2: "'unic' Unicase lookup 2 subtable" N.unic
Substitution2: "'c2sc' Capitals to Small Capitals lookup 0 subtable" N.smcp
Position2: "'cpsp' Capital Spacing lookup 0 subtable" dx=36 dy=0 dh=72 dv=0
EndChar

StartChar: N.smcp
Encoding: 65634 -1 167
Width: 1246
GlyphClass: 2
Flags: W
AnchorPoint: "Anchor-1" 619 4 basechar 0
AnchorPoint: "Anchor-0" 624 1320 basechar 0
LayerCount: 2
Fore
SplineSet
1076 1165 m 1,0,-1
 1076 0 l 1,1,-1
 1022 0 l 1,2,-1
 224 1075 l 1,3,-1
 224 0 l 1,4,-1
 170 0 l 1,5,-1
 170 1165 l 1,6,-1
 224 1165 l 1,7,-1
 1022 93 l 1,8,-1
 1022 1165 l 1,9,-1
 1076 1165 l 1,0,-1
EndSplineSet
EndChar

StartChar: N.unic
Encoding: 65635 -1 168
Width: 1438
GlyphClass: 2
Flags: W
AnchorPoint: "Anchor-1" 720 10 basechar 0
AnchorPoint: "Anchor-0" 726 1632 basechar 0
LayerCount: 2
Fore
SplineSet
783 1423 m 0,0,1
 657 1423 657 1423 563.5 1378.5 c 128,-1,2
 470 1334 470 1334 406 1264.5 c 128,-1,3
 342 1195 342 1195 304.5 1119.5 c 128,-1,4
 267 1044 267 1044 254 983 c 1,5,-1
 254 0 l 1,6,-1
 200 0 l 1,7,-1
 200 1456 l 1,8,-1
 254 1456 l 1,9,-1
 254 1118 l 1,10,11
 293 1217 293 1217 368.5 1298 c 128,-1,12
 444 1379 444 1379 550 1427.5 c 128,-1,13
 656 1476 656 1476 786 1476 c 0,14,15
 1007 1476 1007 1476 1122.5 1359 c 128,-1,16
 1238 1242 1238 1242 1238 964 c 2,17,-1
 1238 0 l 1,18,-1
 1184 0 l 1,19,-1
 1184 964 l 2,20,21
 1184 1142 1184 1142 1134 1242 c 128,-1,22
 1084 1342 1084 1342 994 1382.5 c 128,-1,23
 904 1423 904 1423 783 1423 c 0,0,1
EndSplineSet
EndChar

StartChar: NameMe.65564
Encoding: 65638 -1 172
Width: 506
GlyphClass: 1
Flags: W
LayerCount: 2
Fore
SplineSet
182 1193 m 1,0,-1
 233 1193 l 1,1,-1
 233 361 l 2,2,3
 233 198 233 198 293 130 c 128,-1,4
 353 62 353 62 464 62 c 2,5,-1
 526 62 l 1,6,-1
 526 0 l 1,7,-1
 464 0 l 2,8,9
 307 0 307 0 244.5 91 c 128,-1,10
 182 182 182 182 182 361 c 2,11,-1
 182 1193 l 1,0,-1
EndSplineSet
EndChar

StartChar: NameMe.65565
Encoding: 65639 -1 173
Width: 720
GlyphClass: 1
Flags: W
LayerCount: 2
Fore
SplineSet
525 194 m 0,0,1
 536 194 536 194 555 192 c 128,-1,2
 574 190 574 190 593 185 c 1,3,-1
 585 139 l 1,4,5
 569 142 569 142 553.5 144 c 128,-1,6
 538 146 538 146 525 146 c 0,7,8
 446 146 446 146 397 97 c 128,-1,9
 348 48 348 48 348 -11 c 0,10,11
 348 -79 348 -79 416 -79 c 2,12,-1
 490 -79 l 2,13,14
 533 -79 533 -79 568.5 -99.5 c 128,-1,15
 604 -120 604 -120 604 -167 c 0,16,17
 604 -240 604 -240 559.5 -291 c 128,-1,18
 515 -342 515 -342 440.5 -369 c 128,-1,19
 366 -396 366 -396 277 -396 c 0,20,21
 192 -396 192 -396 128 -373 c 1,22,-1
 149 -329 l 1,23,24
 206 -351 206 -351 279 -351 c 0,25,26
 342 -351 342 -351 407 -331.5 c 128,-1,27
 472 -312 472 -312 516.5 -273 c 128,-1,28
 561 -234 561 -234 561 -178 c 0,29,30
 561 -148 561 -148 537 -136.5 c 128,-1,31
 513 -125 513 -125 485 -125 c 2,32,-1
 410 -125 l 2,33,34
 364 -125 364 -125 334 -99.5 c 128,-1,35
 304 -74 304 -74 304 -19 c 0,36,37
 304 76 304 76 370.5 135 c 128,-1,38
 437 194 437 194 525 194 c 0,0,1
EndSplineSet
EndChar

StartChar: NameMe.65583
Encoding: 65641 -1 175
Width: 471
GlyphClass: 1
Flags: W
LayerCount: 2
Fore
SplineSet
-19 1339 m 1,0,-1
 -12 1371 l 1,1,2
 20 1347 20 1347 57 1333 c 1,3,4
 137 1468 137 1468 201 1531.5 c 128,-1,5
 265 1595 265 1595 337 1595 c 0,6,7
 406 1595 406 1595 450 1553 c 128,-1,8
 494 1511 494 1511 494 1445 c 0,9,10
 494 1377 494 1377 457 1344 c 128,-1,11
 420 1311 420 1311 355.5 1300.5 c 128,-1,12
 291 1290 291 1290 207 1290 c 2,13,-1
 182 1290 l 2,14,15
 115 1290 115 1290 61 1299 c 128,-1,16
 7 1308 7 1308 -19 1339 c 1,0,-1
205 1326 m 2,17,18
 271 1326 271 1326 329 1332.5 c 128,-1,19
 387 1339 387 1339 423.5 1363.5 c 128,-1,20
 460 1388 460 1388 460 1441 c 0,21,22
 460 1491 460 1491 427 1524 c 128,-1,23
 394 1557 394 1557 342 1557 c 0,24,25
 269 1557 269 1557 210 1489.5 c 128,-1,26
 151 1422 151 1422 89 1326 c 1,27,-1
 205 1326 l 2,17,18
EndSplineSet
EndChar

StartChar: NameMe.65703
Encoding: 65642 -1 176
Width: 415
GlyphClass: 1
Flags: W
LayerCount: 2
Fore
SplineSet
233 1193 m 1,0,-1
 233 0 l 1,1,-1
 182 0 l 1,2,-1
 182 1193 l 1,3,-1
 233 1193 l 1,0,-1
EndSplineSet
EndChar

StartChar: O
Encoding: 79 79 186
Width: 1364
VWidth: 1798
GlyphClass: 2
Flags: W
AnchorPoint: "Anchor-1" 707 -250 basechar 0
AnchorPoint: "Anchor-0" 707 1353 basechar 0
LayerCount: 2
Fore
SplineSet
1231 587 m 2,0,-1
 1231 369 l 2,1,2
 1231 179 1231 179 1164 35 c 128,-1,3
 1097 -109 1097 -109 974 -189.5 c 128,-1,4
 851 -270 851 -270 683 -270 c 0,5,6
 516 -270 516 -270 392.5 -189.5 c 128,-1,7
 269 -109 269 -109 201 35 c 128,-1,8
 133 179 133 179 133 369 c 2,9,-1
 133 587 l 2,10,11
 133 777 133 777 200.5 921 c 128,-1,12
 268 1065 268 1065 391 1145.5 c 128,-1,13
 514 1226 514 1226 681 1226 c 0,14,15
 849 1226 849 1226 972.5 1145.5 c 128,-1,16
 1096 1065 1096 1065 1163.5 921 c 128,-1,17
 1231 777 1231 777 1231 587 c 2,0,-1
1177 369 m 2,18,-1
 1177 589 l 2,19,20
 1177 760 1177 760 1118.5 891.5 c 128,-1,21
 1060 1023 1060 1023 949 1097.5 c 128,-1,22
 838 1172 838 1172 681 1172 c 0,23,24
 525 1172 525 1172 415 1097.5 c 128,-1,25
 305 1023 305 1023 246.5 891.5 c 128,-1,26
 188 760 188 760 188 589 c 2,27,-1
 188 369 l 2,28,29
 188 198 188 198 247 66 c 128,-1,30
 306 -66 306 -66 416.5 -141 c 128,-1,31
 527 -216 527 -216 683 -216 c 0,32,33
 840 -216 840 -216 950.5 -141 c 128,-1,34
 1061 -66 1061 -66 1119 66 c 128,-1,35
 1177 198 1177 198 1177 369 c 2,18,-1
EndSplineSet
Substitution2: "'c2sc' Capitals to Small Capitals lookup 0 subtable" O.smcp
Position2: "'cpsp' Capital Spacing lookup 0 subtable" dx=36 dy=0 dh=72 dv=0
EndChar

StartChar: O.smcp
Encoding: 65649 -1 187
Width: 1176
GlyphClass: 2
Flags: W
AnchorPoint: "Anchor-1" 631 0 basechar 0
AnchorPoint: "Anchor-0" 606 1320 basechar 0
LayerCount: 2
Fore
SplineSet
1061 662 m 2,0,-1
 1061 502 l 2,1,2
 1061 347 1061 347 1003 230 c 128,-1,3
 945 113 945 113 839 48.5 c 128,-1,4
 733 -16 733 -16 588 -16 c 0,5,6
 444 -16 444 -16 337.5 48.5 c 128,-1,7
 231 113 231 113 172.5 230 c 128,-1,8
 114 347 114 347 114 502 c 2,9,-1
 114 662 l 2,10,11
 114 818 114 818 172 934.5 c 128,-1,12
 230 1051 230 1051 336.5 1116 c 128,-1,13
 443 1181 443 1181 587 1181 c 256,14,15
 731 1181 731 1181 837.5 1116 c 128,-1,16
 944 1051 944 1051 1002.5 934.5 c 128,-1,17
 1061 818 1061 818 1061 662 c 2,0,-1
1008 502 m 2,18,-1
 1008 664 l 2,19,20
 1008 801 1008 801 958 905 c 128,-1,21
 908 1009 908 1009 814 1067.5 c 128,-1,22
 720 1126 720 1126 587 1126 c 0,23,24
 455 1126 455 1126 361 1067.5 c 128,-1,25
 267 1009 267 1009 217.5 905 c 128,-1,26
 168 801 168 801 168 664 c 2,27,-1
 168 502 l 2,28,29
 168 364 168 364 218 259.5 c 128,-1,30
 268 155 268 155 362 96.5 c 128,-1,31
 456 38 456 38 588 38 c 0,32,33
 788 38 788 38 898 166.5 c 128,-1,34
 1008 295 1008 295 1008 502 c 2,18,-1
EndSplineSet
EndChar

StartChar: OE
Encoding: 338 338 188
Width: 1873
VWidth: 1798
GlyphClass: 2
Flags: W
AnchorPoint: "Anchor-1" 953 -250 basechar 0
AnchorPoint: "Anchor-0" 953 1353 basechar 0
LayerCount: 2
Fore
SplineSet
629 1226 m 0,0,1
 717 1226 717 1226 801 1220 c 128,-1,2
 885 1214 885 1214 961 1206 c 1,3,-1
 1801 1206 l 1,4,-1
 1801 1152 l 1,5,-1
 969 1152 l 1,6,-1
 969 526 l 1,7,-1
 1699 526 l 1,8,-1
 1699 472 l 1,9,-1
 969 472 l 1,10,-1
 969 -196 l 1,11,-1
 1801 -196 l 1,12,-1
 1801 -250 l 1,13,-1
 961 -250 l 1,14,15
 885 -257 885 -257 802 -264 c 128,-1,16
 719 -271 719 -271 631 -271 c 0,17,18
 477 -271 477 -271 360.5 -195.5 c 128,-1,19
 244 -120 244 -120 178 15 c 128,-1,20
 112 150 112 150 112 326 c 2,21,-1
 112 630 l 2,22,23
 112 807 112 807 177.5 941 c 128,-1,24
 243 1075 243 1075 359 1150.5 c 128,-1,25
 475 1226 475 1226 629 1226 c 0,0,1
166 326 m 2,26,27
 166 168 166 168 223.5 45.5 c 128,-1,28
 281 -77 281 -77 385.5 -147 c 128,-1,29
 490 -217 490 -217 631 -217 c 0,30,31
 702 -217 702 -217 776.5 -214 c 128,-1,32
 851 -211 851 -211 915 -203 c 1,33,-1
 915 1159 l 1,34,35
 849 1167 849 1167 777 1169.5 c 128,-1,36
 705 1172 705 1172 629 1172 c 0,37,38
 488 1172 488 1172 384 1104.5 c 128,-1,39
 280 1037 280 1037 223 915.5 c 128,-1,40
 166 794 166 794 166 632 c 2,41,-1
 166 326 l 2,26,27
EndSplineSet
Substitution2: "'c2sc' Capitals to Small Capitals lookup 0 subtable" OE.smcp
Position2: "'cpsp' Capital Spacing lookup 0 subtable" dx=36 dy=0 dh=72 dv=0
EndChar

StartChar: OE.smcp
Encoding: 65650 -1 189
Width: 1722
GlyphClass: 2
Flags: W
LayerCount: 2
Fore
SplineSet
959 1165 m 2,0,-1
 1653 1165 l 1,1,-1
 1653 1110 l 1,2,-1
 944 1110 l 1,3,-1
 944 633 l 1,4,-1
 1566 633 l 1,5,-1
 1566 579 l 1,6,-1
 944 579 l 1,7,-1
 944 54 l 1,8,-1
 1654 54 l 1,9,-1
 1654 0 l 1,10,-1
 962 0 l 2,11,12
 862 0 862 0 760.5 -8 c 128,-1,13
 659 -16 659 -16 588 -16 c 0,14,15
 444 -16 444 -16 337.5 48.5 c 128,-1,16
 231 113 231 113 172.5 230 c 128,-1,17
 114 347 114 347 114 502 c 2,18,-1
 114 662 l 2,19,20
 114 818 114 818 172 934.5 c 128,-1,21
 230 1051 230 1051 336.5 1116 c 128,-1,22
 443 1181 443 1181 587 1181 c 0,23,24
 637 1181 637 1181 703.5 1177 c 128,-1,25
 770 1173 770 1173 838 1169 c 128,-1,26
 906 1165 906 1165 959 1165 c 2,0,-1
168 502 m 2,27,28
 168 364 168 364 218 259.5 c 128,-1,29
 268 155 268 155 362 96.5 c 128,-1,30
 456 38 456 38 588 38 c 0,31,32
 646 38 646 38 730 44.5 c 128,-1,33
 814 51 814 51 890 53 c 1,34,-1
 890 1111 l 1,35,36
 817 1114 817 1114 730.5 1120 c 128,-1,37
 644 1126 644 1126 587 1126 c 0,38,39
 455 1126 455 1126 361 1067.5 c 128,-1,40
 267 1009 267 1009 217.5 905 c 128,-1,41
 168 801 168 801 168 664 c 2,42,-1
 168 502 l 2,27,28
EndSplineSet
EndChar

StartChar: Ohorn
Encoding: 416 416 200
Width: 1451
VWidth: 1798
GlyphClass: 2
Flags: W
AnchorPoint: "Anchor-1" 692 -250 basechar 0
AnchorPoint: "Anchor-0" 703 1345 basechar 0
LayerCount: 2
Fore
SplineSet
1262 587 m 2,0,-1
 1262 369 l 2,1,2
 1262 179 1262 179 1195 35 c 128,-1,3
 1128 -109 1128 -109 1005 -189.5 c 128,-1,4
 882 -270 882 -270 714 -270 c 0,5,6
 547 -270 547 -270 423.5 -189.5 c 128,-1,7
 300 -109 300 -109 232 35 c 128,-1,8
 164 179 164 179 164 369 c 2,9,-1
 164 587 l 2,10,11
 164 777 164 777 231.5 921 c 128,-1,12
 299 1065 299 1065 422 1145.5 c 128,-1,13
 545 1226 545 1226 712 1226 c 0,14,15
 859 1226 859 1226 972.5 1163 c 128,-1,16
 1086 1100 1086 1100 1157 988 c 1,17,18
 1308 991 1308 991 1356.5 1069 c 128,-1,19
 1405 1147 1405 1147 1405 1291 c 1,20,-1
 1459 1291 l 1,21,22
 1459 1128 1459 1128 1398.5 1037 c 128,-1,23
 1338 946 1338 946 1187 935 c 1,24,25
 1262 785 1262 785 1262 587 c 2,0,-1
1208 369 m 2,26,-1
 1208 589 l 2,27,28
 1208 760 1208 760 1149.5 891.5 c 128,-1,29
 1091 1023 1091 1023 980 1097.5 c 128,-1,30
 869 1172 869 1172 712 1172 c 0,31,32
 556 1172 556 1172 446 1097.5 c 128,-1,33
 336 1023 336 1023 277.5 891.5 c 128,-1,34
 219 760 219 760 219 589 c 2,35,-1
 219 369 l 2,36,37
 219 198 219 198 278 66 c 128,-1,38
 337 -66 337 -66 447.5 -141 c 128,-1,39
 558 -216 558 -216 714 -216 c 0,40,41
 871 -216 871 -216 981.5 -141 c 128,-1,42
 1092 -66 1092 -66 1150 66 c 128,-1,43
 1208 198 1208 198 1208 369 c 2,26,-1
EndSplineSet
EndChar

StartChar: Omega
Encoding: 8486 8486 205
Width: 1321
GlyphClass: 2
Flags: W
AnchorPoint: "Anchor-1" 679 10 basechar 0
LayerCount: 2
Fore
SplineSet
122 0 m 1,0,-1
 122 54 l 1,1,-1
 488 54 l 1,2,3
 402 104 402 104 321.5 190.5 c 128,-1,4
 241 277 241 277 189.5 410 c 128,-1,5
 138 543 138 543 138 732 c 2,6,-1
 138 849 l 2,7,8
 138 1038 138 1038 203 1179 c 128,-1,9
 268 1320 268 1320 384.5 1398 c 128,-1,10
 501 1476 501 1476 655 1476 c 256,11,12
 809 1476 809 1476 925.5 1398 c 128,-1,13
 1042 1320 1042 1320 1108 1179 c 128,-1,14
 1174 1038 1174 1038 1174 849 c 2,15,-1
 1174 732 l 2,16,17
 1174 543 1174 543 1123 410.5 c 128,-1,18
 1072 278 1072 278 992 191.5 c 128,-1,19
 912 105 912 105 827 54 c 1,20,-1
 1195 54 l 1,21,-1
 1195 0 l 1,22,-1
 761 0 l 1,23,-1
 761 78 l 1,24,25
 823 109 823 109 886 159.5 c 128,-1,26
 949 210 949 210 1002 286.5 c 128,-1,27
 1055 363 1055 363 1087.5 472.5 c 128,-1,28
 1120 582 1120 582 1120 732 c 2,29,-1
 1120 851 l 2,30,31
 1120 1011 1120 1011 1063 1140.5 c 128,-1,32
 1006 1270 1006 1270 901.5 1346 c 128,-1,33
 797 1422 797 1422 655 1422 c 256,34,35
 513 1422 513 1422 409 1346 c 128,-1,36
 305 1270 305 1270 248.5 1140.5 c 128,-1,37
 192 1011 192 1011 192 851 c 2,38,-1
 192 732 l 2,39,40
 192 581 192 581 225.5 471.5 c 128,-1,41
 259 362 259 362 313 285.5 c 128,-1,42
 367 209 367 209 431.5 159 c 128,-1,43
 496 109 496 109 557 78 c 1,44,-1
 557 0 l 1,45,-1
 122 0 l 1,0,-1
EndSplineSet
Substitution2: "'c2sc' Capitals to Small Capitals lookup 0 subtable" Omega.smcp
Position2: "'cpsp' Capital Spacing lookup 0 subtable" dx=36 dy=0 dh=72 dv=0
EndChar

StartChar: Omega.smcp
Encoding: 65658 -1 206
Width: 1245
GlyphClass: 2
Flags: W
AnchorPoint: "Anchor-1" 637 10 basechar 0
LayerCount: 2
Fore
SplineSet
136 0 m 1,0,-1
 136 54 l 1,1,-1
 450 54 l 1,2,3
 369 98 369 98 301.5 167.5 c 128,-1,4
 234 237 234 237 193 345.5 c 128,-1,5
 152 454 152 454 152 617 c 2,6,-1
 152 654 l 2,7,8
 152 798 152 798 207 917.5 c 128,-1,9
 262 1037 262 1037 366.5 1109 c 128,-1,10
 471 1181 471 1181 619 1181 c 256,11,12
 767 1181 767 1181 872 1109 c 128,-1,13
 977 1037 977 1037 1032.5 917 c 128,-1,14
 1088 797 1088 797 1088 654 c 2,15,-1
 1088 617 l 2,16,17
 1088 454 1088 454 1047.5 345.5 c 128,-1,18
 1007 237 1007 237 940 168 c 128,-1,19
 873 99 873 99 794 54 c 1,20,-1
 1109 54 l 1,21,-1
 1109 0 l 1,22,-1
 725 0 l 1,23,-1
 725 78 l 1,24,25
 808 120 808 120 878 180 c 128,-1,26
 948 240 948 240 991 343.5 c 128,-1,27
 1034 447 1034 447 1034 617 c 2,28,-1
 1034 656 l 2,29,30
 1034 774 1034 774 989.5 881.5 c 128,-1,31
 945 989 945 989 853 1058 c 128,-1,32
 761 1127 761 1127 619 1127 c 256,33,34
 477 1127 477 1127 385.5 1058 c 128,-1,35
 294 989 294 989 250 881.5 c 128,-1,36
 206 774 206 774 206 656 c 2,37,-1
 206 617 l 2,38,39
 206 447 206 447 250.5 343.5 c 128,-1,40
 295 240 295 240 367 179.5 c 128,-1,41
 439 119 439 119 521 78 c 1,42,-1
 521 0 l 1,43,-1
 136 0 l 1,0,-1
EndSplineSet
EndChar

StartChar: Oslash
Encoding: 216 216 207
Width: 1364
VWidth: 1798
GlyphClass: 2
Flags: W
AnchorPoint: "Anchor-0" 715 1424 basechar 0
LayerCount: 2
Fore
SplineSet
1231 587 m 2,0,-1
 1231 369 l 2,1,2
 1231 179 1231 179 1164 35 c 128,-1,3
 1097 -109 1097 -109 973.5 -189.5 c 128,-1,4
 850 -270 850 -270 683 -270 c 0,5,6
 584 -270 584 -270 500 -241 c 128,-1,7
 416 -212 416 -212 349 -158 c 1,8,-1
 243 -325 l 1,9,-1
 177 -325 l 1,10,-1
 307 -120 l 1,11,12
 224 -35 224 -35 178.5 90 c 128,-1,13
 133 215 133 215 133 369 c 2,14,-1
 133 587 l 2,15,16
 133 777 133 777 200.5 921 c 128,-1,17
 268 1065 268 1065 391 1145.5 c 128,-1,18
 514 1226 514 1226 681 1226 c 0,19,20
 799 1226 799 1226 895.5 1185 c 128,-1,21
 992 1144 992 1144 1063 1070 c 1,22,-1
 1174 1245 l 1,23,-1
 1240 1245 l 1,24,-1
 1101 1025 l 1,25,26
 1163 943 1163 943 1197 831.5 c 128,-1,27
 1231 720 1231 720 1231 587 c 2,0,-1
188 369 m 2,28,29
 188 87 188 87 337 -73 c 1,30,-1
 1034 1024 l 1,31,32
 970 1094 970 1094 881.5 1133 c 128,-1,33
 793 1172 793 1172 681 1172 c 0,34,35
 525 1172 525 1172 415 1097.5 c 128,-1,36
 305 1023 305 1023 246.5 891.5 c 128,-1,37
 188 760 188 760 188 589 c 2,38,-1
 188 369 l 2,28,29
1177 369 m 2,39,-1
 1177 589 l 2,40,41
 1177 823 1177 823 1070 977 c 1,42,-1
 378 -112 l 1,43,44
 438 -162 438 -162 514.5 -189 c 128,-1,45
 591 -216 591 -216 683 -216 c 0,46,47
 840 -216 840 -216 950.5 -141 c 128,-1,48
 1061 -66 1061 -66 1119 66 c 128,-1,49
 1177 198 1177 198 1177 369 c 2,39,-1
EndSplineSet
Substitution2: "'c2sc' Capitals to Small Capitals lookup 0 subtable" Oslash.smcp
Position2: "'cpsp' Capital Spacing lookup 0 subtable" dx=36 dy=0 dh=72 dv=0
EndChar

StartChar: Oslash.smcp
Encoding: 65659 -1 208
Width: 1176
GlyphClass: 2
Flags: W
AnchorPoint: "Anchor-1" 631 0 basechar 0
AnchorPoint: "Anchor-0" 606 1320 basechar 0
LayerCount: 2
Fore
SplineSet
1061 662 m 2,0,-1
 1061 502 l 2,1,2
 1061 347 1061 347 1003 230 c 128,-1,3
 945 113 945 113 839 48.5 c 128,-1,4
 733 -16 733 -16 588 -16 c 0,5,6
 418 -16 418 -16 298 76 c 1,7,-1
 198 -75 l 1,8,-1
 142 -75 l 1,9,-1
 263 106 l 1,10,11
 192 174 192 174 153 275 c 128,-1,12
 114 376 114 376 114 502 c 2,13,-1
 114 662 l 2,14,15
 114 818 114 818 172 934.5 c 128,-1,16
 230 1051 230 1051 336 1116 c 128,-1,17
 442 1181 442 1181 587 1181 c 0,18,19
 683 1181 683 1181 762.5 1151.5 c 128,-1,20
 842 1122 842 1122 903 1067 c 1,21,-1
 1001 1215 l 1,22,-1
 1057 1215 l 1,23,-1
 936 1033 l 1,24,25
 996 966 996 966 1028.5 871.5 c 128,-1,26
 1061 777 1061 777 1061 662 c 2,0,-1
168 502 m 2,27,28
 168 278 168 278 293 152 c 1,29,-1
 873 1023 l 1,30,31
 820 1072 820 1072 748 1099 c 128,-1,32
 676 1126 676 1126 587 1126 c 0,33,34
 455 1126 455 1126 361 1067.5 c 128,-1,35
 267 1009 267 1009 217.5 905 c 128,-1,36
 168 801 168 801 168 664 c 2,37,-1
 168 502 l 2,27,28
1008 502 m 2,38,-1
 1008 664 l 2,39,40
 1008 864 1008 864 906 988 c 1,41,-1
 328 120 l 1,42,43
 434 38 434 38 588 38 c 0,44,45
 788 38 788 38 898 166.5 c 128,-1,46
 1008 295 1008 295 1008 502 c 2,38,-1
EndSplineSet
EndChar

StartChar: P
Encoding: 80 80 213
Width: 1230
VWidth: 1798
GlyphClass: 2
Flags: W
AnchorPoint: "Anchor-1" 613 -240 basechar 0
AnchorPoint: "Anchor-0" 606 1362 basechar 0
LayerCount: 2
Fore
SplineSet
655 365 m 2,0,-1
 254 365 l 1,1,-1
 254 -250 l 1,2,-1
 200 -250 l 1,3,-1
 200 1206 l 1,4,-1
 655 1206 l 2,5,6
 888 1206 888 1206 1006.5 1089.5 c 128,-1,7
 1125 973 1125 973 1125 781 c 0,8,9
 1125 588 1125 588 1006.5 476.5 c 128,-1,10
 888 365 888 365 655 365 c 2,0,-1
655 1152 m 2,11,-1
 254 1152 l 1,12,-1
 254 419 l 1,13,-1
 655 419 l 2,14,15
 802 419 802 419 894 467.5 c 128,-1,16
 986 516 986 516 1028.5 598 c 128,-1,17
 1071 680 1071 680 1071 779 c 0,18,19
 1071 882 1071 882 1028.5 966.5 c 128,-1,20
 986 1051 986 1051 894 1101.5 c 128,-1,21
 802 1152 802 1152 655 1152 c 2,11,-1
EndSplineSet
Substitution2: "'c2sc' Capitals to Small Capitals lookup 0 subtable" P.smcp
Position2: "'cpsp' Capital Spacing lookup 0 subtable" dx=36 dy=0 dh=72 dv=0
EndChar

StartChar: P.smcp
Encoding: 65662 -1 214
Width: 1061
GlyphClass: 2
Flags: W
AnchorPoint: "Anchor-1" 574 0 basechar 0
AnchorPoint: "Anchor-0" 576 1320 basechar 0
LayerCount: 2
Fore
SplineSet
566 487 m 2,0,-1
 224 487 l 1,1,-1
 224 0 l 1,2,-1
 170 0 l 1,3,-1
 170 1165 l 1,4,-1
 566 1165 l 2,5,6
 766 1165 766 1165 869.5 1070.5 c 128,-1,7
 973 976 973 976 973 822 c 0,8,9
 973 666 973 666 870 576.5 c 128,-1,10
 767 487 767 487 566 487 c 2,0,-1
566 1110 m 2,11,-1
 224 1110 l 1,12,-1
 224 542 l 1,13,-1
 566 542 l 2,14,15
 753 542 753 542 835.5 623.5 c 128,-1,16
 918 705 918 705 918 821 c 0,17,18
 918 940 918 940 835.5 1025 c 128,-1,19
 753 1110 753 1110 566 1110 c 2,11,-1
EndSplineSet
EndChar

StartChar: Q
Encoding: 81 81 215
Width: 1364
VWidth: 1798
GlyphClass: 2
Flags: W
AnchorPoint: "Anchor-1" 698 -260 basechar 0
AnchorPoint: "Anchor-0" 700 1350 basechar 0
LayerCount: 2
Fore
SplineSet
1231 587 m 2,0,-1
 1231 369 l 2,1,2
 1231 160 1231 160 1150 7 c 128,-1,3
 1069 -146 1069 -146 924 -217 c 1,4,-1
 1191 -478 l 1,5,-1
 1152 -513 l 1,6,-1
 869 -240 l 1,7,8
 782 -270 782 -270 683 -270 c 0,9,10
 516 -270 516 -270 392.5 -189.5 c 128,-1,11
 269 -109 269 -109 201 35 c 128,-1,12
 133 179 133 179 133 369 c 2,13,-1
 133 587 l 2,14,15
 133 777 133 777 200.5 921 c 128,-1,16
 268 1065 268 1065 391 1145.5 c 128,-1,17
 514 1226 514 1226 681 1226 c 0,18,19
 849 1226 849 1226 972.5 1145.5 c 128,-1,20
 1096 1065 1096 1065 1163.5 921 c 128,-1,21
 1231 777 1231 777 1231 587 c 2,0,-1
1177 369 m 2,22,-1
 1177 589 l 2,23,24
 1177 760 1177 760 1118.5 891.5 c 128,-1,25
 1060 1023 1060 1023 949 1097.5 c 128,-1,26
 838 1172 838 1172 681 1172 c 0,27,28
 525 1172 525 1172 415 1097.5 c 128,-1,29
 305 1023 305 1023 246.5 891.5 c 128,-1,30
 188 760 188 760 188 589 c 2,31,-1
 188 369 l 2,32,33
 188 198 188 198 247 66 c 128,-1,34
 306 -66 306 -66 416.5 -141 c 128,-1,35
 527 -216 527 -216 683 -216 c 0,36,37
 840 -216 840 -216 950.5 -141 c 128,-1,38
 1061 -66 1061 -66 1119 66 c 128,-1,39
 1177 198 1177 198 1177 369 c 2,22,-1
EndSplineSet
Substitution2: "'c2sc' Capitals to Small Capitals lookup 0 subtable" Q.smcp
Position2: "'cpsp' Capital Spacing lookup 0 subtable" dx=36 dy=0 dh=72 dv=0
EndChar

StartChar: Q.smcp
Encoding: 65663 -1 216
Width: 1176
GlyphClass: 2
Flags: W
AnchorPoint: "Anchor-1" 599 -10 basechar 0
AnchorPoint: "Anchor-0" 599 1320 basechar 0
LayerCount: 2
Fore
SplineSet
1061 662 m 2,0,-1
 1061 502 l 2,1,2
 1061 334 1061 334 993 211.5 c 128,-1,3
 925 89 925 89 804 30 c 1,4,-1
 1029 -171 l 1,5,-1
 991 -208 l 1,6,-1
 746 8 l 1,7,8
 672 -16 672 -16 587 -16 c 0,9,10
 444 -16 444 -16 337 48.5 c 128,-1,11
 230 113 230 113 171.5 230 c 128,-1,12
 113 347 113 347 113 502 c 2,13,-1
 113 662 l 2,14,15
 113 818 113 818 171 934.5 c 128,-1,16
 229 1051 229 1051 335.5 1116 c 128,-1,17
 442 1181 442 1181 586 1181 c 0,18,19
 731 1181 731 1181 837.5 1116 c 128,-1,20
 944 1051 944 1051 1002.5 934.5 c 128,-1,21
 1061 818 1061 818 1061 662 c 2,0,-1
1007 502 m 2,22,-1
 1007 664 l 2,23,24
 1007 801 1007 801 957 905 c 128,-1,25
 907 1009 907 1009 813 1067.5 c 128,-1,26
 719 1126 719 1126 586 1126 c 0,27,28
 454 1126 454 1126 360.5 1067.5 c 128,-1,29
 267 1009 267 1009 217.5 905 c 128,-1,30
 168 801 168 801 168 664 c 2,31,-1
 168 502 l 2,32,33
 168 295 168 295 278.5 166.5 c 128,-1,34
 389 38 389 38 587 38 c 0,35,36
 787 38 787 38 897 166.5 c 128,-1,37
 1007 295 1007 295 1007 502 c 2,22,-1
EndSplineSet
EndChar

StartChar: R
Encoding: 82 82 217
Width: 1340
VWidth: 1798
GlyphClass: 2
Flags: W
AnchorPoint: "Anchor-1" 611 -240 basechar 0
AnchorPoint: "Anchor-0" 610 1351 basechar 0
LayerCount: 2
Fore
SplineSet
1141 -250 m 1,0,-1
 754 373 l 1,1,-1
 249 373 l 1,2,-1
 249 -250 l 1,3,-1
 195 -250 l 1,4,-1
 195 1206 l 1,5,-1
 659 1206 l 2,6,7
 798 1206 798 1206 906 1157.5 c 128,-1,8
 1014 1109 1014 1109 1075.5 1015.5 c 128,-1,9
 1137 922 1137 922 1137 786 c 0,10,11
 1137 682 1137 682 1093 598 c 128,-1,12
 1049 514 1049 514 975 459 c 128,-1,13
 901 404 901 404 809 387 c 1,14,-1
 1198 -236 l 1,15,-1
 1198 -250 l 1,16,-1
 1141 -250 l 1,0,-1
659 1152 m 2,17,-1
 249 1152 l 1,18,-1
 249 427 l 1,19,-1
 708 427 l 2,20,21
 833 427 833 427 916 479 c 128,-1,22
 999 531 999 531 1041 613.5 c 128,-1,23
 1083 696 1083 696 1083 786 c 0,24,25
 1083 958 1083 958 968 1055 c 128,-1,26
 853 1152 853 1152 659 1152 c 2,17,-1
EndSplineSet
Substitution2: "'c2sc' Capitals to Small Capitals lookup 0 subtable" R.smcp
Position2: "'cpsp' Capital Spacing lookup 0 subtable" dx=36 dy=0 dh=72 dv=0
EndChar

StartChar: R.smcp
Encoding: 65664 -1 218
Width: 1147
GlyphClass: 2
Flags: W
AnchorPoint: "Anchor-1" 525 8 basechar 0
AnchorPoint: "Anchor-0" 520 1320 basechar 0
LayerCount: 2
Fore
SplineSet
974 0 m 1,0,-1
 647 487 l 1,1,-1
 220 487 l 1,2,-1
 220 0 l 1,3,-1
 166 0 l 1,4,-1
 166 1165 l 1,5,-1
 566 1165 l 2,6,7
 748 1165 748 1165 863.5 1073.5 c 128,-1,8
 979 982 979 982 979 818 c 0,9,10
 979 696 979 696 899 609.5 c 128,-1,11
 819 523 819 523 701 500 c 1,12,-1
 1031 10 l 1,13,-1
 1031 0 l 1,14,-1
 974 0 l 1,0,-1
566 1110 m 2,15,-1
 220 1110 l 1,16,-1
 220 541 l 1,17,-1
 605 541 l 2,18,19
 711 541 711 541 782 581 c 128,-1,20
 853 621 853 621 888.5 684.5 c 128,-1,21
 924 748 924 748 924 818 c 0,22,23
 924 951 924 951 827.5 1030.5 c 128,-1,24
 731 1110 731 1110 566 1110 c 2,15,-1
EndSplineSet
EndChar

StartChar: S
Encoding: 83 83 225
Width: 1211
VWidth: 1798
GlyphClass: 2
Flags: W
AnchorPoint: "Anchor-1" 628 -251 basechar 0
AnchorPoint: "Anchor-0" 622 1353 basechar 0
LayerCount: 2
Fore
SplineSet
1072 99 m 0,0,1
 1072 191 1072 191 1028.5 257 c 128,-1,2
 985 323 985 323 886.5 373 c 128,-1,3
 788 423 788 423 623 468 c 0,4,5
 475 509 475 509 367 557 c 128,-1,6
 259 605 259 605 201 679 c 128,-1,7
 143 753 143 753 143 870 c 0,8,9
 143 981 143 981 206.5 1060.5 c 128,-1,10
 270 1140 270 1140 379.5 1183 c 128,-1,11
 489 1226 489 1226 626 1226 c 0,12,13
 768 1226 768 1226 877 1172 c 128,-1,14
 986 1118 986 1118 1048.5 1021.5 c 128,-1,15
 1111 925 1111 925 1111 796 c 1,16,-1
 1057 796 l 1,17,18
 1057 904 1057 904 1003 989 c 128,-1,19
 949 1074 949 1074 852.5 1123 c 128,-1,20
 756 1172 756 1172 626 1172 c 0,21,22
 489 1172 489 1172 393 1130 c 128,-1,23
 297 1088 297 1088 247 1019.5 c 128,-1,24
 197 951 197 951 197 872 c 0,25,26
 197 795 197 795 235 732 c 128,-1,27
 273 669 273 669 368.5 617 c 128,-1,28
 464 565 464 565 638 520 c 0,29,30
 782 483 782 483 892 432 c 128,-1,31
 1002 381 1002 381 1064.5 302.5 c 128,-1,32
 1127 224 1127 224 1127 101 c 0,33,34
 1127 -18 1127 -18 1060 -101 c 128,-1,35
 993 -184 993 -184 881 -227 c 128,-1,36
 769 -270 769 -270 633 -270 c 0,37,38
 540 -270 540 -270 445 -248 c 128,-1,39
 350 -226 350 -226 271 -176.5 c 128,-1,40
 192 -127 192 -127 144 -44 c 128,-1,41
 96 39 96 39 96 161 c 1,42,-1
 150 161 l 1,43,44
 150 52 150 52 195 -21 c 128,-1,45
 240 -94 240 -94 312.5 -136.5 c 128,-1,46
 385 -179 385 -179 469.5 -197.5 c 128,-1,47
 554 -216 554 -216 633 -216 c 0,48,49
 761 -216 761 -216 860 -176 c 128,-1,50
 959 -136 959 -136 1015.5 -65 c 128,-1,51
 1072 6 1072 6 1072 99 c 0,0,1
EndSplineSet
Substitution2: "'c2sc' Capitals to Small Capitals lookup 0 subtable" S.smcp
Position2: "'cpsp' Capital Spacing lookup 0 subtable" dx=36 dy=0 dh=72 dv=0
EndChar

StartChar: S.smcp
Encoding: 65668 -1 226
Width: 1041
GlyphClass: 2
Flags: W
AnchorPoint: "Anchor-1" 552 0 basechar 0
AnchorPoint: "Anchor-0" 543 1320 basechar 0
LayerCount: 2
Fore
SplineSet
914 281 m 0,0,1
 914 387 914 387 829.5 451 c 128,-1,2
 745 515 745 515 535 566 c 0,3,4
 407 598 407 598 314.5 638 c 128,-1,5
 222 678 222 678 172 738 c 128,-1,6
 122 798 122 798 122 891 c 0,7,8
 122 981 122 981 176.5 1046 c 128,-1,9
 231 1111 231 1111 325 1146 c 128,-1,10
 419 1181 419 1181 537 1181 c 0,11,12
 660 1181 660 1181 754.5 1137 c 128,-1,13
 849 1093 849 1093 902.5 1015 c 128,-1,14
 956 937 956 937 956 835 c 1,15,-1
 902 835 l 1,16,17
 902 960 902 960 803 1043 c 128,-1,18
 704 1126 704 1126 537 1126 c 0,19,20
 363 1126 363 1126 269 1056 c 128,-1,21
 175 986 175 986 175 893 c 0,22,23
 175 833 175 833 207.5 784 c 128,-1,24
 240 735 240 735 321.5 695 c 128,-1,25
 403 655 403 655 550 620 c 0,26,27
 674 590 674 590 768.5 548.5 c 128,-1,28
 863 507 863 507 916 443 c 128,-1,29
 969 379 969 379 969 282 c 0,30,31
 969 187 969 187 911.5 120.5 c 128,-1,32
 854 54 854 54 758 19 c 128,-1,33
 662 -16 662 -16 544 -16 c 0,34,35
 463 -16 463 -16 381.5 2 c 128,-1,36
 300 20 300 20 232 60 c 128,-1,37
 164 100 164 100 123 166.5 c 128,-1,38
 82 233 82 233 82 329 c 1,39,-1
 135 329 l 1,40,41
 135 245 135 245 173 189 c 128,-1,42
 211 133 211 133 272.5 99.5 c 128,-1,43
 334 66 334 66 405.5 51.5 c 128,-1,44
 477 37 477 37 544 37 c 0,45,46
 707 37 707 37 810.5 104.5 c 128,-1,47
 914 172 914 172 914 281 c 0,0,1
EndSplineSet
EndChar

StartChar: Schwa
Encoding: 399 399 233
Width: 1452
VWidth: 1798
GlyphClass: 2
Flags: W
AnchorPoint: "Anchor-1" 696 -250 basechar 0
AnchorPoint: "Anchor-0" 661 1353 basechar 0
LayerCount: 2
Fore
SplineSet
754 -270 m 0,0,1
 573 -270 573 -270 438.5 -196 c 128,-1,2
 304 -122 304 -122 230 14.5 c 128,-1,3
 156 151 156 151 156 338 c 2,4,-1
 156 461 l 1,5,-1
 1273 461 l 1,6,-1
 1273 585 l 2,7,8
 1273 748 1273 748 1216.5 881 c 128,-1,9
 1160 1014 1160 1014 1039.5 1093 c 128,-1,10
 919 1172 919 1172 728 1172 c 0,11,12
 581 1172 581 1172 467.5 1129 c 128,-1,13
 354 1086 354 1086 273 1018 c 1,14,-1
 243 1061 l 1,15,16
 291 1102 291 1102 354.5 1140 c 128,-1,17
 418 1178 418 1178 508.5 1202 c 128,-1,18
 599 1226 599 1226 728 1226 c 0,19,20
 922 1226 922 1226 1055.5 1144 c 128,-1,21
 1189 1062 1189 1062 1258 917.5 c 128,-1,22
 1327 773 1327 773 1327 585 c 2,23,-1
 1327 413 l 2,24,25
 1327 211 1327 211 1252.5 57.5 c 128,-1,26
 1178 -96 1178 -96 1048.5 -183 c 128,-1,27
 919 -270 919 -270 754 -270 c 0,0,1
754 -216 m 0,28,29
 915 -216 915 -216 1031 -132.5 c 128,-1,30
 1147 -49 1147 -49 1209.5 92.5 c 128,-1,31
 1272 234 1272 234 1273 406 c 1,32,-1
 210 406 l 1,33,-1
 210 334 l 2,34,35
 210 181 210 181 273.5 56 c 128,-1,36
 337 -69 337 -69 458.5 -142.5 c 128,-1,37
 580 -216 580 -216 754 -216 c 0,28,29
EndSplineSet
EndChar

StartChar: T
Encoding: 84 84 237
Width: 1224
VWidth: 1798
GlyphClass: 2
Flags: W
AnchorPoint: "Anchor-1" 614 -250 basechar 0
AnchorPoint: "Anchor-0" 612 1350 basechar 0
LayerCount: 2
Fore
SplineSet
1169 1206 m 1,0,-1
 1169 1152 l 1,1,-1
 639 1152 l 1,2,-1
 639 -250 l 1,3,-1
 585 -250 l 1,4,-1
 585 1152 l 1,5,-1
 55 1152 l 1,6,-1
 55 1206 l 1,7,-1
 1169 1206 l 1,0,-1
EndSplineSet
Substitution2: "'c2sc' Capitals to Small Capitals lookup 0 subtable" T.smcp
Position2: "'cpsp' Capital Spacing lookup 0 subtable" dx=36 dy=0 dh=72 dv=0
EndChar

StartChar: T.smcp
Encoding: 65674 -1 238
Width: 1052
GlyphClass: 2
Flags: W
AnchorPoint: "Anchor-1" 531 3 basechar 0
AnchorPoint: "Anchor-0" 530 1320 basechar 0
LayerCount: 2
Fore
SplineSet
1005 1165 m 1,0,-1
 1005 1110 l 1,1,-1
 553 1110 l 1,2,-1
 553 0 l 1,3,-1
 499 0 l 1,4,-1
 499 1110 l 1,5,-1
 46 1110 l 1,6,-1
 46 1165 l 1,7,-1
 1005 1165 l 1,0,-1
EndSplineSet
EndChar

StartChar: Tbar
Encoding: 358 358 239
Width: 1224
VWidth: 1798
GlyphClass: 2
Flags: W
AnchorPoint: "Anchor-1" 614 -250 basechar 0
AnchorPoint: "Anchor-0" 612 1350 basechar 0
LayerCount: 2
Fore
SplineSet
888 651 m 1,0,-1
 888 597 l 1,1,-1
 639 597 l 1,2,-1
 639 -250 l 1,3,-1
 585 -250 l 1,4,-1
 585 597 l 1,5,-1
 301 597 l 1,6,-1
 301 651 l 1,7,-1
 585 651 l 1,8,-1
 585 1152 l 1,9,-1
 55 1152 l 1,10,-1
 55 1206 l 1,11,-1
 1169 1206 l 1,12,-1
 1169 1152 l 1,13,-1
 639 1152 l 1,14,-1
 639 651 l 1,15,-1
 888 651 l 1,0,-1
EndSplineSet
Substitution2: "'c2sc' Capitals to Small Capitals lookup 0 subtable" Tbar.smcp
Position2: "'cpsp' Capital Spacing lookup 0 subtable" dx=36 dy=0 dh=72 dv=0
EndChar

StartChar: Thorn
Encoding: 222 222 244
Width: 1219
VWidth: 1798
GlyphClass: 2
Flags: W
LayerCount: 2
Fore
SplineSet
200 1206 m 1,0,-1
 254 1206 l 1,1,-1
 254 893 l 1,2,-1
 625 893 l 2,3,4
 771 893 771 893 871 840 c 128,-1,5
 971 787 971 787 1023 695.5 c 128,-1,6
 1075 604 1075 604 1075 488 c 256,7,8
 1075 372 1075 372 1023 280.5 c 128,-1,9
 971 189 971 189 871 136.5 c 128,-1,10
 771 84 771 84 625 84 c 2,11,-1
 254 84 l 1,12,-1
 254 -250 l 1,13,-1
 200 -250 l 1,14,-1
 200 1206 l 1,0,-1
625 839 m 2,15,-1
 254 839 l 1,16,-1
 254 138 l 1,17,-1
 625 138 l 2,18,19
 766 138 766 138 853 190.5 c 128,-1,20
 940 243 940 243 980.5 323.5 c 128,-1,21
 1021 404 1021 404 1021 486 c 0,22,23
 1021 573 1021 573 980.5 654 c 128,-1,24
 940 735 940 735 853 787 c 128,-1,25
 766 839 766 839 625 839 c 2,15,-1
EndSplineSet
Substitution2: "'c2sc' Capitals to Small Capitals lookup 0 subtable" Thorn.smcp
Position2: "'cpsp' Capital Spacing lookup 0 subtable" dx=36 dy=0 dh=72 dv=0
EndChar

StartChar: Thorn.smcp
Encoding: 65678 -1 245
Width: 961
GlyphClass: 2
Flags: W
AnchorPoint: "Anchor-1" 450 10 basechar 0
AnchorPoint: "Anchor-0" 526 1320 basechar 0
LayerCount: 2
Fore
SplineSet
170 0 m 1,0,-1
 170 1165 l 1,1,-1
 224 1165 l 1,2,-1
 224 938 l 1,3,-1
 466 938 l 2,4,5
 666 938 666 938 769.5 843.5 c 128,-1,6
 873 749 873 749 873 595 c 0,7,8
 873 439 873 439 770 349.5 c 128,-1,9
 667 260 667 260 466 260 c 2,10,-1
 224 260 l 1,11,-1
 224 0 l 1,12,-1
 170 0 l 1,0,-1
466 883 m 2,13,-1
 224 883 l 1,14,-1
 224 315 l 1,15,-1
 466 315 l 2,16,17
 653 315 653 315 735.5 396.5 c 128,-1,18
 818 478 818 478 818 594 c 0,19,20
 818 713 818 713 735.5 798 c 128,-1,21
 653 883 653 883 466 883 c 2,13,-1
EndSplineSet
EndChar

StartChar: U
Encoding: 85 85 246
Width: 1365
VWidth: 1798
GlyphClass: 2
Flags: W
AnchorPoint: "Anchor-1" 666 -250 basechar 0
AnchorPoint: "Anchor-0" 667 1351 basechar 0
LayerCount: 2
Fore
SplineSet
1126 1206 m 1,0,-1
 1180 1206 l 1,1,-1
 1180 219 l 2,2,3
 1180 56 1180 56 1115 -53 c 128,-1,4
 1050 -162 1050 -162 937.5 -216 c 128,-1,5
 825 -270 825 -270 683 -270 c 256,6,7
 541 -270 541 -270 428.5 -216 c 128,-1,8
 316 -162 316 -162 250.5 -53 c 128,-1,9
 185 56 185 56 185 219 c 2,10,-1
 185 1206 l 1,11,-1
 239 1206 l 1,12,-1
 239 219 l 2,13,14
 239 79 239 79 297.5 -18.5 c 128,-1,15
 356 -116 356 -116 456.5 -166 c 128,-1,16
 557 -216 557 -216 683 -216 c 256,17,18
 809 -216 809 -216 909.5 -166 c 128,-1,19
 1010 -116 1010 -116 1068 -18.5 c 128,-1,20
 1126 79 1126 79 1126 219 c 2,21,-1
 1126 1206 l 1,0,-1
EndSplineSet
Substitution2: "'unic' Unicase lookup 2 subtable" U.unic
Substitution2: "'c2sc' Capitals to Small Capitals lookup 0 subtable" U.smcp
Position2: "'cpsp' Capital Spacing lookup 0 subtable" dx=36 dy=0 dh=72 dv=0
EndChar

StartChar: U.smcp
Encoding: 65679 -1 247
Width: 1171
GlyphClass: 2
Flags: W
AnchorPoint: "Anchor-1" 574 0 basechar 0
AnchorPoint: "Anchor-0" 576 1320 basechar 0
LayerCount: 2
Fore
SplineSet
961 1165 m 1,0,-1
 1015 1165 l 1,1,-1
 1015 375 l 2,2,3
 1015 245 1015 245 958.5 158 c 128,-1,4
 902 71 902 71 805 27.5 c 128,-1,5
 708 -16 708 -16 586 -16 c 256,6,7
 464 -16 464 -16 366.5 27.5 c 128,-1,8
 269 71 269 71 213 158 c 128,-1,9
 157 245 157 245 157 375 c 2,10,-1
 157 1165 l 1,11,-1
 210 1165 l 1,12,-1
 210 375 l 2,13,14
 210 266 210 266 259.5 190.5 c 128,-1,15
 309 115 309 115 394 76 c 128,-1,16
 479 37 479 37 586 37 c 0,17,18
 747 37 747 37 854 124 c 128,-1,19
 961 211 961 211 961 375 c 2,20,-1
 961 1165 l 1,0,-1
EndSplineSet
EndChar

StartChar: U.unic
Encoding: 65680 -1 248
Width: 1438
GlyphClass: 2
Flags: W
AnchorPoint: "Anchor-1" 721 0 basechar 0
AnchorPoint: "Anchor-0" 722 1632 basechar 0
LayerCount: 2
Fore
SplineSet
1184 0 m 1,0,-1
 1184 300 l 1,1,2
 1115 134 1115 134 980 57 c 128,-1,3
 845 -20 845 -20 672 -20 c 0,4,5
 529 -20 529 -20 422.5 32 c 128,-1,6
 316 84 316 84 258 198.5 c 128,-1,7
 200 313 200 313 200 502 c 2,8,-1
 200 1456 l 1,9,-1
 254 1456 l 1,10,-1
 254 502 l 2,11,12
 254 320 254 320 310.5 218 c 128,-1,13
 367 116 367 116 463 74.5 c 128,-1,14
 559 33 559 33 675 33 c 0,15,16
 825 33 825 33 929.5 89.5 c 128,-1,17
 1034 146 1034 146 1096.5 236 c 128,-1,18
 1159 326 1159 326 1184 426 c 1,19,-1
 1184 1456 l 1,20,-1
 1238 1456 l 1,21,-1
 1238 0 l 1,22,-1
 1184 0 l 1,0,-1
EndSplineSet
EndChar

StartChar: Uhorn
Encoding: 431 431 263
Width: 1365
VWidth: 1798
GlyphClass: 2
Flags: W
AnchorPoint: "Anchor-1" 692 -259 basechar 0
AnchorPoint: "Anchor-0" 694 1362 basechar 0
LayerCount: 2
Fore
SplineSet
1126 1206 m 1,0,-1
 1180 1206 l 1,1,-1
 1180 999 l 1,2,3
 1321 1005 1321 1005 1367.5 1083 c 128,-1,4
 1414 1161 1414 1161 1414 1301 c 1,5,-1
 1468 1301 l 1,6,7
 1468 1134 1468 1134 1404 1042.5 c 128,-1,8
 1340 951 1340 951 1180 945 c 1,9,-1
 1180 219 l 2,10,11
 1180 56 1180 56 1115 -53 c 128,-1,12
 1050 -162 1050 -162 937.5 -216 c 128,-1,13
 825 -270 825 -270 683 -270 c 256,14,15
 541 -270 541 -270 428.5 -216 c 128,-1,16
 316 -162 316 -162 250.5 -53 c 128,-1,17
 185 56 185 56 185 219 c 2,18,-1
 185 1206 l 1,19,-1
 239 1206 l 1,20,-1
 239 219 l 2,21,22
 239 79 239 79 297.5 -18.5 c 128,-1,23
 356 -116 356 -116 456.5 -166 c 128,-1,24
 557 -216 557 -216 683 -216 c 256,25,26
 809 -216 809 -216 909.5 -166 c 128,-1,27
 1010 -116 1010 -116 1068 -18.5 c 128,-1,28
 1126 79 1126 79 1126 219 c 2,29,-1
 1126 1206 l 1,0,-1
EndSplineSet
EndChar

StartChar: Uogonek
Encoding: 370 370 270
Width: 1365
VWidth: 1798
GlyphClass: 2
Flags: W
AnchorPoint: "Anchor-1" 666 -250 basechar 0
AnchorPoint: "Anchor-0" 667 1351 basechar 0
LayerCount: 2
Fore
SplineSet
1126 1206 m 1,0,-1
 1180 1206 l 1,1,-1
 1180 219 l 2,2,3
 1180 55 1180 55 1113.5 -54 c 128,-1,4
 1047 -163 1047 -163 936 -217 c 1,5,-1
 936 -217 l 1,6,7
 865 -273 865 -273 806.5 -332 c 128,-1,8
 748 -391 748 -391 748 -463 c 0,9,10
 748 -500 748 -500 767 -529 c 128,-1,11
 786 -558 786 -558 841 -558 c 0,12,13
 881 -558 881 -558 907 -545.5 c 128,-1,14
 933 -533 933 -533 951 -520 c 1,15,-1
 967 -568 l 1,16,17
 948 -583 948 -583 917.5 -597.5 c 128,-1,18
 887 -612 887 -612 841 -612 c 0,19,20
 774 -612 774 -612 734 -575.5 c 128,-1,21
 694 -539 694 -539 694 -463 c 0,22,23
 694 -410 694 -410 731.5 -356.5 c 128,-1,24
 769 -303 769 -303 821 -256 c 1,25,26
 756 -270 756 -270 683 -270 c 0,27,28
 541 -270 541 -270 428.5 -216 c 128,-1,29
 316 -162 316 -162 250.5 -53 c 128,-1,30
 185 56 185 56 185 219 c 2,31,-1
 185 1206 l 1,32,-1
 239 1206 l 1,33,-1
 239 219 l 2,34,35
 239 79 239 79 297.5 -18.5 c 128,-1,36
 356 -116 356 -116 456.5 -166 c 128,-1,37
 557 -216 557 -216 683 -216 c 256,38,39
 809 -216 809 -216 909.5 -166 c 128,-1,40
 1010 -116 1010 -116 1068 -18.5 c 128,-1,41
 1126 79 1126 79 1126 219 c 2,42,-1
 1126 1206 l 1,0,-1
EndSplineSet
Substitution2: "'unic' Unicase lookup 2 subtable" Uogonek.unic
Substitution2: "'c2sc' Capitals to Small Capitals lookup 0 subtable" Uogonek.smcp
Position2: "'cpsp' Capital Spacing lookup 0 subtable" dx=36 dy=0 dh=72 dv=0
EndChar

StartChar: Uogonek.smcp
Encoding: 65694 -1 271
Width: 1171
GlyphClass: 2
Flags: W
AnchorPoint: "Anchor-1" 574 0 basechar 0
AnchorPoint: "Anchor-0" 576 1320 basechar 0
LayerCount: 2
Fore
SplineSet
961 1165 m 1,0,-1
 1015 1165 l 1,1,-1
 1015 375 l 2,2,3
 1015 239 1015 239 953.5 150.5 c 128,-1,4
 892 62 892 62 789 20 c 1,5,-1
 790 20 l 1,6,7
 719 -36 719 -36 660.5 -95 c 128,-1,8
 602 -154 602 -154 602 -226 c 0,9,10
 602 -263 602 -263 621 -292 c 128,-1,11
 640 -321 640 -321 695 -321 c 0,12,13
 735 -321 735 -321 761 -308.5 c 128,-1,14
 787 -296 787 -296 805 -283 c 1,15,-1
 821 -331 l 1,16,17
 802 -346 802 -346 771.5 -360.5 c 128,-1,18
 741 -375 741 -375 695 -375 c 0,19,20
 628 -375 628 -375 588 -338.5 c 128,-1,21
 548 -302 548 -302 548 -226 c 0,22,23
 548 -170 548 -170 589.5 -113.5 c 128,-1,24
 631 -57 631 -57 688 -8 c 1,25,26
 639 -16 639 -16 586 -16 c 0,27,28
 464 -16 464 -16 366.5 27.5 c 128,-1,29
 269 71 269 71 213 158 c 128,-1,30
 157 245 157 245 157 375 c 2,31,-1
 157 1165 l 1,32,-1
 210 1165 l 1,33,-1
 210 375 l 2,34,35
 210 266 210 266 259.5 190.5 c 128,-1,36
 309 115 309 115 394 76 c 128,-1,37
 479 37 479 37 586 37 c 0,38,39
 747 37 747 37 854 124 c 128,-1,40
 961 211 961 211 961 375 c 2,41,-1
 961 1165 l 1,0,-1
EndSplineSet
EndChar

StartChar: V
Encoding: 86 86 279
Width: 1223
VWidth: 1798
GlyphClass: 2
Flags: W
AnchorPoint: "Anchor-1" 655 -240 basechar 0
AnchorPoint: "Anchor-0" 655 1362 basechar 0
LayerCount: 2
Fore
SplineSet
641 -108 m 1,0,-1
 1130 1206 l 1,1,-1
 1189 1206 l 1,2,-1
 645 -250 l 1,3,-1
 579 -250 l 1,4,-1
 35 1206 l 1,5,-1
 94 1206 l 1,6,-1
 583 -108 l 1,7,-1
 612 -196 l 1,8,-1
 641 -108 l 1,0,-1
EndSplineSet
Substitution2: "'c2sc' Capitals to Small Capitals lookup 0 subtable" V.smcp
Position2: "'cpsp' Capital Spacing lookup 0 subtable" dx=36 dy=0 dh=72 dv=0
EndChar

StartChar: V.smcp
Encoding: 65700 -1 280
Width: 1056
GlyphClass: 2
Flags: W
AnchorPoint: "Anchor-1" 561 10 basechar 0
AnchorPoint: "Anchor-0" 561 1320 basechar 0
LayerCount: 2
Fore
SplineSet
554 137 m 1,0,-1
 968 1165 l 1,1,-1
 1027 1165 l 1,2,-1
 559 0 l 1,3,-1
 497 0 l 1,4,-1
 29 1165 l 1,5,-1
 89 1165 l 1,6,-1
 503 137 l 1,7,-1
 528 57 l 1,8,-1
 554 137 l 1,0,-1
EndSplineSet
EndChar

StartChar: W
Encoding: 87 87 281
Width: 1855
VWidth: 1798
GlyphClass: 2
Flags: W
AnchorPoint: "Anchor-1" 922 -240 basechar 0
AnchorPoint: "Anchor-0" 924 1351 basechar 0
LayerCount: 2
Fore
SplineSet
555 80 m 1,0,-1
 899 1206 l 1,1,-1
 959 1206 l 1,2,-1
 1301 80 l 1,3,-1
 1366 -160 l 1,4,-1
 1434 80 l 1,5,-1
 1734 1206 l 1,6,-1
 1793 1206 l 1,7,-1
 1401 -250 l 1,8,-1
 1340 -250 l 1,9,-1
 979 964 l 1,10,-1
 929 1118 l 1,11,-1
 879 964 l 1,12,-1
 515 -250 l 1,13,-1
 454 -250 l 1,14,-1
 61 1206 l 1,15,-1
 121 1206 l 1,16,-1
 423 80 l 1,17,-1
 489 -159 l 1,18,-1
 555 80 l 1,0,-1
EndSplineSet
Substitution2: "'c2sc' Capitals to Small Capitals lookup 0 subtable" W.smcp
Position2: "'cpsp' Capital Spacing lookup 0 subtable" dx=36 dy=0 dh=72 dv=0
EndChar

StartChar: W.smcp
Encoding: 65701 -1 282
Width: 1593
GlyphClass: 2
Flags: W
AnchorPoint: "Anchor-1" 786 10 basechar 0
AnchorPoint: "Anchor-0" 786 1320 basechar 0
LayerCount: 2
Fore
SplineSet
476 278 m 1,0,-1
 770 1165 l 1,1,-1
 827 1165 l 1,2,-1
 1117 278 l 1,3,-1
 1173 82 l 1,4,-1
 1229 282 l 1,5,-1
 1483 1165 l 1,6,-1
 1540 1165 l 1,7,-1
 1206 0 l 1,8,-1
 1147 0 l 1,9,-1
 840 952 l 1,10,-1
 798 1082 l 1,11,-1
 757 952 l 1,12,-1
 446 0 l 1,13,-1
 388 0 l 1,14,-1
 52 1165 l 1,15,-1
 111 1165 l 1,16,-1
 366 282 l 1,17,-1
 421 84 l 1,18,-1
 476 278 l 1,0,-1
EndSplineSet
EndChar

StartChar: X
Encoding: 88 88 289
Width: 1223
VWidth: 1798
GlyphClass: 2
Flags: W
AnchorPoint: "Anchor-1" 645 -240 basechar 0
AnchorPoint: "Anchor-0" 653 1362 basechar 0
LayerCount: 2
Fore
SplineSet
141 1206 m 1,0,-1
 611 535 l 1,1,-1
 1081 1206 l 1,2,-1
 1149 1206 l 1,3,-1
 645 493 l 1,4,-1
 1168 -250 l 1,5,-1
 1101 -250 l 1,6,-1
 611 451 l 1,7,-1
 119 -250 l 1,8,-1
 54 -250 l 1,9,-1
 577 493 l 1,10,-1
 73 1206 l 1,11,-1
 141 1206 l 1,0,-1
EndSplineSet
Substitution2: "'c2sc' Capitals to Small Capitals lookup 0 subtable" X.smcp
Position2: "'cpsp' Capital Spacing lookup 0 subtable" dx=36 dy=0 dh=72 dv=0
EndChar

StartChar: X.smcp
Encoding: 65707 -1 290
Width: 1055
GlyphClass: 2
Flags: W
AnchorPoint: "Anchor-1" 550 8 basechar 0
AnchorPoint: "Anchor-0" 550 1320 basechar 0
LayerCount: 2
Fore
SplineSet
129 1165 m 1,0,-1
 526 638 l 1,1,-1
 924 1165 l 1,2,-1
 992 1165 l 1,3,-1
 561 593 l 1,4,-1
 1009 0 l 1,5,-1
 943 0 l 1,6,-1
 526 547 l 1,7,-1
 111 0 l 1,8,-1
 46 0 l 1,9,-1
 494 593 l 1,10,-1
 62 1165 l 1,11,-1
 129 1165 l 1,0,-1
EndSplineSet
EndChar

StartChar: Y
Encoding: 89 89 291
Width: 1223
VWidth: 1798
GlyphClass: 2
Flags: W
AnchorPoint: "Anchor-1" 615 -249 basechar 0
AnchorPoint: "Anchor-0" 618 1350 basechar 0
LayerCount: 2
Fore
SplineSet
105 1206 m 1,0,-1
 609 352 l 1,1,-1
 1119 1206 l 1,2,-1
 1185 1206 l 1,3,-1
 636 303 l 1,4,-1
 636 -250 l 1,5,-1
 582 -250 l 1,6,-1
 582 303 l 1,7,-1
 33 1206 l 1,8,-1
 105 1206 l 1,0,-1
EndSplineSet
Substitution2: "'c2sc' Capitals to Small Capitals lookup 0 subtable" Y.smcp
Position2: "'cpsp' Capital Spacing lookup 0 subtable" dx=36 dy=0 dh=72 dv=0
EndChar

StartChar: Y.smcp
Encoding: 65708 -1 292
Width: 1052
GlyphClass: 2
Flags: W
AnchorPoint: "Anchor-1" 533 10 basechar 0
AnchorPoint: "Anchor-0" 533 1320 basechar 0
LayerCount: 2
Fore
SplineSet
542 510 m 1,0,-1
 955 1165 l 1,1,-1
 1020 1165 l 1,2,-1
 552 438 l 1,3,-1
 552 0 l 1,4,-1
 497 0 l 1,5,-1
 497 439 l 1,6,-1
 30 1165 l 1,7,-1
 95 1165 l 1,8,-1
 507 509 l 1,9,-1
 524 477 l 1,10,-1
 542 510 l 1,0,-1
EndSplineSet
EndChar

StartChar: Z
Encoding: 90 90 301
Width: 1224
VWidth: 1798
GlyphClass: 2
Flags: W
AnchorPoint: "Anchor-1" 613 -240 basechar 0
AnchorPoint: "Anchor-0" 616 1351 basechar 0
LayerCount: 2
Fore
SplineSet
1130 -196 m 1,0,-1
 1130 -250 l 1,1,-1
 94 -250 l 1,2,-1
 94 -206 l 1,3,-1
 1023 1153 l 1,4,-1
 134 1153 l 1,5,-1
 134 1206 l 1,6,-1
 1098 1206 l 1,7,-1
 1098 1168 l 1,8,-1
 168 -196 l 1,9,-1
 1130 -196 l 1,0,-1
EndSplineSet
Substitution2: "'c2sc' Capitals to Small Capitals lookup 0 subtable" Z.smcp
Position2: "'cpsp' Capital Spacing lookup 0 subtable" dx=36 dy=0 dh=72 dv=0
EndChar

StartChar: Z.smcp
Encoding: 65714 -1 302
Width: 1053
GlyphClass: 2
Flags: W
AnchorPoint: "Anchor-1" 533 10 basechar 0
AnchorPoint: "Anchor-0" 533 1320 basechar 0
LayerCount: 2
Fore
SplineSet
972 54 m 1,0,-1
 972 0 l 1,1,-1
 80 0 l 1,2,-1
 80 46 l 1,3,-1
 866 1111 l 1,4,-1
 113 1111 l 1,5,-1
 113 1165 l 1,6,-1
 944 1165 l 1,7,-1
 944 1123 l 1,8,-1
 156 54 l 1,9,-1
 972 54 l 1,0,-1
EndSplineSet
EndChar

StartChar: a
Encoding: 97 97 309
Width: 1081
VWidth: 1798
GlyphClass: 2
Flags: W
AnchorPoint: "Anchor-1" 502 -250 basechar 0
AnchorPoint: "Anchor-0" 582 1040 basechar 0
LayerCount: 2
Fore
SplineSet
871 -250 m 1,0,1
 861 -211 861 -211 856 -156.5 c 128,-1,2
 851 -102 851 -102 851 -52 c 1,3,4
 797 -140 797 -140 691.5 -205 c 128,-1,5
 586 -270 586 -270 425 -270 c 0,6,7
 274 -270 274 -270 183 -187.5 c 128,-1,8
 92 -105 92 -105 92 24 c 0,9,10
 92 169 92 169 224.5 261.5 c 128,-1,11
 357 354 357 354 592 354 c 2,12,-1
 851 354 l 1,13,-1
 851 512 l 2,14,15
 851 647 851 647 765 722.5 c 128,-1,16
 679 798 679 798 521 798 c 0,17,18
 423 798 423 798 344.5 763.5 c 128,-1,19
 266 729 266 729 220.5 669 c 128,-1,20
 175 609 175 609 175 534 c 1,21,-1
 121 536 l 1,22,23
 121 621 121 621 172.5 692.5 c 128,-1,24
 224 764 224 764 314.5 808 c 128,-1,25
 405 852 405 852 521 852 c 0,26,27
 690 852 690 852 797.5 766.5 c 128,-1,28
 905 681 905 681 905 510 c 2,29,-1
 905 -32 l 2,30,31
 905 -90 905 -90 912.5 -149 c 128,-1,32
 920 -208 920 -208 933 -241 c 1,33,-1
 933 -250 l 1,34,-1
 871 -250 l 1,0,1
425 -217 m 0,35,36
 582 -217 582 -217 689.5 -147 c 128,-1,37
 797 -77 797 -77 851 42 c 1,38,-1
 851 299 l 1,39,-1
 595 299 l 2,40,41
 386 299 386 299 266 221 c 128,-1,42
 146 143 146 143 146 20 c 0,43,44
 146 -78 146 -78 224 -147.5 c 128,-1,45
 302 -217 302 -217 425 -217 c 0,35,36
EndSplineSet
Substitution2: "'unic' Unicase lookup 2 subtable" A.unic
Substitution2: "'smcp' Lowercase to Small Capitals lookup 1 subtable" A.smcp
EndChar

StartChar: acute
Encoding: 180 180 313
Width: 511
VWidth: 1798
GlyphClass: 2
Flags: W
LayerCount: 2
Fore
SplineSet
126 1020 m 1,0,-1
 315 1286 l 1,1,-1
 381 1286 l 1,2,-1
 186 1020 l 1,3,-1
 126 1020 l 1,0,-1
EndSplineSet
EndChar

StartChar: acutecomb
Encoding: 769 769 314
Width: 0
VWidth: 1798
GlyphClass: 4
Flags: W
AnchorPoint: "Anchor-3" -566 1391 basemark 0
AnchorPoint: "Anchor-3" -566 1040 mark 0
AnchorPoint: "Anchor-0" -566 1040 mark 0
LayerCount: 2
Fore
SplineSet
-574 1020 m 1,0,-1
 -385 1286 l 1,1,-1
 -319 1286 l 1,2,-1
 -514 1020 l 1,3,-1
 -574 1020 l 1,0,-1
EndSplineSet
EndChar

StartChar: ae
Encoding: 230 230 316
Width: 1735
VWidth: 1798
GlyphClass: 2
Flags: W
AnchorPoint: "Anchor-0" 859 1041 basechar 0
LayerCount: 2
Fore
SplineSet
1268 -270 m 0,0,1
 1122 -270 1122 -270 1021 -202.5 c 128,-1,2
 920 -135 920 -135 868 -20 c 1,3,-1
 868 -32 l 1,4,-1
 869 -32 l 1,5,6
 845 -85 845 -85 790 -140.5 c 128,-1,7
 735 -196 735 -196 650 -233 c 128,-1,8
 565 -270 565 -270 448 -270 c 0,9,10
 277 -270 277 -270 185 -187 c 128,-1,11
 93 -104 93 -104 93 34 c 0,12,13
 93 188 93 188 202.5 284 c 128,-1,14
 312 380 312 380 523 380 c 2,15,-1
 813 380 l 1,16,-1
 813 470 l 2,17,18
 813 626 813 626 741.5 712 c 128,-1,19
 670 798 670 798 521 798 c 0,20,21
 355 798 355 798 264.5 719 c 128,-1,22
 174 640 174 640 174 521 c 1,23,-1
 121 528 l 1,24,25
 121 668 121 668 229 760 c 128,-1,26
 337 852 337 852 521 852 c 0,27,28
 658 852 658 852 747.5 780 c 128,-1,29
 837 708 837 708 861 565 c 1,30,31
 913 697 913 697 1017 774.5 c 128,-1,32
 1121 852 1121 852 1253 852 c 0,33,34
 1442 852 1442 852 1549.5 734 c 128,-1,35
 1657 616 1657 616 1657 410 c 2,36,-1
 1657 327 l 1,37,-1
 870 327 l 1,38,39
 870 321 870 321 870 314 c 2,40,-1
 870 250 l 2,41,42
 870 121 870 121 911.5 15 c 128,-1,43
 953 -91 953 -91 1041 -153.5 c 128,-1,44
 1129 -216 1129 -216 1268 -216 c 0,45,46
 1375 -216 1375 -216 1458.5 -180 c 128,-1,47
 1542 -144 1542 -144 1600 -86 c 1,48,-1
 1630 -128 l 1,49,50
 1577 -182 1577 -182 1494.5 -226 c 128,-1,51
 1412 -270 1412 -270 1268 -270 c 0,0,1
1253 798 m 0,52,53
 1144 798 1144 798 1063 743 c 128,-1,54
 982 688 982 688 933 594 c 128,-1,55
 884 500 884 500 873 382 c 1,56,-1
 1603 382 l 1,57,-1
 1603 414 l 2,58,59
 1603 522 1603 522 1563.5 609 c 128,-1,60
 1524 696 1524 696 1446.5 747 c 128,-1,61
 1369 798 1369 798 1253 798 c 0,52,53
447 -218 m 0,62,63
 542 -218 542 -218 620.5 -184.5 c 128,-1,64
 699 -151 699 -151 750 -105.5 c 128,-1,65
 801 -60 801 -60 813 -24 c 1,66,-1
 813 325 l 1,67,-1
 525 325 l 2,68,69
 396 325 396 325 312.5 284 c 128,-1,70
 229 243 229 243 188.5 176 c 128,-1,71
 148 109 148 109 148 30 c 0,72,73
 148 -85 148 -85 225 -151.5 c 128,-1,74
 302 -218 302 -218 447 -218 c 0,62,63
EndSplineSet
Substitution2: "'unic' Unicase lookup 2 subtable" AE
Substitution2: "'smcp' Lowercase to Small Capitals lookup 1 subtable" AE.smcp
EndChar

StartChar: afii57636
Encoding: 8362 8362 321
Width: 1545
GlyphClass: 2
Flags: W
LayerCount: 2
Fore
SplineSet
170 1082 m 1,0,-1
 608 1082 l 2,1,2
 772 1082 772 1082 862 989 c 128,-1,3
 952 896 952 896 952 660 c 2,4,-1
 952 340 l 1,5,-1
 898 340 l 1,6,-1
 898 660 l 2,7,8
 898 814 898 814 860.5 893 c 128,-1,9
 823 972 823 972 757 1000.5 c 128,-1,10
 691 1029 691 1029 605 1029 c 2,11,-1
 224 1029 l 1,12,-1
 224 0 l 1,13,-1
 170 0 l 1,14,-1
 170 1082 l 1,0,-1
1031 0 m 2,15,-1
 593 0 l 1,16,-1
 593 742 l 1,17,-1
 647 742 l 1,18,-1
 647 53 l 1,19,-1
 1028 53 l 2,20,21
 1114 53 1114 53 1180 81.5 c 128,-1,22
 1246 110 1246 110 1283.5 189.5 c 128,-1,23
 1321 269 1321 269 1321 422 c 2,24,-1
 1321 1082 l 1,25,-1
 1375 1082 l 1,26,-1
 1375 422 l 2,27,28
 1375 186 1375 186 1285 93 c 128,-1,29
 1195 0 1195 0 1031 0 c 2,15,-1
EndSplineSet
EndChar

StartChar: ampersand
Encoding: 38 38 325
Width: 1247
VWidth: 1798
GlyphClass: 2
Flags: W
LayerCount: 2
Fore
SplineSet
371 512 m 2,0,-1
 422 553 l 1,1,2
 343 651 343 651 300 737 c 128,-1,3
 257 823 257 823 257 917 c 0,4,5
 257 1054 257 1054 339 1140.5 c 128,-1,6
 421 1227 421 1227 562 1227 c 0,7,8
 696 1227 696 1227 767 1149.5 c 128,-1,9
 838 1072 838 1072 838 963 c 0,10,11
 838 902 838 902 805.5 846 c 128,-1,12
 773 790 773 790 728.5 744.5 c 128,-1,13
 684 699 684 699 646 668 c 2,14,-1
 495 547 l 1,15,-1
 969 8 l 1,16,17
 1022 82 1022 82 1053 176.5 c 128,-1,18
 1084 271 1084 271 1084 382 c 1,19,-1
 1139 382 l 1,20,21
 1139 252 1139 252 1103 150 c 128,-1,22
 1067 48 1067 48 1006 -34 c 1,23,-1
 1196 -250 l 1,24,-1
 1129 -250 l 1,25,-1
 973 -73 l 1,26,27
 889 -159 889 -159 784 -214.5 c 128,-1,28
 679 -270 679 -270 549 -270 c 0,29,30
 347 -270 347 -270 231 -169.5 c 128,-1,31
 115 -69 115 -69 115 102 c 0,32,33
 115 227 115 227 191.5 326 c 128,-1,34
 268 425 268 425 371 512 c 2,0,-1
312 919 m 0,35,36
 312 843 312 843 348.5 759.5 c 128,-1,37
 385 676 385 676 462 584 c 1,38,-1
 621 710 l 2,39,40
 685 760 685 760 733.5 825 c 128,-1,41
 782 890 782 890 782 963 c 0,42,43
 782 1046 782 1046 726 1109.5 c 128,-1,44
 670 1173 670 1173 562 1173 c 0,45,46
 440 1173 440 1173 376 1098 c 128,-1,47
 312 1023 312 1023 312 919 c 0,35,36
169 102 m 0,48,49
 169 20 169 20 210 -53 c 128,-1,50
 251 -126 251 -126 335.5 -171 c 128,-1,51
 420 -216 420 -216 549 -216 c 0,52,53
 659 -216 659 -216 760.5 -168 c 128,-1,54
 862 -120 862 -120 937 -33 c 1,55,-1
 488 475 l 2,56,57
 470 496 470 496 454 515 c 1,58,-1
 402 473 l 1,59,60
 303 387 303 387 253 319.5 c 128,-1,61
 203 252 203 252 186 199 c 128,-1,62
 169 146 169 146 169 102 c 0,48,49
EndSplineSet
Substitution2: "'smcp' Lowercase to Small Capitals lookup 1 subtable" ampersand.smcp
Substitution2: "'c2sc' Capitals to Small Capitals lookup 0 subtable" ampersand.smcp
Position2: "'cpsp' Capital Spacing lookup 0 subtable" dx=36 dy=0 dh=72 dv=0
EndChar

StartChar: ampersand.smcp
Encoding: 65718 -1 326
Width: 1247
GlyphClass: 2
Flags: W
LayerCount: 2
Fore
SplineSet
509 -20 m 0,0,1
 336 -20 336 -20 237 59 c 128,-1,2
 138 138 138 138 138 272 c 0,3,4
 138 371 138 371 191.5 438.5 c 128,-1,5
 245 506 245 506 333 571 c 2,6,-1
 429 642 l 1,7,8
 346 725 346 725 297.5 793 c 128,-1,9
 249 861 249 861 249 938 c 0,10,11
 249 1046 249 1046 318.5 1113.5 c 128,-1,12
 388 1181 388 1181 509 1181 c 0,13,14
 634 1181 634 1181 700 1114.5 c 128,-1,15
 766 1048 766 1048 766 955 c 0,16,17
 766 906 766 906 741.5 860 c 128,-1,18
 717 814 717 814 681.5 777.5 c 128,-1,19
 646 741 646 741 614 717 c 2,20,-1
 505 636 l 1,21,-1
 926 222 l 1,22,23
 976 284 976 284 1005 362.5 c 128,-1,24
 1034 441 1034 441 1034 532 c 1,25,-1
 1089 532 l 1,26,27
 1089 435 1089 435 1055.5 346.5 c 128,-1,28
 1022 258 1022 258 963 186 c 1,29,-1
 1152 0 l 1,30,-1
 1079 0 l 1,31,-1
 928 149 l 1,32,33
 851 69 851 69 743.5 24.5 c 128,-1,34
 636 -20 636 -20 509 -20 c 0,0,1
464 677 m 2,35,-1
 470 671 l 1,36,-1
 589 759 l 2,37,38
 642 797 642 797 676 847.5 c 128,-1,39
 710 898 710 898 710 955 c 0,40,41
 710 1023 710 1023 659 1075 c 128,-1,42
 608 1127 608 1127 509 1127 c 0,43,44
 409 1127 409 1127 356.5 1071.5 c 128,-1,45
 304 1016 304 1016 304 940 c 0,46,47
 304 881 304 881 345 817.5 c 128,-1,48
 386 754 386 754 464 677 c 2,35,-1
192 272 m 0,49,50
 192 180 192 180 270 107 c 128,-1,51
 348 34 348 34 509 34 c 0,52,53
 620 34 620 34 719.5 73.5 c 128,-1,54
 819 113 819 113 892 185 c 1,55,-1
 479 592 l 2,56,57
 470 600 470 600 464 606 c 1,58,-1
 368 535 l 2,59,60
 289 477 289 477 251.5 431 c 128,-1,61
 214 385 214 385 203 347 c 128,-1,62
 192 309 192 309 192 272 c 0,49,50
EndSplineSet
EndChar

StartChar: aogonek
Encoding: 261 261 327
Width: 1081
VWidth: 1798
GlyphClass: 2
Flags: W
AnchorPoint: "Anchor-1" 502 -250 basechar 0
AnchorPoint: "Anchor-0" 582 1040 basechar 0
LayerCount: 2
Fore
SplineSet
964 -601 m 1,0,1
 945 -616 945 -616 914.5 -630.5 c 128,-1,2
 884 -645 884 -645 838 -645 c 0,3,4
 771 -645 771 -645 731 -608.5 c 128,-1,5
 691 -572 691 -572 691 -496 c 0,6,7
 691 -430 691 -430 746.5 -364.5 c 128,-1,8
 802 -299 802 -299 870 -246 c 1,9,10
 860 -207 860 -207 855.5 -153.5 c 128,-1,11
 851 -100 851 -100 851 -52 c 1,12,13
 797 -140 797 -140 691.5 -205 c 128,-1,14
 586 -270 586 -270 425 -270 c 0,15,16
 274 -270 274 -270 183 -187.5 c 128,-1,17
 92 -105 92 -105 92 24 c 0,18,19
 92 169 92 169 224.5 261.5 c 128,-1,20
 357 354 357 354 592 354 c 2,21,-1
 851 354 l 1,22,-1
 851 512 l 2,23,24
 851 647 851 647 765 722.5 c 128,-1,25
 679 798 679 798 521 798 c 0,26,27
 423 798 423 798 344.5 763.5 c 128,-1,28
 266 729 266 729 220.5 669 c 128,-1,29
 175 609 175 609 175 534 c 1,30,-1
 121 536 l 1,31,32
 121 621 121 621 172.5 692.5 c 128,-1,33
 224 764 224 764 314.5 808 c 128,-1,34
 405 852 405 852 521 852 c 0,35,36
 690 852 690 852 797.5 766.5 c 128,-1,37
 905 681 905 681 905 510 c 2,38,-1
 905 -32 l 2,39,40
 905 -90 905 -90 912.5 -149 c 128,-1,41
 920 -208 920 -208 933 -241 c 1,42,-1
 933 -250 l 1,43,44
 862 -306 862 -306 803.5 -365 c 128,-1,45
 745 -424 745 -424 745 -496 c 0,46,47
 745 -533 745 -533 764 -562 c 128,-1,48
 783 -591 783 -591 838 -591 c 0,49,50
 878 -591 878 -591 904 -578.5 c 128,-1,51
 930 -566 930 -566 948 -553 c 1,52,-1
 964 -601 l 1,0,1
425 -217 m 0,53,54
 582 -217 582 -217 689.5 -147 c 128,-1,55
 797 -77 797 -77 851 42 c 1,56,-1
 851 299 l 1,57,-1
 595 299 l 2,58,59
 386 299 386 299 266 221 c 128,-1,60
 146 143 146 143 146 20 c 0,61,62
 146 -78 146 -78 224 -147.5 c 128,-1,63
 302 -217 302 -217 425 -217 c 0,53,54
EndSplineSet
Substitution2: "'locl' Localized Forms in Latin lookup 8 subtable" aogonek.NAV
Substitution2: "'unic' Unicase lookup 2 subtable" Aogonek.unic
Substitution2: "'smcp' Lowercase to Small Capitals lookup 1 subtable" Aogonek.smcp
EndChar

StartChar: approxequal
Encoding: 8776 8776 329
Width: 1154
GlyphClass: 2
Flags: W
LayerCount: 2
Fore
SplineSet
118 771 m 1,0,-1
 111 837 l 1,1,2
 158 905 158 905 220 944 c 128,-1,3
 282 983 282 983 347 983 c 0,4,5
 427 985 427 985 472.5 963.5 c 128,-1,6
 518 942 518 942 581 910 c 0,7,8
 640 880 640 880 684.5 858.5 c 128,-1,9
 729 837 729 837 803 837 c 0,10,11
 868 837 868 837 928 878 c 128,-1,12
 988 919 988 919 1035 987 c 1,13,-1
 1042 921 l 1,14,15
 995 853 995 853 933 814 c 128,-1,16
 871 775 871 775 806 775 c 0,17,18
 732 775 732 775 689.5 794.5 c 128,-1,19
 647 814 647 814 588 844 c 0,20,21
 525 876 525 876 477.5 899.5 c 128,-1,22
 430 923 430 923 350 921 c 0,23,24
 285 921 285 921 225 880 c 128,-1,25
 165 839 165 839 118 771 c 1,0,-1
107 383 m 1,26,-1
 101 447 l 1,27,28
 148 515 148 515 210 554 c 128,-1,29
 272 593 272 593 337 593 c 0,30,31
 417 595 417 595 462.5 573.5 c 128,-1,32
 508 552 508 552 571 520 c 0,33,34
 630 490 630 490 674.5 468.5 c 128,-1,35
 719 447 719 447 793 447 c 0,36,37
 858 447 858 447 918 488 c 128,-1,38
 978 529 978 529 1025 597 c 1,39,-1
 1031 533 l 1,40,41
 984 465 984 465 922 426 c 128,-1,42
 860 387 860 387 795 387 c 0,43,44
 721 387 721 387 678.5 406.5 c 128,-1,45
 636 426 636 426 577 456 c 0,46,47
 514 488 514 488 466.5 511.5 c 128,-1,48
 419 535 419 535 339 533 c 0,49,50
 274 533 274 533 214 492 c 128,-1,51
 154 451 154 451 107 383 c 1,26,-1
EndSplineSet
EndChar

StartChar: arabic_2dots
Encoding: 65720 -1 330
Width: 517
GlyphClass: 1
Flags: W
LayerCount: 2
Fore
SplineSet
367 166 m 1,0,-1
 432 102 l 1,1,-1
 367 36 l 1,2,-1
 302 102 l 1,3,-1
 367 166 l 1,0,-1
147 166 m 1,4,-1
 212 102 l 1,5,-1
 147 36 l 1,6,-1
 82 102 l 1,7,-1
 147 166 l 1,4,-1
EndSplineSet
EndChar

StartChar: arabic_3dots
Encoding: 65721 -1 331
Width: 528
GlyphClass: 1
Flags: W
LayerCount: 2
Fore
SplineSet
255 327 m 1,0,-1
 318 264 l 1,1,-1
 255 201 l 1,2,-1
 192 264 l 1,3,-1
 255 327 l 1,0,-1
376 129 m 1,4,-1
 439 66 l 1,5,-1
 376 3 l 1,6,-1
 312 66 l 1,7,-1
 376 129 l 1,4,-1
134 129 m 1,8,-1
 198 66 l 1,9,-1
 134 3 l 1,10,-1
 71 66 l 1,11,-1
 134 129 l 1,8,-1
EndSplineSet
EndChar

StartChar: arabic_3dots_a
Encoding: 65722 -1 332
Width: 528
GlyphClass: 1
Flags: W
LayerCount: 2
Fore
SplineSet
376 197 m 1,0,-1
 439 134 l 1,1,-1
 376 71 l 1,2,-1
 312 134 l 1,3,-1
 376 197 l 1,0,-1
134 197 m 1,4,-1
 198 134 l 1,5,-1
 134 71 l 1,6,-1
 71 134 l 1,7,-1
 134 197 l 1,4,-1
255 -1 m 1,8,-1
 318 -64 l 1,9,-1
 255 -127 l 1,10,-1
 192 -64 l 1,11,-1
 255 -1 l 1,8,-1
EndSplineSet
EndChar

StartChar: arabic_dot
Encoding: 65723 -1 333
Width: 197
GlyphClass: 1
Flags: W
LayerCount: 2
Fore
SplineSet
96 172 m 1,0,-1
 166 102 l 1,1,-1
 96 32 l 1,2,-1
 26 102 l 1,3,-1
 96 172 l 1,0,-1
EndSplineSet
EndChar

StartChar: arabic_gaf_bar
Encoding: 65724 -1 334
Width: 787
GlyphClass: 1
Flags: W
LayerCount: 2
Fore
SplineSet
-62 1596 m 1,0,-1
 -62 1645 l 1,1,-1
 668 1942 l 1,2,-1
 668 1893 l 1,3,-1
 -62 1596 l 1,0,-1
EndSplineSet
EndChar

StartChar: asciicircum
Encoding: 94 94 337
Width: 849
VWidth: 1798
GlyphClass: 2
Flags: W
LayerCount: 2
Fore
SplineSet
680 479 m 1,0,-1
 416 1132 l 1,1,-1
 150 479 l 1,2,-1
 91 479 l 1,3,-1
 390 1206 l 1,4,-1
 442 1206 l 1,5,-1
 741 479 l 1,6,-1
 680 479 l 1,0,-1
EndSplineSet
EndChar

StartChar: asciitilde
Encoding: 126 126 338
Width: 1412
VWidth: 1798
GlyphClass: 2
Flags: W
LayerCount: 2
Fore
SplineSet
1190 503 m 1,0,-1
 1246 502 l 1,1,2
 1246 421 1246 421 1216.5 350.5 c 128,-1,3
 1187 280 1187 280 1127.5 236.5 c 128,-1,4
 1068 193 1068 193 977 193 c 0,5,6
 887 193 887 193 823.5 231.5 c 128,-1,7
 760 270 760 270 679 343 c 0,8,9
 605 410 605 410 552.5 440 c 128,-1,10
 500 470 500 470 428 470 c 0,11,12
 328 470 328 470 271.5 405 c 128,-1,13
 215 340 215 340 215 212 c 1,14,-1
 160 212 l 1,15,16
 160 297 160 297 188.5 367.5 c 128,-1,17
 217 438 217 438 276.5 481 c 128,-1,18
 336 524 336 524 428 524 c 0,19,20
 519 524 519 524 584 484 c 128,-1,21
 649 444 649 444 728 374 c 0,22,23
 804 304 804 304 858 275 c 128,-1,24
 912 246 912 246 977 246 c 0,25,26
 1081 246 1081 246 1135.5 315.5 c 128,-1,27
 1190 385 1190 385 1190 503 c 1,0,-1
EndSplineSet
EndChar

StartChar: asterisk
Encoding: 42 42 339
Width: 856
VWidth: 1798
GlyphClass: 2
Flags: W
LayerCount: 2
Fore
SplineSet
159 443 m 1,0,-1
 393 767 l 1,1,-1
 30 891 l 1,2,-1
 48 945 l 1,3,-1
 410 812 l 1,4,-1
 411 1206 l 1,5,-1
 467 1206 l 1,6,-1
 460 811 l 1,7,-1
 812 954 l 1,8,-1
 832 901 l 1,9,-1
 472 764 l 1,10,-1
 721 447 l 1,11,-1
 674 414 l 1,12,-1
 432 736 l 1,13,-1
 204 411 l 1,14,-1
 159 443 l 1,0,-1
EndSplineSet
EndChar

StartChar: at
Encoding: 64 64 340
Width: 1902
VWidth: 1798
GlyphClass: 2
Flags: W
LayerCount: 2
Fore
SplineSet
1767 273 m 0,0,1
 1764 177 1764 177 1740.5 81 c 128,-1,2
 1717 -15 1717 -15 1672 -94.5 c 128,-1,3
 1627 -174 1627 -174 1559 -222 c 128,-1,4
 1491 -270 1491 -270 1397 -270 c 0,5,6
 1297 -270 1297 -270 1235 -208.5 c 128,-1,7
 1173 -147 1173 -147 1162 -40 c 1,8,9
 1051 -270 1051 -270 829 -270 c 0,10,11
 693 -270 693 -270 626.5 -144.5 c 128,-1,12
 560 -19 560 -19 578 186 c 0,13,14
 594 355 594 355 654.5 478.5 c 128,-1,15
 715 602 715 602 808.5 670 c 128,-1,16
 902 738 902 738 1015 738 c 0,17,18
 1109 738 1109 738 1162.5 704.5 c 128,-1,19
 1216 671 1216 671 1265 628 c 1,20,-1
 1216 43 l 2,21,22
 1209 -44 1209 -44 1227 -95.5 c 128,-1,23
 1245 -147 1245 -147 1276.5 -173 c 128,-1,24
 1308 -199 1308 -199 1342 -207 c 128,-1,25
 1376 -215 1376 -215 1400 -215 c 0,26,27
 1497 -215 1497 -215 1564 -151.5 c 128,-1,28
 1631 -88 1631 -88 1667.5 22.5 c 128,-1,29
 1704 133 1704 133 1710 273 c 0,30,31
 1724 528 1724 528 1654.5 714.5 c 128,-1,32
 1585 901 1585 901 1423.5 1002.5 c 128,-1,33
 1262 1104 1262 1104 997 1104 c 0,34,35
 777 1104 777 1104 598 997.5 c 128,-1,36
 419 891 419 891 308.5 694.5 c 128,-1,37
 198 498 198 498 184 228 c 0,38,39
 175 42 175 42 218.5 -117 c 128,-1,40
 262 -276 262 -276 355 -395.5 c 128,-1,41
 448 -515 448 -515 587.5 -581.5 c 128,-1,42
 727 -648 727 -648 910 -648 c 0,43,44
 998 -648 998 -648 1088.5 -626 c 128,-1,45
 1179 -604 1179 -604 1240 -568 c 1,46,-1
 1264 -614 l 1,47,48
 1200 -657 1200 -657 1097 -680 c 128,-1,49
 994 -703 994 -703 906 -703 c 0,50,51
 653 -703 653 -703 474.5 -590 c 128,-1,52
 296 -477 296 -477 206.5 -268 c 128,-1,53
 117 -59 117 -59 129 228 c 0,54,55
 142 514 142 514 253.5 723 c 128,-1,56
 365 932 365 932 557 1046.5 c 128,-1,57
 749 1161 749 1161 1001 1161 c 0,58,59
 1277 1161 1277 1161 1450 1052.5 c 128,-1,60
 1623 944 1623 944 1701 744.5 c 128,-1,61
 1779 545 1779 545 1767 273 c 0,0,1
632 186 m 0,62,63
 620 75 620 75 637 -16.5 c 128,-1,64
 654 -108 654 -108 701.5 -162 c 128,-1,65
 749 -216 749 -216 827 -216 c 0,66,67
 888 -216 888 -216 950 -192.5 c 128,-1,68
 1012 -169 1012 -169 1067.5 -102 c 128,-1,69
 1123 -35 1123 -35 1165 94 c 1,70,-1
 1208 601 l 1,71,72
 1176 639 1176 639 1127.5 661 c 128,-1,73
 1079 683 1079 683 1012 683 c 0,74,75
 925 683 925 683 844.5 630.5 c 128,-1,76
 764 578 764 578 707.5 468 c 128,-1,77
 651 358 651 358 632 186 c 0,62,63
EndSplineSet
EndChar

StartChar: b
Encoding: 98 98 342
Width: 1121
VWidth: 1798
GlyphClass: 2
Flags: W
AnchorPoint: "Anchor-1" 598 -260 basechar 0
AnchorPoint: "Anchor-0" 634 1361 basechar 0
LayerCount: 2
Fore
SplineSet
999 302 m 2,0,-1
 999 281 l 2,1,2
 999 116 999 116 951 -8 c 128,-1,3
 903 -132 903 -132 812 -201 c 128,-1,4
 721 -270 721 -270 593 -270 c 0,5,6
 460 -270 460 -270 367.5 -216 c 128,-1,7
 275 -162 275 -162 224 -79 c 1,8,-1
 224 -250 l 1,9,-1
 170 -250 l 1,10,-1
 170 1286 l 1,11,-1
 224 1286 l 1,12,-1
 224 636 l 1,13,14
 276 733 276 733 367.5 792.5 c 128,-1,15
 459 852 459 852 591 852 c 0,16,17
 784 852 784 852 891.5 705 c 128,-1,18
 999 558 999 558 999 302 c 2,0,-1
943 281 m 2,19,-1
 943 302 l 2,20,21
 943 446 943 446 905 558 c 128,-1,22
 867 670 867 670 789 734 c 128,-1,23
 711 798 711 798 592 798 c 0,24,25
 475 798 475 798 401.5 755 c 128,-1,26
 328 712 328 712 286 647.5 c 128,-1,27
 244 583 244 583 224 520 c 1,28,-1
 224 24 l 1,29,30
 261 -79 261 -79 352 -147.5 c 128,-1,31
 443 -216 443 -216 594 -216 c 0,32,33
 712 -216 712 -216 789.5 -151.5 c 128,-1,34
 867 -87 867 -87 905 25 c 128,-1,35
 943 137 943 137 943 281 c 2,19,-1
EndSplineSet
Substitution2: "'unic' Unicase lookup 2 subtable" B
Substitution2: "'smcp' Lowercase to Small Capitals lookup 1 subtable" B.smcp
EndChar

StartChar: backslash
Encoding: 92 92 343
Width: 774
VWidth: 1798
GlyphClass: 2
Flags: W
LayerCount: 2
Fore
SplineSet
665 -375 m 1,0,-1
 57 1206 l 1,1,-1
 115 1206 l 1,2,-1
 723 -375 l 1,3,-1
 665 -375 l 1,0,-1
EndSplineSet
EndChar

StartChar: bar
Encoding: 124 124 344
Width: 406
VWidth: 1798
GlyphClass: 2
Flags: W
LayerCount: 2
Fore
SplineSet
235 1206 m 1,0,-1
 235 -520 l 1,1,-1
 181 -520 l 1,2,-1
 181 1206 l 1,3,-1
 235 1206 l 1,0,-1
EndSplineSet
EndChar

StartChar: braceleft
Encoding: 123 123 345
Width: 660
VWidth: 1798
GlyphClass: 2
Flags: W
LayerCount: 2
Fore
SplineSet
662 -645 m 1,0,-1
 642 -691 l 1,1,2
 520 -652 520 -652 450.5 -584 c 128,-1,3
 381 -516 381 -516 352 -425.5 c 128,-1,4
 323 -335 323 -335 323 -230 c 2,5,-1
 323 15 l 2,6,7
 323 142 323 142 264.5 217.5 c 128,-1,8
 206 293 206 293 73 293 c 1,9,-1
 73 359 l 1,10,11
 206 359 206 359 264.5 434 c 128,-1,12
 323 509 323 509 323 635 c 2,13,-1
 323 882 l 2,14,15
 323 987 323 987 352 1078.5 c 128,-1,16
 381 1170 381 1170 450.5 1239.5 c 128,-1,17
 520 1309 520 1309 642 1347 c 1,18,-1
 657 1302 l 1,19,20
 509 1255 509 1255 443 1143 c 128,-1,21
 377 1031 377 1031 377 882 c 2,22,-1
 377 635 l 2,23,24
 377 522 377 522 327.5 437 c 128,-1,25
 278 352 278 352 166 326 c 1,26,27
 278 299 278 299 327.5 213.5 c 128,-1,28
 377 128 377 128 377 15 c 2,29,-1
 377 -230 l 2,30,31
 377 -381 377 -381 446 -488 c 128,-1,32
 515 -595 515 -595 662 -645 c 1,0,-1
EndSplineSet
EndChar

StartChar: braceright
Encoding: 125 125 346
Width: 660
VWidth: 1798
GlyphClass: 2
Flags: W
LayerCount: 2
Fore
SplineSet
19 -691 m 1,0,-1
 0 -645 l 1,1,2
 146 -595 146 -595 215 -488 c 128,-1,3
 284 -381 284 -381 284 -230 c 2,4,-1
 284 15 l 2,5,6
 284 128 284 128 333.5 213.5 c 128,-1,7
 383 299 383 299 495 326 c 1,8,9
 383 352 383 352 333.5 437 c 128,-1,10
 284 522 284 522 284 635 c 2,11,-1
 284 882 l 2,12,13
 284 1031 284 1031 218.5 1143 c 128,-1,14
 153 1255 153 1255 5 1302 c 1,15,-1
 19 1347 l 1,16,17
 142 1309 142 1309 211.5 1239.5 c 128,-1,18
 281 1170 281 1170 309.5 1078.5 c 128,-1,19
 338 987 338 987 338 882 c 2,20,-1
 338 635 l 2,21,22
 338 509 338 509 397 434 c 128,-1,23
 456 359 456 359 588 359 c 1,24,-1
 588 293 l 1,25,26
 456 293 456 293 397 217.5 c 128,-1,27
 338 142 338 142 338 15 c 2,28,-1
 338 -230 l 2,29,30
 338 -335 338 -335 309.5 -425.5 c 128,-1,31
 281 -516 281 -516 211.5 -584 c 128,-1,32
 142 -652 142 -652 19 -691 c 1,0,-1
EndSplineSet
EndChar

StartChar: bracketleft
Encoding: 91 91 347
Width: 439
VWidth: 1798
GlyphClass: 2
Flags: W
LayerCount: 2
Fore
SplineSet
464 1360 m 1,0,-1
 235 1360 l 1,1,-1
 235 -508 l 1,2,-1
 464 -508 l 1,3,-1
 464 -557 l 1,4,-1
 186 -557 l 1,5,-1
 186 1409 l 1,6,-1
 464 1409 l 1,7,-1
 464 1360 l 1,0,-1
EndSplineSet
Position2: "Single Positioning lookup 9 subtable" dx=0 dy=0 dh=100 dv=0
Position2: "Single Positioning lookup 8 subtable" dx=0 dy=0 dh=160 dv=0
EndChar

StartChar: bracketright
Encoding: 93 93 348
Width: 439
VWidth: 1798
GlyphClass: 2
Flags: W
LayerCount: 2
Fore
SplineSet
-8 1409 m 1,0,-1
 270 1409 l 1,1,-1
 270 -557 l 1,2,-1
 -8 -557 l 1,3,-1
 -8 -508 l 1,4,-1
 220 -508 l 1,5,-1
 220 1360 l 1,6,-1
 -8 1360 l 1,7,-1
 -8 1409 l 1,0,-1
EndSplineSet
EndChar

StartChar: breve
Encoding: 728 728 349
Width: 857
VWidth: 1798
GlyphClass: 2
Flags: W
LayerCount: 2
Fore
SplineSet
650 1236 m 1,0,-1
 704 1236 l 1,1,2
 704 1127 704 1127 630.5 1057.5 c 128,-1,3
 557 988 557 988 426 988 c 0,4,5
 296 988 296 988 221.5 1057.5 c 128,-1,6
 147 1127 147 1127 147 1236 c 1,7,-1
 201 1236 l 1,8,9
 201 1157 201 1157 251.5 1100.5 c 128,-1,10
 302 1044 302 1044 426 1044 c 0,11,12
 545 1044 545 1044 597.5 1101.5 c 128,-1,13
 650 1159 650 1159 650 1236 c 1,0,-1
EndSplineSet
EndChar

StartChar: brokenbar
Encoding: 166 166 350
Width: 398
VWidth: 1798
GlyphClass: 2
Flags: W
LayerCount: 2
Fore
SplineSet
226 1206 m 1,0,-1
 226 448 l 1,1,-1
 172 448 l 1,2,-1
 172 1206 l 1,3,-1
 226 1206 l 1,0,-1
226 -520 m 1,4,-1
 172 -520 l 1,5,-1
 172 232 l 1,6,-1
 226 232 l 1,7,-1
 226 -520 l 1,4,-1
EndSplineSet
EndChar

StartChar: bullet
Encoding: 8226 8226 351
Width: 635
GlyphClass: 2
Flags: W
LayerCount: 2
Fore
SplineSet
155 703 m 2,0,-1
 155 733 l 2,1,2
 155 802 155 802 200 847.5 c 128,-1,3
 245 893 245 893 321 893 c 0,4,5
 399 893 399 893 444 847 c 128,-1,6
 489 801 489 801 489 733 c 2,7,-1
 489 703 l 2,8,9
 489 635 489 635 444 590 c 128,-1,10
 399 545 399 545 322 545 c 256,11,12
 245 545 245 545 200 590 c 128,-1,13
 155 635 155 635 155 703 c 2,0,-1
EndSplineSet
EndChar

StartChar: c
Encoding: 99 99 352
Width: 1039
VWidth: 1798
GlyphClass: 2
Flags: W
AnchorPoint: "Anchor-1" 533 -260 basechar 0
AnchorPoint: "Anchor-0" 533 1040 basechar 0
LayerCount: 2
Fore
SplineSet
539 -216 m 0,0,1
 624 -216 624 -216 700.5 -185.5 c 128,-1,2
 777 -155 777 -155 828.5 -90 c 128,-1,3
 880 -25 880 -25 886 78 c 1,4,-1
 940 78 l 1,5,6
 935 -32 935 -32 879 -110 c 128,-1,7
 823 -188 823 -188 734 -229 c 128,-1,8
 645 -270 645 -270 539 -270 c 0,9,10
 399 -270 399 -270 300 -201 c 128,-1,11
 201 -132 201 -132 149 -10 c 128,-1,12
 97 112 97 112 97 270 c 2,13,-1
 97 312 l 2,14,15
 97 471 97 471 149 592.5 c 128,-1,16
 201 714 201 714 299.5 783 c 128,-1,17
 398 852 398 852 537 852 c 0,18,19
 642 852 642 852 731.5 809.5 c 128,-1,20
 821 767 821 767 878 683 c 128,-1,21
 935 599 935 599 940 475 c 1,22,-1
 886 475 l 1,23,24
 881 583 881 583 831.5 654.5 c 128,-1,25
 782 726 782 726 704 762 c 128,-1,26
 626 798 626 798 537 798 c 0,27,28
 405 798 405 798 319.5 732.5 c 128,-1,29
 234 667 234 667 192.5 557 c 128,-1,30
 151 447 151 447 151 312 c 2,31,-1
 151 270 l 2,32,33
 151 135 151 135 192.5 24.5 c 128,-1,34
 234 -86 234 -86 320 -151 c 128,-1,35
 406 -216 406 -216 539 -216 c 0,0,1
EndSplineSet
Substitution2: "'unic' Unicase lookup 2 subtable" C
Substitution2: "'smcp' Lowercase to Small Capitals lookup 1 subtable" C.smcp
EndChar

StartChar: caron
Encoding: 711 711 354
Width: 764
VWidth: 1798
GlyphClass: 2
Flags: W
LayerCount: 2
Fore
SplineSet
203 1256 m 1,0,-1
 396 1039 l 1,1,-1
 590 1256 l 1,2,-1
 643 1256 l 1,3,-1
 643 1243 l 1,4,-1
 425 993 l 1,5,-1
 366 993 l 1,6,-1
 146 1245 l 1,7,-1
 146 1256 l 1,8,-1
 203 1256 l 1,0,-1
EndSplineSet
EndChar

StartChar: cedilla
Encoding: 184 184 358
Width: 490
VWidth: 1798
GlyphClass: 2
Flags: W
LayerCount: 2
Fore
SplineSet
154 -250 m 1,0,-1
 207 -250 l 1,1,-1
 196 -326 l 1,2,3
 263 -333 263 -333 318 -368.5 c 128,-1,4
 373 -404 373 -404 373 -495 c 0,5,6
 373 -580 373 -580 296.5 -632.5 c 128,-1,7
 220 -685 220 -685 88 -685 c 1,8,-1
 81 -636 l 1,9,10
 135 -636 135 -636 189.5 -621.5 c 128,-1,11
 244 -607 244 -607 281 -575.5 c 128,-1,12
 318 -544 318 -544 318 -495 c 0,13,14
 318 -429 318 -429 270 -405 c 128,-1,15
 222 -381 222 -381 129 -371 c 1,16,-1
 154 -250 l 1,0,-1
EndSplineSet
EndChar

StartChar: cent
Encoding: 162 162 359
Width: 1110
VWidth: 1798
GlyphClass: 2
Flags: W
LayerCount: 2
Fore
SplineSet
576 -216 m 0,0,1
 661 -216 661 -216 737.5 -185.5 c 128,-1,2
 814 -155 814 -155 865.5 -90 c 128,-1,3
 917 -25 917 -25 923 78 c 1,4,-1
 977 78 l 1,5,6
 972 -27 972 -27 920.5 -103 c 128,-1,7
 869 -179 869 -179 786 -221.5 c 128,-1,8
 703 -264 703 -264 604 -269 c 1,9,-1
 604 -495 l 1,10,-1
 549 -495 l 1,11,-1
 549 -269 l 1,12,13
 417 -262 417 -262 324 -192 c 128,-1,14
 231 -122 231 -122 182.5 -2.5 c 128,-1,15
 134 117 134 117 134 270 c 2,16,-1
 134 312 l 2,17,18
 134 466 134 466 183 585 c 128,-1,19
 232 704 232 704 324.5 774.5 c 128,-1,20
 417 845 417 845 549 851 c 1,21,-1
 549 1068 l 1,22,-1
 604 1068 l 1,23,-1
 604 851 l 1,24,25
 702 845 702 845 785 800.5 c 128,-1,26
 868 756 868 756 920 674.5 c 128,-1,27
 972 593 972 593 977 475 c 1,28,-1
 923 475 l 1,29,30
 918 583 918 583 868.5 654.5 c 128,-1,31
 819 726 819 726 741 762 c 128,-1,32
 663 798 663 798 574 798 c 0,33,34
 442 798 442 798 356.5 732.5 c 128,-1,35
 271 667 271 667 229.5 557 c 128,-1,36
 188 447 188 447 188 312 c 2,37,-1
 188 270 l 2,38,39
 188 135 188 135 229.5 24.5 c 128,-1,40
 271 -86 271 -86 357 -151 c 128,-1,41
 443 -216 443 -216 576 -216 c 0,0,1
EndSplineSet
EndChar

StartChar: circumflex
Encoding: 710 710 360
Width: 796
VWidth: 1798
GlyphClass: 2
Flags: W
LayerCount: 2
Fore
SplineSet
422 1267 m 1,0,-1
 656 1024 l 1,1,-1
 656 1014 l 1,2,-1
 588 1014 l 1,3,-1
 401 1210 l 1,4,-1
 216 1014 l 1,5,-1
 152 1014 l 1,6,-1
 152 1028 l 1,7,-1
 382 1267 l 1,8,-1
 422 1267 l 1,0,-1
EndSplineSet
EndChar

StartChar: colon
Encoding: 58 58 361
Width: 496
VWidth: 1798
GlyphClass: 2
Flags: W
LayerCount: 2
Fore
SplineSet
178 348 m 0,0,1
 178 377 178 377 199 398 c 128,-1,2
 220 419 220 419 248 419 c 256,3,4
 276 419 276 419 297 398 c 128,-1,5
 318 377 318 377 318 348 c 0,6,7
 318 320 318 320 297.5 299 c 128,-1,8
 277 278 277 278 248 278 c 0,9,10
 218 278 218 278 198 297.5 c 128,-1,11
 178 317 178 317 178 348 c 0,0,1
178 -180 m 0,12,13
 178 -151 178 -151 199 -130 c 128,-1,14
 220 -109 220 -109 248 -109 c 256,15,16
 276 -109 276 -109 297 -130 c 128,-1,17
 318 -151 318 -151 318 -180 c 0,18,19
 318 -208 318 -208 297.5 -229 c 128,-1,20
 277 -250 277 -250 248 -250 c 0,21,22
 218 -250 218 -250 198 -230.5 c 128,-1,23
 178 -211 178 -211 178 -180 c 0,12,13
EndSplineSet
EndChar

StartChar: comma
Encoding: 44 44 362
Width: 383
VWidth: 1798
GlyphClass: 2
Flags: W
LayerCount: 2
Fore
SplineSet
235 -91 m 1,0,-1
 235 -223 l 2,1,2
 235 -315 235 -315 205.5 -385 c 128,-1,3
 176 -455 176 -455 129 -505 c 1,4,-1
 92 -473 l 1,5,6
 137 -414 137 -414 159 -358 c 128,-1,7
 181 -302 181 -302 181 -225 c 2,8,-1
 181 -91 l 1,9,-1
 235 -91 l 1,0,-1
EndSplineSet
EndChar

StartChar: commaaccent
Encoding: 65725 -1 363
Width: 459
GlyphClass: 1
Flags: W
LayerCount: 2
Fore
SplineSet
274 116 m 1,0,-1
 274 39 l 2,1,2
 274 -40 274 -40 250 -100 c 128,-1,3
 226 -160 226 -160 188 -203 c 1,4,-1
 151 -171 l 1,5,6
 186 -121 186 -121 203 -74.5 c 128,-1,7
 220 -28 220 -28 220 37 c 2,8,-1
 220 116 l 1,9,-1
 274 116 l 1,0,-1
EndSplineSet
EndChar

StartChar: commaaccentrotate
Encoding: 65726 -1 364
Width: 400
GlyphClass: 1
Flags: W
LayerCount: 2
Fore
SplineSet
143 1244 m 1,0,-1
 143 1372 l 2,1,2
 143 1431 143 1431 161 1476 c 128,-1,3
 179 1521 179 1521 202 1560 c 1,4,-1
 246 1544 l 1,5,6
 224 1498 224 1498 210.5 1459.5 c 128,-1,7
 197 1421 197 1421 197 1376 c 2,8,-1
 197 1244 l 1,9,-1
 143 1244 l 1,0,-1
EndSplineSet
EndChar

StartChar: copyright
Encoding: 169 169 365
Width: 1666
VWidth: 1798
GlyphClass: 2
Flags: W
LayerCount: 2
Fore
SplineSet
123 479 m 256,0,1
 123 638 123 638 178.5 774 c 128,-1,2
 234 910 234 910 331.5 1011.5 c 128,-1,3
 429 1113 429 1113 557.5 1169.5 c 128,-1,4
 686 1226 686 1226 833 1226 c 256,5,6
 980 1226 980 1226 1108.5 1169.5 c 128,-1,7
 1237 1113 1237 1113 1335 1011.5 c 128,-1,8
 1433 910 1433 910 1488 774 c 128,-1,9
 1543 638 1543 638 1543 479 c 256,10,11
 1543 320 1543 320 1488 184 c 128,-1,12
 1433 48 1433 48 1335 -54.5 c 128,-1,13
 1237 -157 1237 -157 1108.5 -214 c 128,-1,14
 980 -271 980 -271 833 -271 c 256,15,16
 686 -271 686 -271 557.5 -214 c 128,-1,17
 429 -157 429 -157 331.5 -54.5 c 128,-1,18
 234 48 234 48 178.5 184 c 128,-1,19
 123 320 123 320 123 479 c 256,0,1
179 479 m 0,20,21
 179 334 179 334 230 207.5 c 128,-1,22
 281 81 281 81 371.5 -14 c 128,-1,23
 462 -109 462 -109 580 -162.5 c 128,-1,24
 698 -216 698 -216 833 -216 c 0,25,26
 967 -216 967 -216 1085.5 -162.5 c 128,-1,27
 1204 -109 1204 -109 1294.5 -14 c 128,-1,28
 1385 81 1385 81 1436 207.5 c 128,-1,29
 1487 334 1487 334 1487 479 c 0,30,31
 1487 625 1487 625 1436 750.5 c 128,-1,32
 1385 876 1385 876 1294.5 970.5 c 128,-1,33
 1204 1065 1204 1065 1085.5 1118 c 128,-1,34
 967 1171 967 1171 833 1171 c 0,35,36
 698 1171 698 1171 580 1118 c 128,-1,37
 462 1065 462 1065 371.5 970.5 c 128,-1,38
 281 876 281 876 230 750.5 c 128,-1,39
 179 625 179 625 179 479 c 0,20,21
1072 366 m 1,40,-1
 1124 366 l 1,41,42
 1124 209 1124 209 1043 130.5 c 128,-1,43
 962 52 962 52 826 52 c 0,44,45
 683 52 683 52 594.5 159.5 c 128,-1,46
 506 267 506 267 506 439 c 2,47,-1
 506 518 l 2,48,49
 506 690 506 690 594.5 797.5 c 128,-1,50
 683 905 683 905 826 905 c 0,51,52
 962 905 962 905 1043.5 827 c 128,-1,53
 1125 749 1125 749 1125 592 c 1,54,-1
 1073 592 l 1,55,56
 1073 723 1073 723 1009 787.5 c 128,-1,57
 945 852 945 852 826 852 c 0,58,59
 742 852 742 852 682.5 807.5 c 128,-1,60
 623 763 623 763 592 687.5 c 128,-1,61
 561 612 561 612 561 519 c 2,62,-1
 561 439 l 2,63,64
 561 299 561 299 630 203 c 128,-1,65
 699 107 699 107 826 107 c 0,66,67
 945 107 945 107 1008.5 169.5 c 128,-1,68
 1072 232 1072 232 1072 366 c 1,40,-1
EndSplineSet
EndChar

StartChar: crossbar
Encoding: 65727 -1 366
Width: 811
GlyphClass: 1
Flags: W
LayerCount: 2
Fore
SplineSet
695 775 m 1,0,-1
 695 721 l 1,1,-1
 108 721 l 1,2,-1
 108 775 l 1,3,-1
 695 775 l 1,0,-1
EndSplineSet
EndChar

StartChar: currency
Encoding: 164 164 367
Width: 1502
VWidth: 1798
GlyphClass: 2
Flags: W
LayerCount: 2
Fore
SplineSet
149 358 m 0,0,1
 149 483 149 483 190 591 c 128,-1,2
 231 699 231 699 303 782 c 1,3,-1
 114 975 l 1,4,-1
 154 1014 l 1,5,-1
 342 822 l 1,6,7
 422 898 422 898 525 941 c 128,-1,8
 628 984 628 984 745 984 c 256,9,10
 862 984 862 984 965.5 940.5 c 128,-1,11
 1069 897 1069 897 1148 821 c 1,12,-1
 1339 1015 l 1,13,-1
 1380 975 l 1,14,-1
 1188 779 l 1,15,16
 1258 697 1258 697 1298.5 589 c 128,-1,17
 1339 481 1339 481 1339 358 c 0,18,19
 1339 239 1339 239 1301.5 134.5 c 128,-1,20
 1264 30 1264 30 1198 -51 c 1,21,-1
 1380 -237 l 1,22,-1
 1339 -277 l 1,23,-1
 1160 -94 l 1,24,25
 1079 -176 1079 -176 972.5 -223 c 128,-1,26
 866 -270 866 -270 745 -270 c 256,27,28
 624 -270 624 -270 517.5 -223.5 c 128,-1,29
 411 -177 411 -177 331 -96 c 1,30,-1
 154 -276 l 1,31,-1
 114 -237 l 1,32,-1
 293 -54 l 1,33,34
 226 28 226 28 187.5 133 c 128,-1,35
 149 238 149 238 149 358 c 0,0,1
204 358 m 256,36,37
 204 239 204 239 246.5 134.5 c 128,-1,38
 289 30 289 30 363.5 -49 c 128,-1,39
 438 -128 438 -128 536 -172.5 c 128,-1,40
 634 -217 634 -217 745 -217 c 256,41,42
 856 -217 856 -217 953.5 -172.5 c 128,-1,43
 1051 -128 1051 -128 1125.5 -49 c 128,-1,44
 1200 30 1200 30 1242.5 134.5 c 128,-1,45
 1285 239 1285 239 1285 358 c 256,46,47
 1285 477 1285 477 1242.5 581 c 128,-1,48
 1200 685 1200 685 1125.5 763.5 c 128,-1,49
 1051 842 1051 842 953.5 886.5 c 128,-1,50
 856 931 856 931 745 931 c 256,51,52
 634 931 634 931 536 886.5 c 128,-1,53
 438 842 438 842 363.5 763.5 c 128,-1,54
 289 685 289 685 246.5 581 c 128,-1,55
 204 477 204 477 204 358 c 256,36,37
EndSplineSet
EndChar

StartChar: d
Encoding: 100 100 368
Width: 1121
VWidth: 1798
GlyphClass: 2
Flags: W
AnchorPoint: "Anchor-1" 617 -250 basechar 0
AnchorPoint: "Anchor-0" 549 1362 basechar 0
LayerCount: 2
Fore
SplineSet
122 281 m 2,0,-1
 122 302 l 2,1,2
 122 558 122 558 229.5 705 c 128,-1,3
 337 852 337 852 530 852 c 0,4,5
 664 852 664 852 755 791.5 c 128,-1,6
 846 731 846 731 897 633 c 1,7,-1
 897 1286 l 1,8,-1
 951 1286 l 1,9,-1
 951 -250 l 1,10,-1
 897 -250 l 1,11,-1
 897 -76 l 1,12,13
 847 -160 847 -160 754.5 -215 c 128,-1,14
 662 -270 662 -270 528 -270 c 0,15,16
 400 -270 400 -270 309 -201 c 128,-1,17
 218 -132 218 -132 170 -8 c 128,-1,18
 122 116 122 116 122 281 c 2,0,-1
178 302 m 2,19,-1
 178 281 l 2,20,21
 178 137 178 137 216 25 c 128,-1,22
 254 -87 254 -87 331.5 -151.5 c 128,-1,23
 409 -216 409 -216 527 -216 c 0,24,25
 676 -216 676 -216 767.5 -149 c 128,-1,26
 859 -82 859 -82 897 19 c 1,27,-1
 897 525 l 1,28,29
 876 588 876 588 833.5 651 c 128,-1,30
 791 714 791 714 717.5 756 c 128,-1,31
 644 798 644 798 529 798 c 0,32,33
 410 798 410 798 332 734 c 128,-1,34
 254 670 254 670 216 558 c 128,-1,35
 178 446 178 446 178 302 c 2,19,-1
EndSplineSet
Substitution2: "'unic' Unicase lookup 2 subtable" D
Substitution2: "'smcp' Lowercase to Small Capitals lookup 1 subtable" D.smcp
EndChar

StartChar: dagger
Encoding: 8224 8224 369
Width: 1126
GlyphClass: 2
Flags: W
LayerCount: 2
Fore
SplineSet
1055 1082 m 1,0,-1
 1055 1024 l 1,1,-1
 594 1024 l 1,2,-1
 594 0 l 1,3,-1
 540 0 l 1,4,-1
 540 1024 l 1,5,-1
 65 1024 l 1,6,-1
 65 1082 l 1,7,-1
 540 1082 l 1,8,-1
 540 1456 l 1,9,-1
 594 1456 l 1,10,-1
 594 1082 l 1,11,-1
 1055 1082 l 1,0,-1
EndSplineSet
EndChar

StartChar: daggerdbl
Encoding: 8225 8225 370
Width: 1141
GlyphClass: 2
Flags: W
LayerCount: 2
Fore
SplineSet
1071 54 m 1,0,-1
 1071 0 l 1,1,-1
 590 0 l 1,2,-1
 590 -416 l 1,3,-1
 535 -416 l 1,4,-1
 535 0 l 1,5,-1
 82 0 l 1,6,-1
 82 54 l 1,7,-1
 535 54 l 1,8,-1
 535 1027 l 1,9,-1
 82 1027 l 1,10,-1
 82 1082 l 1,11,-1
 535 1082 l 1,12,-1
 535 1456 l 1,13,-1
 590 1456 l 1,14,-1
 590 1082 l 1,15,-1
 1071 1082 l 1,16,-1
 1071 1027 l 1,17,-1
 590 1027 l 1,18,-1
 590 54 l 1,19,-1
 1071 54 l 1,0,-1
EndSplineSet
EndChar

StartChar: dcroat
Encoding: 273 273 372
Width: 1121
VWidth: 1798
GlyphClass: 2
Flags: W
AnchorPoint: "Anchor-1" 617 -250 basechar 0
AnchorPoint: "Anchor-0" 549 1361 basechar 0
LayerCount: 2
Fore
SplineSet
122 281 m 2,0,-1
 122 302 l 2,1,2
 122 558 122 558 229.5 705 c 128,-1,3
 337 852 337 852 530 852 c 0,4,5
 664 852 664 852 755 791.5 c 128,-1,6
 846 731 846 731 897 633 c 1,7,-1
 897 1031 l 1,8,-1
 524 1031 l 1,9,-1
 524 1085 l 1,10,-1
 897 1085 l 1,11,-1
 897 1286 l 1,12,-1
 951 1286 l 1,13,-1
 951 1085 l 1,14,-1
 1111 1085 l 1,15,-1
 1111 1031 l 1,16,-1
 951 1031 l 1,17,-1
 951 -250 l 1,18,-1
 897 -250 l 1,19,-1
 897 -76 l 1,20,21
 847 -160 847 -160 754.5 -215 c 128,-1,22
 662 -270 662 -270 528 -270 c 0,23,24
 400 -270 400 -270 309 -201 c 128,-1,25
 218 -132 218 -132 170 -8 c 128,-1,26
 122 116 122 116 122 281 c 2,0,-1
178 302 m 2,27,-1
 178 281 l 2,28,29
 178 137 178 137 216 25 c 128,-1,30
 254 -87 254 -87 331.5 -151.5 c 128,-1,31
 409 -216 409 -216 527 -216 c 0,32,33
 676 -216 676 -216 767.5 -149 c 128,-1,34
 859 -82 859 -82 897 19 c 1,35,-1
 897 525 l 1,36,37
 876 588 876 588 833.5 651 c 128,-1,38
 791 714 791 714 717.5 756 c 128,-1,39
 644 798 644 798 529 798 c 0,40,41
 410 798 410 798 332 734 c 128,-1,42
 254 670 254 670 216 558 c 128,-1,43
 178 446 178 446 178 302 c 2,27,-1
EndSplineSet
Substitution2: "'unic' Unicase lookup 2 subtable" Dcroat
Substitution2: "'smcp' Lowercase to Small Capitals lookup 1 subtable" Dcroat.smcp
EndChar

StartChar: degree
Encoding: 176 176 373
Width: 783
VWidth: 1798
GlyphClass: 2
Flags: W
LayerCount: 2
Fore
SplineSet
156 986 m 256,0,1
 156 1052 156 1052 188 1106.5 c 128,-1,2
 220 1161 220 1161 273.5 1193.5 c 128,-1,3
 327 1226 327 1226 392 1226 c 0,4,5
 456 1226 456 1226 508.5 1193.5 c 128,-1,6
 561 1161 561 1161 592.5 1106.5 c 128,-1,7
 624 1052 624 1052 624 986 c 256,8,9
 624 920 624 920 592.5 866 c 128,-1,10
 561 812 561 812 508.5 780.5 c 128,-1,11
 456 749 456 749 392 749 c 0,12,13
 327 749 327 749 273.5 780.5 c 128,-1,14
 220 812 220 812 188 866 c 128,-1,15
 156 920 156 920 156 986 c 256,0,1
211 986 m 0,16,17
 211 907 211 907 263 856 c 128,-1,18
 315 805 315 805 392 805 c 256,19,20
 469 805 469 805 518.5 856 c 128,-1,21
 568 907 568 907 568 986 c 0,22,23
 568 1066 568 1066 518.5 1118.5 c 128,-1,24
 469 1171 469 1171 392 1171 c 256,25,26
 315 1171 315 1171 263 1118.5 c 128,-1,27
 211 1066 211 1066 211 986 c 0,16,17
EndSplineSet
EndChar

StartChar: dieresis
Encoding: 168 168 374
Width: 906
VWidth: 1798
GlyphClass: 2
Flags: W
LayerCount: 2
Fore
SplineSet
174 1171 m 256,0,1
 174 1194 174 1194 190 1210.5 c 128,-1,2
 206 1227 206 1227 229 1227 c 256,3,4
 252 1227 252 1227 268.5 1210.5 c 128,-1,5
 285 1194 285 1194 285 1171 c 256,6,7
 285 1148 285 1148 268.5 1132 c 128,-1,8
 252 1116 252 1116 229 1116 c 256,9,10
 206 1116 206 1116 190 1132 c 128,-1,11
 174 1148 174 1148 174 1171 c 256,0,1
619 1171 m 256,12,13
 619 1194 619 1194 635 1210.5 c 128,-1,14
 651 1227 651 1227 674 1227 c 256,15,16
 697 1227 697 1227 713.5 1210.5 c 128,-1,17
 730 1194 730 1194 730 1171 c 256,18,19
 730 1148 730 1148 713.5 1132 c 128,-1,20
 697 1116 697 1116 674 1116 c 256,21,22
 651 1116 651 1116 635 1132 c 128,-1,23
 619 1148 619 1148 619 1171 c 256,12,13
EndSplineSet
EndChar

StartChar: divide
Encoding: 247 247 375
Width: 1110
VWidth: 1798
GlyphClass: 2
Flags: W
LayerCount: 2
Fore
SplineSet
500 551 m 0,0,1
 500 575 500 575 518 593 c 128,-1,2
 536 611 536 611 559 611 c 256,3,4
 582 611 582 611 600 593 c 128,-1,5
 618 575 618 575 618 551 c 256,6,7
 618 527 618 527 600.5 509.5 c 128,-1,8
 583 492 583 492 559 492 c 0,9,10
 534 492 534 492 517 508.5 c 128,-1,11
 500 525 500 525 500 551 c 0,0,1
165 249 m 1,12,-1
 165 296 l 1,13,-1
 945 296 l 1,14,-1
 945 249 l 1,15,-1
 165 249 l 1,12,-1
500 -11 m 0,16,17
 500 13 500 13 518 31 c 128,-1,18
 536 49 536 49 559 49 c 256,19,20
 582 49 582 49 600 31 c 128,-1,21
 618 13 618 13 618 -11 c 256,22,23
 618 -35 618 -35 600.5 -52.5 c 128,-1,24
 583 -70 583 -70 559 -70 c 0,25,26
 534 -70 534 -70 517 -53.5 c 128,-1,27
 500 -37 500 -37 500 -11 c 0,16,17
EndSplineSet
EndChar

StartChar: dollar
Encoding: 36 36 376
Width: 1121
VWidth: 1798
GlyphClass: 2
Flags: W
LayerCount: 2
Fore
SplineSet
947 94 m 0,0,1
 947 181 947 181 913.5 242 c 128,-1,2
 880 303 880 303 799 352 c 128,-1,3
 718 401 718 401 576 452 c 0,4,5
 450 495 450 495 358.5 543 c 128,-1,6
 267 591 267 591 217.5 665.5 c 128,-1,7
 168 740 168 740 168 860 c 0,8,9
 168 1020 168 1020 272.5 1119.5 c 128,-1,10
 377 1219 377 1219 554 1227 c 1,11,-1
 554 1413 l 1,12,-1
 609 1413 l 1,13,-1
 609 1226 l 1,14,15
 789 1218 789 1218 891 1107.5 c 128,-1,16
 993 997 993 997 993 797 c 1,17,-1
 939 797 l 1,18,19
 939 958 939 958 847 1066 c 128,-1,20
 755 1174 755 1174 579 1174 c 0,21,22
 457 1174 457 1174 377.5 1129 c 128,-1,23
 298 1084 298 1084 260 1012.5 c 128,-1,24
 222 941 222 941 222 862 c 0,25,26
 222 780 222 780 250 719 c 128,-1,27
 278 658 278 658 358 607 c 128,-1,28
 438 556 438 556 593 504 c 0,29,30
 716 462 716 462 807.5 413.5 c 128,-1,31
 899 365 899 365 950 290.5 c 128,-1,32
 1001 216 1001 216 1001 96 c 0,33,34
 1001 -66 1001 -66 896.5 -163.5 c 128,-1,35
 792 -261 792 -261 620 -270 c 1,36,-1
 620 -458 l 1,37,-1
 565 -458 l 1,38,-1
 565 -271 l 1,39,40
 454 -267 454 -267 352.5 -225.5 c 128,-1,41
 251 -184 251 -184 186 -91 c 128,-1,42
 121 2 121 2 121 159 c 1,43,-1
 175 159 l 1,44,45
 175 51 175 51 212 -22 c 128,-1,46
 249 -95 249 -95 309.5 -138 c 128,-1,47
 370 -181 370 -181 442.5 -199.5 c 128,-1,48
 515 -218 515 -218 586 -218 c 0,49,50
 700 -218 700 -218 780.5 -173.5 c 128,-1,51
 861 -129 861 -129 904 -57.5 c 128,-1,52
 947 14 947 14 947 94 c 0,0,1
EndSplineSet
Substitution2: "'c2sc' Capitals to Small Capitals lookup 0 subtable" dollar.smcp
Position2: "'cpsp' Capital Spacing lookup 0 subtable" dx=36 dy=0 dh=72 dv=0
EndChar

StartChar: dollar.smcp
Encoding: 65728 -1 377
Width: 1041
GlyphClass: 2
Flags: W
LayerCount: 2
Fore
SplineSet
914 281 m 0,0,1
 914 387 914 387 829.5 451 c 128,-1,2
 745 515 745 515 535 566 c 0,3,4
 407 598 407 598 314.5 638 c 128,-1,5
 222 678 222 678 172 738 c 128,-1,6
 122 798 122 798 122 891 c 0,7,8
 122 977 122 977 172.5 1041 c 128,-1,9
 223 1105 223 1105 311.5 1141 c 128,-1,10
 400 1177 400 1177 512 1181 c 1,11,-1
 512 1395 l 1,12,-1
 566 1395 l 1,13,-1
 566 1180 l 1,14,15
 681 1175 681 1175 769 1129.5 c 128,-1,16
 857 1084 857 1084 906.5 1008 c 128,-1,17
 956 932 956 932 956 835 c 1,18,-1
 902 835 l 1,19,20
 902 960 902 960 803 1043 c 128,-1,21
 704 1126 704 1126 537 1126 c 0,22,23
 363 1126 363 1126 269 1056 c 128,-1,24
 175 986 175 986 175 893 c 0,25,26
 175 833 175 833 207.5 784 c 128,-1,27
 240 735 240 735 321.5 695 c 128,-1,28
 403 655 403 655 550 620 c 0,29,30
 674 590 674 590 768.5 548.5 c 128,-1,31
 863 507 863 507 916 443 c 128,-1,32
 969 379 969 379 969 282 c 0,33,34
 969 190 969 190 915 124.5 c 128,-1,35
 861 59 861 59 769.5 23.5 c 128,-1,36
 678 -12 678 -12 566 -16 c 1,37,-1
 566 -237 l 1,38,-1
 512 -237 l 1,39,-1
 512 -15 l 1,40,41
 409 -11 409 -11 310 24 c 128,-1,42
 211 59 211 59 146.5 133 c 128,-1,43
 82 207 82 207 82 329 c 1,44,-1
 135 329 l 1,45,46
 135 245 135 245 173 189 c 128,-1,47
 211 133 211 133 272.5 99.5 c 128,-1,48
 334 66 334 66 405.5 51.5 c 128,-1,49
 477 37 477 37 544 37 c 0,50,51
 707 37 707 37 810.5 104.5 c 128,-1,52
 914 172 914 172 914 281 c 0,0,1
EndSplineSet
EndChar

StartChar: dotaccent
Encoding: 729 729 378
Width: 422
VWidth: 1798
GlyphClass: 2
Flags: W
LayerCount: 2
Fore
SplineSet
156 1147 m 256,0,1
 156 1170 156 1170 172 1186.5 c 128,-1,2
 188 1203 188 1203 211 1203 c 256,3,4
 234 1203 234 1203 250.5 1186.5 c 128,-1,5
 267 1170 267 1170 267 1147 c 256,6,7
 267 1124 267 1124 250.5 1108 c 128,-1,8
 234 1092 234 1092 211 1092 c 256,9,10
 188 1092 188 1092 172 1108 c 128,-1,11
 156 1124 156 1124 156 1147 c 256,0,1
EndSplineSet
EndChar

StartChar: dotbelow
Encoding: 803 803 379
Width: 0
VWidth: 1798
GlyphClass: 4
Flags: W
AnchorPoint: "Anchor-2" -597 -604 basemark 0
AnchorPoint: "Anchor-2" -597 -250 mark 0
AnchorPoint: "Anchor-1" -597 -250 mark 0
LayerCount: 2
Fore
SplineSet
-632 -468 m 256,0,1
 -632 -445 -632 -445 -616 -428.5 c 128,-1,2
 -600 -412 -600 -412 -577 -412 c 256,3,4
 -554 -412 -554 -412 -537.5 -428.5 c 128,-1,5
 -521 -445 -521 -445 -521 -468 c 256,6,7
 -521 -491 -521 -491 -537.5 -507 c 128,-1,8
 -554 -523 -554 -523 -577 -523 c 256,9,10
 -600 -523 -600 -523 -616 -507 c 128,-1,11
 -632 -491 -632 -491 -632 -468 c 256,0,1
EndSplineSet
EndChar

StartChar: dotlessi
Encoding: 305 305 380
Width: 406
VWidth: 1798
GlyphClass: 2
Flags: W
AnchorPoint: "Anchor-1" 249 -240 basechar 0
AnchorPoint: "Anchor-0" 252 1038 basechar 0
LayerCount: 2
Fore
SplineSet
235 832 m 1,0,-1
 235 -250 l 1,1,-1
 181 -250 l 1,2,-1
 181 832 l 1,3,-1
 235 832 l 1,0,-1
EndSplineSet
Substitution2: "'smcp' Lowercase to Small Capitals lookup 1 subtable" I.smcp
EndChar

StartChar: e
Encoding: 101 101 381
Width: 1032
VWidth: 1798
GlyphClass: 2
Flags: W
AnchorPoint: "Anchor-1" 568 -250 basechar 0
AnchorPoint: "Anchor-0" 565 1040 basechar 0
LayerCount: 2
Fore
SplineSet
561 -270 m 0,0,1
 430 -270 430 -270 322 -201 c 128,-1,2
 214 -132 214 -132 150.5 -10.5 c 128,-1,3
 87 111 87 111 87 268 c 2,4,-1
 87 312 l 2,5,6
 87 470 87 470 148.5 592 c 128,-1,7
 210 714 210 714 313 783 c 128,-1,8
 416 852 416 852 541 852 c 0,9,10
 661 852 661 852 754 794 c 128,-1,11
 847 736 847 736 899.5 632 c 128,-1,12
 952 528 952 528 952 390 c 2,13,-1
 952 327 l 1,14,-1
 141 327 l 1,15,16
 141 320 141 320 141 312 c 2,17,-1
 141 268 l 2,18,19
 141 133 141 133 196.5 23 c 128,-1,20
 252 -87 252 -87 347 -152 c 128,-1,21
 442 -217 442 -217 561 -217 c 0,22,23
 654 -217 654 -217 734.5 -186 c 128,-1,24
 815 -155 815 -155 882 -68 c 1,25,-1
 920 -95 l 1,26,27
 866 -172 866 -172 778.5 -221 c 128,-1,28
 691 -270 691 -270 561 -270 c 0,0,1
541 798 m 256,29,30
 432 798 432 798 347 743 c 128,-1,31
 262 688 262 688 209.5 593.5 c 128,-1,32
 157 499 157 499 145 381 c 1,33,-1
 898 381 l 1,34,-1
 898 394 l 2,35,36
 898 503 898 503 854 594.5 c 128,-1,37
 810 686 810 686 730 742 c 128,-1,38
 650 798 650 798 541 798 c 256,29,30
EndSplineSet
Substitution2: "'unic' Unicase lookup 2 subtable" E.unic
Substitution2: "'smcp' Lowercase to Small Capitals lookup 1 subtable" E.smcp
EndChar

StartChar: eight
Encoding: 56 56 389
Width: 1121
VWidth: 1798
GlyphClass: 2
Flags: W
LayerCount: 2
Fore
SplineSet
1028 129 m 0,0,1
 1028 -3 1028 -3 966 -92 c 128,-1,2
 904 -181 904 -181 799 -225.5 c 128,-1,3
 694 -270 694 -270 565 -270 c 0,4,5
 434 -270 434 -270 328.5 -225.5 c 128,-1,6
 223 -181 223 -181 161.5 -92 c 128,-1,7
 100 -3 100 -3 100 129 c 0,8,9
 100 265 100 265 186 362 c 128,-1,10
 272 459 272 459 409 495 c 1,11,12
 289 532 289 532 215 622 c 128,-1,13
 141 712 141 712 141 836 c 0,14,15
 141 963 141 963 196.5 1049.5 c 128,-1,16
 252 1136 252 1136 347 1181 c 128,-1,17
 442 1226 442 1226 561 1226 c 0,18,19
 679 1226 679 1226 775 1181 c 128,-1,20
 871 1136 871 1136 928.5 1049.5 c 128,-1,21
 986 963 986 963 986 836 c 0,22,23
 986 712 986 712 910.5 622 c 128,-1,24
 835 532 835 532 716 495 c 1,25,26
 852 459 852 459 940 362 c 128,-1,27
 1028 265 1028 265 1028 129 c 0,0,1
932 841 m 0,28,29
 932 938 932 938 882 1012.5 c 128,-1,30
 832 1087 832 1087 748 1129.5 c 128,-1,31
 664 1172 664 1172 561 1172 c 0,32,33
 457 1172 457 1172 374 1132 c 128,-1,34
 291 1092 291 1092 243 1018 c 128,-1,35
 195 944 195 944 195 841 c 0,36,37
 195 742 195 742 243 670.5 c 128,-1,38
 291 599 291 599 374.5 560.5 c 128,-1,39
 458 522 458 522 563 522 c 0,40,41
 666 522 666 522 749.5 560.5 c 128,-1,42
 833 599 833 599 882.5 670.5 c 128,-1,43
 932 742 932 742 932 841 c 0,28,29
973 124 m 0,44,45
 973 229 973 229 918 306 c 128,-1,46
 863 383 863 383 770 425.5 c 128,-1,47
 677 468 677 468 563 468 c 0,48,49
 448 468 448 468 355 425.5 c 128,-1,50
 262 383 262 383 208 306 c 128,-1,51
 154 229 154 229 154 124 c 0,52,53
 154 14 154 14 208 -62 c 128,-1,54
 262 -138 262 -138 355.5 -177 c 128,-1,55
 449 -216 449 -216 565 -216 c 0,56,57
 679 -216 679 -216 771.5 -177 c 128,-1,58
 864 -138 864 -138 918.5 -62 c 128,-1,59
 973 14 973 14 973 124 c 0,44,45
EndSplineSet
Substitution2: "'ss01' Style Set 1 lookup 35 subtable" uni06F8
Substitution2: "'numr' Numerators lookup 21 subtable" eight.frac
Substitution2: "'dnom' Denominators lookup 20 subtable" eight.sup
Substitution2: "'frac' Diagonal Fractions lookup 19 subtable" eight.frac
Substitution2: "Single Substitution lookup 18 subtable" eight.sup
Substitution2: "'lnum' Lining Figures lookup 15 subtable" eight.pnum
Substitution2: "'onum' Oldstyle Figures lookup 14 subtable" eight.tnum
Substitution2: "'c2sc' Capitals to Small Capitals lookup 0 subtable" eight.smcp
Position2: "'cpsp' Capital Spacing lookup 0 subtable" dx=36 dy=0 dh=72 dv=0
EndChar

StartChar: eight.smcp
Encoding: 65731 -1 392
Width: 1010
GlyphClass: 2
Flags: W
LayerCount: 2
Fore
SplineSet
923 305 m 0,0,1
 923 199 923 199 867 127.5 c 128,-1,2
 811 56 811 56 717 20 c 128,-1,3
 623 -16 623 -16 507 -16 c 0,4,5
 389 -16 389 -16 294 20 c 128,-1,6
 199 56 199 56 143.5 127.5 c 128,-1,7
 88 199 88 199 88 305 c 0,8,9
 88 412 88 412 163.5 489 c 128,-1,10
 239 566 239 566 359 596 c 1,11,12
 254 627 254 627 189.5 698.5 c 128,-1,13
 125 770 125 770 125 867 c 0,14,15
 125 969 125 969 175.5 1039 c 128,-1,16
 226 1109 226 1109 312 1145 c 128,-1,17
 398 1181 398 1181 505 1181 c 0,18,19
 611 1181 611 1181 697.5 1145 c 128,-1,20
 784 1109 784 1109 835 1038.5 c 128,-1,21
 886 968 886 968 886 867 c 0,22,23
 886 769 886 769 820.5 698 c 128,-1,24
 755 627 755 627 651 596 c 1,25,26
 771 565 771 565 847 488.5 c 128,-1,27
 923 412 923 412 923 305 c 0,0,1
832 870 m 0,28,29
 832 945 832 945 788 1002.5 c 128,-1,30
 744 1060 744 1060 670 1093 c 128,-1,31
 596 1126 596 1126 505 1126 c 0,32,33
 366 1126 366 1126 272.5 1058 c 128,-1,34
 179 990 179 990 179 870 c 0,35,36
 179 756 179 756 272.5 689.5 c 128,-1,37
 366 623 366 623 507 623 c 0,38,39
 598 623 598 623 671.5 653 c 128,-1,40
 745 683 745 683 788.5 738.5 c 128,-1,41
 832 794 832 794 832 870 c 0,28,29
868 302 m 0,42,43
 868 383 868 383 819 443 c 128,-1,44
 770 503 770 503 688 536 c 128,-1,45
 606 569 606 569 505 569 c 0,46,47
 403 569 403 569 320.5 536 c 128,-1,48
 238 503 238 503 190 443 c 128,-1,49
 142 383 142 383 142 302 c 0,50,51
 142 174 142 174 247 105.5 c 128,-1,52
 352 37 352 37 507 37 c 0,53,54
 608 37 608 37 689.5 67.5 c 128,-1,55
 771 98 771 98 819.5 157.5 c 128,-1,56
 868 217 868 217 868 302 c 0,42,43
EndSplineSet
EndChar

StartChar: eight.sup
Encoding: 65732 -1 393
Width: 728
GlyphClass: 2
Flags: W
LayerCount: 2
Fore
SplineSet
647 208 m 0,0,1
 647 99 647 99 565 44 c 128,-1,2
 483 -11 483 -11 365 -11 c 0,3,4
 244 -11 244 -11 162 44 c 128,-1,5
 80 99 80 99 80 208 c 0,6,7
 80 279 80 279 128.5 331 c 128,-1,8
 177 383 177 383 255 405 c 1,9,10
 187 427 187 427 146 474.5 c 128,-1,11
 105 522 105 522 105 586 c 0,12,13
 105 690 105 690 179.5 745 c 128,-1,14
 254 800 254 800 363 800 c 0,15,16
 473 800 473 800 548 745 c 128,-1,17
 623 690 623 690 623 586 c 0,18,19
 623 521 623 521 581.5 473.5 c 128,-1,20
 540 426 540 426 472 404 c 1,21,22
 550 382 550 382 598.5 330.5 c 128,-1,23
 647 279 647 279 647 208 c 0,0,1
570 587 m 0,24,25
 570 659 570 659 510 705 c 128,-1,26
 450 751 450 751 363 751 c 0,27,28
 275 751 275 751 216.5 707.5 c 128,-1,29
 158 664 158 664 158 587 c 0,30,31
 158 514 158 514 217 471 c 128,-1,32
 276 428 276 428 365 428 c 0,33,34
 451 428 451 428 510.5 471 c 128,-1,35
 570 514 570 514 570 587 c 0,24,25
593 207 m 0,36,37
 593 286 593 286 526.5 332.5 c 128,-1,38
 460 379 460 379 363 379 c 0,39,40
 265 379 265 379 199.5 332.5 c 128,-1,41
 134 286 134 286 134 207 c 0,42,43
 134 125 134 125 199.5 81 c 128,-1,44
 265 37 265 37 365 37 c 0,45,46
 462 37 462 37 527.5 81 c 128,-1,47
 593 125 593 125 593 207 c 0,36,37
EndSplineSet
EndChar

StartChar: emdash
Encoding: 8212 8212 397
Width: 1600
GlyphClass: 2
Flags: W
LayerCount: 2
Fore
SplineSet
1435 495 m 1,0,-1
 165 495 l 1,1,-1
 165 542 l 1,2,-1
 1435 542 l 1,3,-1
 1435 495 l 1,0,-1
EndSplineSet
EndChar

StartChar: endash
Encoding: 8211 8211 398
Width: 1345
GlyphClass: 2
Flags: W
LayerCount: 2
Fore
SplineSet
1180 495 m 1,0,-1
 165 495 l 1,1,-1
 165 542 l 1,2,-1
 1180 542 l 1,3,-1
 1180 495 l 1,0,-1
EndSplineSet
EndChar

StartChar: eng
Encoding: 331 331 399
Width: 1121
VWidth: 1798
GlyphClass: 2
Flags: W
AnchorPoint: "Anchor-1" 563 -240 basechar 0
AnchorPoint: "Anchor-0" 573 1040 basechar 0
LayerCount: 2
Fore
SplineSet
954 -339 m 2,0,1
 954 -508 954 -508 878.5 -597.5 c 128,-1,2
 803 -687 803 -687 669 -687 c 0,3,4
 632 -687 632 -687 601 -682 c 128,-1,5
 570 -677 570 -677 536 -667 c 1,6,-1
 549 -615 l 1,7,8
 567 -621 567 -621 601 -627.5 c 128,-1,9
 635 -634 635 -634 669 -634 c 0,10,11
 779 -634 779 -634 839.5 -557 c 128,-1,12
 900 -480 900 -480 900 -339 c 2,13,-1
 900 389 l 2,14,15
 900 551 900 551 860 639.5 c 128,-1,16
 820 728 820 728 752.5 763 c 128,-1,17
 685 798 685 798 601 798 c 0,18,19
 477 798 477 798 399 746 c 128,-1,20
 321 694 321 694 279.5 610 c 128,-1,21
 238 526 238 526 224 431 c 1,22,-1
 224 -250 l 1,23,-1
 170 -250 l 1,24,-1
 170 832 l 1,25,-1
 218 832 l 1,26,-1
 224 609 l 1,27,28
 272 722 272 722 365 787 c 128,-1,29
 458 852 458 852 600 852 c 0,30,31
 774 852 774 852 864 743 c 128,-1,32
 954 634 954 634 954 387 c 2,33,-1
 954 -339 l 2,0,1
EndSplineSet
Substitution2: "'unic' Unicase lookup 2 subtable" Eng
Substitution2: "'smcp' Lowercase to Small Capitals lookup 1 subtable" Eng.smcp
EndChar

StartChar: eogonek
Encoding: 281 281 400
Width: 1032
VWidth: 1798
GlyphClass: 2
Flags: W
AnchorPoint: "Anchor-1" 568 -250 basechar 0
AnchorPoint: "Anchor-0" 565 1040 basechar 0
LayerCount: 2
Fore
SplineSet
561 -270 m 0,0,1
 430 -270 430 -270 322 -201 c 128,-1,2
 214 -132 214 -132 150.5 -10.5 c 128,-1,3
 87 111 87 111 87 268 c 2,4,-1
 87 312 l 2,5,6
 87 470 87 470 148.5 592 c 128,-1,7
 210 714 210 714 313 783 c 128,-1,8
 416 852 416 852 541 852 c 0,9,10
 661 852 661 852 754 794 c 128,-1,11
 847 736 847 736 899.5 632 c 128,-1,12
 952 528 952 528 952 390 c 2,13,-1
 952 327 l 1,14,-1
 141 327 l 1,15,16
 141 320 141 320 141 312 c 2,17,-1
 141 268 l 2,18,19
 141 133 141 133 196.5 23 c 128,-1,20
 252 -87 252 -87 347 -152 c 128,-1,21
 442 -217 442 -217 561 -217 c 0,22,23
 654 -217 654 -217 734.5 -186 c 128,-1,24
 815 -155 815 -155 882 -68 c 1,25,-1
 920 -95 l 1,26,27
 880 -152 880 -152 828 -190 c 1,28,-1
 832 -192 l 1,29,30
 761 -248 761 -248 702.5 -307 c 128,-1,31
 644 -366 644 -366 644 -438 c 0,32,33
 644 -475 644 -475 663 -504 c 128,-1,34
 682 -533 682 -533 737 -533 c 0,35,36
 777 -533 777 -533 803 -520.5 c 128,-1,37
 829 -508 829 -508 847 -495 c 1,38,-1
 863 -543 l 1,39,40
 844 -558 844 -558 813.5 -572.5 c 128,-1,41
 783 -587 783 -587 737 -587 c 0,42,43
 670 -587 670 -587 630 -550.5 c 128,-1,44
 590 -514 590 -514 590 -438 c 0,45,46
 590 -391 590 -391 619.5 -344 c 128,-1,47
 649 -297 649 -297 693 -254 c 1,48,49
 632 -270 632 -270 561 -270 c 0,0,1
541 798 m 256,50,51
 432 798 432 798 347 743 c 128,-1,52
 262 688 262 688 209.5 593.5 c 128,-1,53
 157 499 157 499 145 381 c 1,54,-1
 898 381 l 1,55,-1
 898 394 l 2,56,57
 898 503 898 503 854 594.5 c 128,-1,58
 810 686 810 686 730 742 c 128,-1,59
 650 798 650 798 541 798 c 256,50,51
EndSplineSet
Substitution2: "'locl' Localized Forms in Latin lookup 8 subtable" eogonek.NAV
Substitution2: "'unic' Unicase lookup 2 subtable" Eogonek.unic
Substitution2: "'smcp' Lowercase to Small Capitals lookup 1 subtable" Eogonek.smcp
EndChar

StartChar: equal
Encoding: 61 61 402
Width: 1064
VWidth: 1798
GlyphClass: 2
Flags: W
LayerCount: 2
Fore
SplineSet
906 425 m 1,0,-1
 165 425 l 1,1,-1
 165 472 l 1,2,-1
 906 472 l 1,3,-1
 906 425 l 1,0,-1
906 65 m 1,4,-1
 165 65 l 1,5,-1
 165 112 l 1,6,-1
 906 112 l 1,7,-1
 906 65 l 1,4,-1
EndSplineSet
EndChar

StartChar: estimated
Encoding: 8494 8494 403
Width: 1293
GlyphClass: 2
Flags: W
LayerCount: 2
Fore
SplineSet
1039 198 m 1,0,-1
 1041 94 l 1,1,2
 957 42 957 42 863 11 c 128,-1,3
 769 -20 769 -20 671 -20 c 0,4,5
 562 -20 562 -20 467 24 c 128,-1,6
 372 68 372 68 300 145 c 128,-1,7
 228 222 228 222 187.5 324 c 128,-1,8
 147 426 147 426 147 541 c 0,9,10
 147 657 147 657 191.5 758.5 c 128,-1,11
 236 860 236 860 311 937 c 128,-1,12
 386 1014 386 1014 479.5 1058 c 128,-1,13
 573 1102 573 1102 671 1102 c 0,14,15
 808 1102 808 1102 920.5 1031.5 c 128,-1,16
 1033 961 1033 961 1099.5 839 c 128,-1,17
 1166 717 1166 717 1166 561 c 2,18,-1
 1166 514 l 1,19,-1
 398 514 l 1,20,-1
 398 186 l 1,21,22
 453 135 453 135 523 105.5 c 128,-1,23
 593 76 593 76 671 76 c 0,24,25
 764 76 764 76 857.5 105.5 c 128,-1,26
 951 135 951 135 1039 198 c 1,0,-1
671 1008 m 0,27,28
 596 1008 596 1008 525.5 975 c 128,-1,29
 455 942 455 942 398 886 c 1,30,-1
 398 609 l 1,31,-1
 938 609 l 1,32,-1
 938 895 l 1,33,34
 886 947 886 947 817 977.5 c 128,-1,35
 748 1008 748 1008 671 1008 c 0,27,28
EndSplineSet
EndChar

StartChar: eth
Encoding: 240 240 404
Width: 1183
VWidth: 1798
GlyphClass: 2
Flags: W
LayerCount: 2
Fore
SplineSet
338 1277 m 1,0,-1
 358 1327 l 1,1,2
 481 1282 481 1282 581.5 1225.5 c 128,-1,3
 682 1169 682 1169 760 1098 c 1,4,-1
 962 1211 l 1,5,-1
 991 1163 l 1,6,-1
 802 1058 l 1,7,8
 922 933 922 933 981.5 763 c 128,-1,9
 1041 593 1041 593 1041 365 c 2,10,-1
 1041 285 l 2,11,12
 1041 121 1041 121 988 -4.5 c 128,-1,13
 935 -130 935 -130 842 -200 c 128,-1,14
 749 -270 749 -270 629 -270 c 0,15,16
 495 -270 495 -270 392 -205 c 128,-1,17
 289 -140 289 -140 231 -30 c 128,-1,18
 173 80 173 80 173 215 c 0,19,20
 173 448 173 448 286.5 575.5 c 128,-1,21
 400 703 400 703 601 703 c 0,22,23
 714 703 714 703 816 658.5 c 128,-1,24
 918 614 918 614 978 530 c 1,25,26
 958 697 958 697 899 819 c 128,-1,27
 840 941 840 941 752 1030 c 1,28,-1
 517 899 l 1,29,-1
 489 947 l 1,30,-1
 709 1070 l 1,31,32
 631 1138 631 1138 537 1188 c 128,-1,33
 443 1238 443 1238 338 1277 c 1,0,-1
228 215 m 0,34,35
 228 108 228 108 275 10 c 128,-1,36
 322 -88 322 -88 412.5 -150 c 128,-1,37
 503 -212 503 -212 633 -212 c 0,38,39
 742 -212 742 -212 821 -148 c 128,-1,40
 900 -84 900 -84 943.5 28.5 c 128,-1,41
 987 141 987 141 987 285 c 2,42,-1
 987 367 l 2,43,44
 987 395 987 395 986 422 c 1,45,46
 962 477 962 477 912.5 528 c 128,-1,47
 863 579 863 579 785.5 612 c 128,-1,48
 708 645 708 645 601 645 c 0,49,50
 470 645 470 645 387.5 587.5 c 128,-1,51
 305 530 305 530 266.5 432.5 c 128,-1,52
 228 335 228 335 228 215 c 0,34,35
EndSplineSet
Substitution2: "'unic' Unicase lookup 2 subtable" Eth
Substitution2: "'smcp' Lowercase to Small Capitals lookup 1 subtable" Eth.smcp
EndChar

StartChar: exclam
Encoding: 33 33 405
Width: 496
VWidth: 1798
GlyphClass: 2
Flags: W
LayerCount: 2
Fore
SplineSet
218 1071 m 1,0,-1
 283 1071 l 1,1,-1
 269 128 l 1,2,-1
 232 128 l 1,3,-1
 218 1071 l 1,0,-1
178 -179 m 0,4,5
 178 -150 178 -150 199 -129 c 128,-1,6
 220 -108 220 -108 248 -108 c 256,7,8
 276 -108 276 -108 297 -129 c 128,-1,9
 318 -150 318 -150 318 -179 c 0,10,11
 318 -207 318 -207 297.5 -228 c 128,-1,12
 277 -249 277 -249 248 -249 c 0,13,14
 218 -249 218 -249 198 -229.5 c 128,-1,15
 178 -210 178 -210 178 -179 c 0,4,5
EndSplineSet
EndChar

StartChar: exclamdown
Encoding: 161 161 407
Width: 406
VWidth: 1798
GlyphClass: 2
Flags: W
LayerCount: 2
Fore
SplineSet
253 798 m 256,0,1
 253 775 253 775 237 758.5 c 128,-1,2
 221 742 221 742 198 742 c 256,3,4
 175 742 175 742 158.5 758.5 c 128,-1,5
 142 775 142 775 142 798 c 256,6,7
 142 821 142 821 158.5 837 c 128,-1,8
 175 853 175 853 198 853 c 256,9,10
 221 853 221 853 237 837 c 128,-1,11
 253 821 253 821 253 798 c 256,0,1
179 -609 m 1,12,-1
 179 446 l 1,13,-1
 233 446 l 1,14,-1
 233 -609 l 1,15,-1
 179 -609 l 1,12,-1
EndSplineSet
EndChar

StartChar: f
Encoding: 102 102 408
Width: 645
VWidth: 1798
GlyphClass: 2
Flags: W
AnchorPoint: "Anchor-1" 330 -240 basechar 0
AnchorPoint: "Anchor-0" 502 1504 basechar 0
LayerCount: 2
Fore
SplineSet
308 -250 m 1,0,-1
 254 -250 l 1,1,-1
 254 777 l 1,2,-1
 66 777 l 1,3,-1
 66 832 l 1,4,-1
 254 832 l 1,5,-1
 254 986 l 2,6,7
 254 1141 254 1141 329.5 1224 c 128,-1,8
 405 1307 405 1307 537 1307 c 0,9,10
 568 1307 568 1307 601 1303.5 c 128,-1,11
 634 1300 634 1300 665 1290 c 1,12,-1
 657 1238 l 1,13,14
 629 1246 629 1246 604 1249.5 c 128,-1,15
 579 1253 579 1253 538 1253 c 0,16,17
 432 1253 432 1253 370 1183 c 128,-1,18
 308 1113 308 1113 308 986 c 2,19,-1
 308 832 l 1,20,-1
 594 832 l 1,21,-1
 594 777 l 1,22,-1
 308 777 l 1,23,-1
 308 -250 l 1,0,-1
EndSplineSet
Substitution2: "'unic' Unicase lookup 2 subtable" F
Substitution2: "'smcp' Lowercase to Small Capitals lookup 1 subtable" F.smcp
EndChar

StartChar: f_f_i
Encoding: 64259 64259 410
Width: 1643
GlyphClass: 3
Flags: W
LayerCount: 2
Fore
SplineSet
308 0 m 1,0,-1
 254 0 l 1,1,-1
 254 1027 l 1,2,-1
 66 1027 l 1,3,-1
 66 1082 l 1,4,-1
 254 1082 l 1,5,-1
 254 1236 l 2,6,7
 254 1391 254 1391 329.5 1474 c 128,-1,8
 405 1557 405 1557 537 1557 c 0,9,10
 568 1557 568 1557 601 1553.5 c 128,-1,11
 634 1550 634 1550 665 1540 c 1,12,-1
 657 1488 l 1,13,14
 629 1496 629 1496 604 1499.5 c 128,-1,15
 579 1503 579 1503 538 1503 c 0,16,17
 432 1503 432 1503 370 1433 c 128,-1,18
 308 1363 308 1363 308 1236 c 2,19,-1
 308 1082 l 1,20,-1
 830 1082 l 1,21,-1
 830 1216 l 2,22,23
 830 1381 830 1381 916.5 1469 c 128,-1,24
 1003 1557 1003 1557 1153 1557 c 0,25,26
 1215 1557 1215 1557 1284 1544.5 c 128,-1,27
 1353 1532 1353 1532 1421 1500 c 1,28,-1
 1413 1448 l 1,29,30
 1353 1475 1353 1475 1297.5 1489 c 128,-1,31
 1242 1503 1242 1503 1154 1503 c 0,32,33
 1030 1503 1030 1503 957 1428 c 128,-1,34
 884 1353 884 1353 884 1216 c 2,35,-1
 884 1082 l 1,36,-1
 1170 1082 l 1,37,-1
 1170 1027 l 1,38,-1
 884 1027 l 1,39,-1
 884 0 l 1,40,-1
 830 0 l 1,41,-1
 830 1027 l 1,42,-1
 308 1027 l 1,43,-1
 308 0 l 1,0,-1
1460 1082 m 1,44,-1
 1460 0 l 1,45,-1
 1406 0 l 1,46,-1
 1406 1082 l 1,47,-1
 1460 1082 l 1,44,-1
EndSplineSet
Ligature2: "'liga' Standard Ligatures in Latin lookup 10 subtable" f f i
EndChar

StartChar: f_f_l
Encoding: 64260 64260 411
Width: 1643
GlyphClass: 3
Flags: W
LayerCount: 2
Fore
SplineSet
308 0 m 1,0,-1
 254 0 l 1,1,-1
 254 1027 l 1,2,-1
 66 1027 l 1,3,-1
 66 1082 l 1,4,-1
 254 1082 l 1,5,-1
 254 1236 l 2,6,7
 254 1391 254 1391 329.5 1474 c 128,-1,8
 405 1557 405 1557 537 1557 c 0,9,10
 568 1557 568 1557 601 1553.5 c 128,-1,11
 634 1550 634 1550 665 1540 c 1,12,-1
 657 1488 l 1,13,14
 629 1496 629 1496 604 1499.5 c 128,-1,15
 579 1503 579 1503 538 1503 c 0,16,17
 432 1503 432 1503 370 1433 c 128,-1,18
 308 1363 308 1363 308 1236 c 2,19,-1
 308 1082 l 1,20,-1
 830 1082 l 1,21,-1
 830 1236 l 2,22,23
 830 1391 830 1391 905.5 1474 c 128,-1,24
 981 1557 981 1557 1113 1557 c 0,25,26
 1185 1557 1185 1557 1278.5 1539 c 128,-1,27
 1372 1521 1372 1521 1460 1496 c 1,28,-1
 1460 0 l 1,29,-1
 1406 0 l 1,30,-1
 1406 1461 l 1,31,32
 1332 1477 1332 1477 1260 1490 c 128,-1,33
 1188 1503 1188 1503 1114 1503 c 0,34,35
 1008 1503 1008 1503 946 1433 c 128,-1,36
 884 1363 884 1363 884 1236 c 2,37,-1
 884 1082 l 1,38,-1
 1170 1082 l 1,39,-1
 1170 1027 l 1,40,-1
 884 1027 l 1,41,-1
 884 0 l 1,42,-1
 830 0 l 1,43,-1
 830 1027 l 1,44,-1
 308 1027 l 1,45,-1
 308 0 l 1,0,-1
EndSplineSet
Ligature2: "'liga' Standard Ligatures in Latin lookup 11 subtable" f f l
EndChar

StartChar: f_l
Encoding: 64258 64258 412
Width: 1067
GlyphClass: 3
Flags: W
LayerCount: 2
Fore
SplineSet
308 0 m 1,0,-1
 254 0 l 1,1,-1
 254 1027 l 1,2,-1
 66 1027 l 1,3,-1
 66 1082 l 1,4,-1
 254 1082 l 1,5,-1
 254 1236 l 2,6,7
 254 1391 254 1391 329.5 1474 c 128,-1,8
 405 1557 405 1557 537 1557 c 0,9,10
 609 1557 609 1557 702.5 1539 c 128,-1,11
 796 1521 796 1521 884 1496 c 1,12,-1
 884 0 l 1,13,-1
 830 0 l 1,14,-1
 830 1461 l 1,15,16
 756 1477 756 1477 684 1490 c 128,-1,17
 612 1503 612 1503 538 1503 c 0,18,19
 432 1503 432 1503 370 1433 c 128,-1,20
 308 1363 308 1363 308 1236 c 2,21,-1
 308 1082 l 1,22,-1
 594 1082 l 1,23,-1
 594 1027 l 1,24,-1
 308 1027 l 1,25,-1
 308 0 l 1,0,-1
EndSplineSet
Ligature2: "'liga' Standard Ligatures in Latin lookup 11 subtable" f l
EndChar

StartChar: fi
Encoding: 64257 64257 413
Width: 1067
GlyphClass: 3
Flags: W
LayerCount: 2
Fore
SplineSet
308 0 m 1,0,-1
 254 0 l 1,1,-1
 254 1027 l 1,2,-1
 66 1027 l 1,3,-1
 66 1082 l 1,4,-1
 254 1082 l 1,5,-1
 254 1216 l 2,6,7
 254 1381 254 1381 340.5 1469 c 128,-1,8
 427 1557 427 1557 577 1557 c 0,9,10
 639 1557 639 1557 708 1544.5 c 128,-1,11
 777 1532 777 1532 845 1500 c 1,12,-1
 837 1448 l 1,13,14
 777 1475 777 1475 721.5 1489 c 128,-1,15
 666 1503 666 1503 578 1503 c 0,16,17
 454 1503 454 1503 381 1428 c 128,-1,18
 308 1353 308 1353 308 1216 c 2,19,-1
 308 1082 l 1,20,-1
 594 1082 l 1,21,-1
 594 1027 l 1,22,-1
 308 1027 l 1,23,-1
 308 0 l 1,0,-1
884 1082 m 1,24,-1
 884 0 l 1,25,-1
 830 0 l 1,26,-1
 830 1082 l 1,27,-1
 884 1082 l 1,24,-1
EndSplineSet
Ligature2: "'liga' Standard Ligatures in Latin lookup 10 subtable" f i
EndChar

StartChar: figuredash
Encoding: 8210 8210 414
Width: 1025
GlyphClass: 2
Flags: W
LayerCount: 2
Fore
SplineSet
860 495 m 1,0,-1
 165 495 l 1,1,-1
 165 542 l 1,2,-1
 860 542 l 1,3,-1
 860 495 l 1,0,-1
EndSplineSet
EndChar

StartChar: five
Encoding: 53 53 415
Width: 1121
VWidth: 1798
GlyphClass: 2
Flags: W
LayerCount: 2
Fore
SplineSet
272 496 m 1,0,-1
 231 512 l 1,1,-1
 299 1206 l 1,2,-1
 1009 1206 l 1,3,-1
 1009 1153 l 1,4,-1
 348 1153 l 1,5,-1
 289 569 l 1,6,7
 325 600 325 600 408.5 633 c 128,-1,8
 492 666 492 666 594 666 c 0,9,10
 720 666 720 666 817 612 c 128,-1,11
 914 558 914 558 969 457 c 128,-1,12
 1024 356 1024 356 1024 214 c 0,13,14
 1024 75 1024 75 983 -34.5 c 128,-1,15
 942 -144 942 -144 851.5 -207 c 128,-1,16
 761 -270 761 -270 614 -270 c 0,17,18
 500 -270 500 -270 406 -226 c 128,-1,19
 312 -182 312 -182 252.5 -92.5 c 128,-1,20
 193 -3 193 -3 182 133 c 1,21,-1
 237 133 l 1,22,23
 253 -36 253 -36 349.5 -126 c 128,-1,24
 446 -216 446 -216 614 -216 c 0,25,26
 793 -216 793 -216 881 -107 c 128,-1,27
 969 2 969 2 969 212 c 0,28,29
 969 326 969 326 925.5 416.5 c 128,-1,30
 882 507 882 507 799 559.5 c 128,-1,31
 716 612 716 612 595 612 c 0,32,33
 480 612 480 612 404.5 580.5 c 128,-1,34
 329 549 329 549 272 496 c 1,0,-1
EndSplineSet
Substitution2: "'ss01' Style Set 1 lookup 35 subtable" uni06F5
Substitution2: "'numr' Numerators lookup 21 subtable" five.frac
Substitution2: "'dnom' Denominators lookup 20 subtable" five.sup
Substitution2: "'frac' Diagonal Fractions lookup 19 subtable" five.frac
Substitution2: "Single Substitution lookup 18 subtable" five.sup
Substitution2: "'onum' Oldstyle Figures lookup 14 subtable" five.tnum
Substitution2: "'c2sc' Capitals to Small Capitals lookup 0 subtable" five.smcp
Position2: "'cpsp' Capital Spacing lookup 0 subtable" dx=36 dy=0 dh=72 dv=0
EndChar

StartChar: five.onum
Encoding: 65737 -1 417
Width: 1131
GlyphClass: 1
Flags: W
LayerCount: 2
Fore
SplineSet
198 438 m 1,0,-1
 152 455 l 1,1,-1
 236 1164 l 1,2,-1
 990 1164 l 1,3,-1
 990 1110 l 1,4,-1
 280 1110 l 1,5,-1
 205 516 l 1,6,7
 277 600 277 600 374 631.5 c 128,-1,8
 471 663 471 663 588 663 c 0,9,10
 717 663 717 663 812.5 605 c 128,-1,11
 908 547 908 547 960 441 c 128,-1,12
 1012 335 1012 335 1012 192 c 0,13,14
 1012 41 1012 41 949.5 -82.5 c 128,-1,15
 887 -206 887 -206 772.5 -279 c 128,-1,16
 658 -352 658 -352 500 -352 c 0,17,18
 394 -352 394 -352 293.5 -324.5 c 128,-1,19
 193 -297 193 -297 101 -238 c 1,20,-1
 127 -192 l 1,21,22
 278 -298 278 -298 500 -298 c 0,23,24
 638 -298 638 -298 741 -233 c 128,-1,25
 844 -168 844 -168 901 -57.5 c 128,-1,26
 958 53 958 53 958 190 c 0,27,28
 958 302 958 302 916 397 c 128,-1,29
 874 492 874 492 790 550.5 c 128,-1,30
 706 609 706 609 580 609 c 0,31,32
 453 609 453 609 384.5 583.5 c 128,-1,33
 316 558 316 558 277 519 c 128,-1,34
 238 480 238 480 198 438 c 1,0,-1
EndSplineSet
EndChar

StartChar: five.smcp
Encoding: 65738 -1 418
Width: 1010
GlyphClass: 2
Flags: W
LayerCount: 2
Fore
SplineSet
230 590 m 1,0,-1
 189 606 l 1,1,-1
 260 1165 l 1,2,-1
 913 1165 l 1,3,-1
 913 1109 l 1,4,-1
 304 1109 l 1,5,-1
 247 662 l 1,6,7
 281 686 281 686 355.5 711 c 128,-1,8
 430 736 430 736 526 736 c 0,9,10
 640 736 640 736 729.5 692 c 128,-1,11
 819 648 819 648 871 566.5 c 128,-1,12
 923 485 923 485 923 371 c 0,13,14
 923 260 923 260 883.5 172.5 c 128,-1,15
 844 85 844 85 759 34.5 c 128,-1,16
 674 -16 674 -16 535 -16 c 0,17,18
 449 -16 449 -16 367 19 c 128,-1,19
 285 54 285 54 228.5 125.5 c 128,-1,20
 172 197 172 197 162 306 c 1,21,-1
 217 306 l 1,22,23
 231 176 231 176 322.5 106.5 c 128,-1,24
 414 37 414 37 535 37 c 0,25,26
 711 37 711 37 789.5 122.5 c 128,-1,27
 868 208 868 208 868 370 c 0,28,29
 868 510 868 510 779.5 595.5 c 128,-1,30
 691 681 691 681 526 681 c 0,31,32
 412 681 412 681 348 656.5 c 128,-1,33
 284 632 284 632 230 590 c 1,0,-1
EndSplineSet
EndChar

StartChar: five.sup
Encoding: 65739 -1 419
Width: 728
GlyphClass: 2
Flags: W
LayerCount: 2
Fore
SplineSet
186 394 m 1,0,-1
 145 407 l 1,1,-1
 192 789 l 1,2,-1
 639 789 l 1,3,-1
 639 738 l 1,4,-1
 237 738 l 1,5,-1
 200 455 l 1,6,7
 223 470 223 470 271 485.5 c 128,-1,8
 319 501 319 501 381 501 c 0,9,10
 498 501 498 501 574 434.5 c 128,-1,11
 650 368 650 368 650 251 c 0,12,13
 650 139 650 139 587.5 64 c 128,-1,14
 525 -11 525 -11 384 -11 c 0,15,16
 323 -11 323 -11 266 13 c 128,-1,17
 209 37 209 37 170.5 85.5 c 128,-1,18
 132 134 132 134 125 208 c 1,19,-1
 179 208 l 1,20,21
 187 125 187 125 246 81 c 128,-1,22
 305 37 305 37 384 37 c 0,23,24
 495 37 495 37 546 92.5 c 128,-1,25
 597 148 597 148 597 251 c 0,26,27
 597 342 597 342 539.5 397.5 c 128,-1,28
 482 453 482 453 376 453 c 0,29,30
 303 453 303 453 262 436.5 c 128,-1,31
 221 420 221 420 186 394 c 1,0,-1
EndSplineSet
EndChar

StartChar: florin
Encoding: 402 402 422
Width: 644
VWidth: 1798
GlyphClass: 2
Flags: W
LayerCount: 2
Fore
SplineSet
593 832 m 1,0,-1
 593 777 l 1,1,-1
 307 777 l 1,2,-1
 307 -339 l 2,3,4
 307 -508 307 -508 231.5 -597.5 c 128,-1,5
 156 -687 156 -687 22 -687 c 0,6,7
 -9 -687 -9 -687 -35 -682 c 128,-1,8
 -61 -677 -61 -677 -90 -667 c 1,9,-1
 -77 -615 l 1,10,11
 -61 -621 -61 -621 -33.5 -627 c 128,-1,12
 -6 -633 -6 -633 22 -633 c 0,13,14
 133 -633 133 -633 193 -556.5 c 128,-1,15
 253 -480 253 -480 253 -339 c 2,16,-1
 253 777 l 1,17,-1
 65 777 l 1,18,-1
 65 832 l 1,19,-1
 253 832 l 1,20,-1
 253 986 l 2,21,22
 253 1141 253 1141 328.5 1224 c 128,-1,23
 404 1307 404 1307 536 1307 c 0,24,25
 567 1307 567 1307 600 1303.5 c 128,-1,26
 633 1300 633 1300 664 1290 c 1,27,-1
 656 1238 l 1,28,29
 628 1246 628 1246 603 1249.5 c 128,-1,30
 578 1253 578 1253 537 1253 c 0,31,32
 431 1253 431 1253 369 1183 c 128,-1,33
 307 1113 307 1113 307 986 c 2,34,-1
 307 832 l 1,35,-1
 593 832 l 1,0,-1
EndSplineSet
EndChar

StartChar: four
Encoding: 52 52 423
Width: 1121
VWidth: 1798
GlyphClass: 2
Flags: W
LayerCount: 2
Fore
SplineSet
1094 201 m 1,0,-1
 1094 147 l 1,1,-1
 842 147 l 1,2,-1
 842 -250 l 1,3,-1
 788 -250 l 1,4,-1
 788 147 l 1,5,-1
 82 147 l 1,6,-1
 82 177 l 1,7,-1
 777 1206 l 1,8,-1
 842 1206 l 1,9,-1
 842 201 l 1,10,-1
 1094 201 l 1,0,-1
166 201 m 1,11,-1
 788 201 l 1,12,-1
 788 1142 l 1,13,-1
 704 1003 l 1,14,-1
 166 201 l 1,11,-1
EndSplineSet
Substitution2: "'ss01' Style Set 1 lookup 35 subtable" uni06F4
Substitution2: "'numr' Numerators lookup 21 subtable" four.frac
Substitution2: "'dnom' Denominators lookup 20 subtable" four.sup
Substitution2: "'frac' Diagonal Fractions lookup 19 subtable" four.frac
Substitution2: "Single Substitution lookup 18 subtable" four.sup
Substitution2: "'onum' Oldstyle Figures lookup 14 subtable" four.tnum
Substitution2: "'c2sc' Capitals to Small Capitals lookup 0 subtable" four.smcp
Position2: "'cpsp' Capital Spacing lookup 0 subtable" dx=36 dy=0 dh=72 dv=0
EndChar

StartChar: four.onum
Encoding: 65742 -1 425
Width: 1225
GlyphClass: 1
Flags: W
LayerCount: 2
Fore
SplineSet
1184 53 m 1,0,-1
 1184 -1 l 1,1,-1
 987 -1 l 1,2,-1
 987 -330 l 1,3,-1
 933 -330 l 1,4,-1
 933 -1 l 1,5,-1
 62 -1 l 1,6,-1
 62 35 l 1,7,-1
 911 1165 l 1,8,-1
 987 1165 l 1,9,-1
 987 53 l 1,10,-1
 1184 53 l 1,0,-1
144 53 m 1,11,-1
 933 53 l 1,12,-1
 933 1116 l 1,13,-1
 869 1024 l 1,14,-1
 144 53 l 1,11,-1
EndSplineSet
EndChar

StartChar: four.smcp
Encoding: 65743 -1 426
Width: 1010
GlyphClass: 2
Flags: W
LayerCount: 2
Fore
SplineSet
985 365 m 1,0,-1
 985 310 l 1,1,-1
 760 310 l 1,2,-1
 760 0 l 1,3,-1
 706 0 l 1,4,-1
 706 310 l 1,5,-1
 72 310 l 1,6,-1
 72 343 l 1,7,-1
 696 1165 l 1,8,-1
 760 1165 l 1,9,-1
 760 365 l 1,10,-1
 985 365 l 1,0,-1
153 365 m 1,11,-1
 706 365 l 1,12,-1
 706 1105 l 1,13,-1
 633 991 l 1,14,-1
 153 365 l 1,11,-1
EndSplineSet
EndChar

StartChar: four.sup
Encoding: 65744 -1 427
Width: 728
GlyphClass: 2
Flags: W
LayerCount: 2
Fore
SplineSet
689 253 m 1,0,-1
 689 204 l 1,1,-1
 542 204 l 1,2,-1
 542 0 l 1,3,-1
 489 0 l 1,4,-1
 489 204 l 1,5,-1
 66 204 l 1,6,-1
 65 236 l 1,7,-1
 482 789 l 1,8,-1
 542 789 l 1,9,-1
 542 253 l 1,10,-1
 689 253 l 1,0,-1
135 253 m 1,11,-1
 489 253 l 1,12,-1
 489 727 l 1,13,-1
 445 656 l 1,14,-1
 135 253 l 1,11,-1
EndSplineSet
EndChar

StartChar: fraction
Encoding: 8260 8260 429
Width: 905
GlyphClass: 2
Flags: W
LayerCount: 2
Fore
SplineSet
821 1269 m 1,0,-1
 110 131 l 1,1,-1
 65 162 l 1,2,-1
 776 1300 l 1,3,-1
 821 1269 l 1,0,-1
EndSplineSet
EndChar

StartChar: g
Encoding: 103 103 431
Width: 1123
VWidth: 1798
GlyphClass: 2
Flags: W
AnchorPoint: "Anchor-1" 554 -697 basechar 0
AnchorPoint: "Anchor-0" 556 1040 basechar 0
LayerCount: 2
Fore
SplineSet
121 281 m 2,0,-1
 121 302 l 2,1,2
 121 558 121 558 228.5 705 c 128,-1,3
 336 852 336 852 529 852 c 0,4,5
 662 852 662 852 753 792 c 128,-1,6
 844 732 844 732 895 635 c 1,7,-1
 895 832 l 1,8,-1
 950 832 l 1,9,-1
 950 -235 l 2,10,11
 950 -443 950 -443 841 -564.5 c 128,-1,12
 732 -686 732 -686 541 -686 c 0,13,14
 423 -686 423 -686 334.5 -635 c 128,-1,15
 246 -584 246 -584 187 -504 c 1,16,-1
 225 -468 l 1,17,18
 288 -547 288 -547 363.5 -590 c 128,-1,19
 439 -633 439 -633 539 -633 c 0,20,21
 715 -633 715 -633 805 -525 c 128,-1,22
 895 -417 895 -417 895 -235 c 2,23,-1
 895 -78 l 1,24,25
 845 -161 845 -161 752.5 -215.5 c 128,-1,26
 660 -270 660 -270 527 -270 c 0,27,28
 399 -270 399 -270 308 -201 c 128,-1,29
 217 -132 217 -132 169 -8 c 128,-1,30
 121 116 121 116 121 281 c 2,0,-1
176 302 m 2,31,-1
 176 281 l 2,32,33
 176 137 176 137 214.5 25 c 128,-1,34
 253 -87 253 -87 330.5 -151.5 c 128,-1,35
 408 -216 408 -216 526 -216 c 0,36,37
 678 -216 678 -216 768 -146.5 c 128,-1,38
 858 -77 858 -77 895 26 c 1,39,-1
 895 517 l 1,40,41
 875 581 875 581 834 646 c 128,-1,42
 793 711 793 711 719.5 754.5 c 128,-1,43
 646 798 646 798 528 798 c 0,44,45
 409 798 409 798 331 734 c 128,-1,46
 253 670 253 670 214.5 558 c 128,-1,47
 176 446 176 446 176 302 c 2,31,-1
EndSplineSet
Substitution2: "'salt' Stylistic Alternatives lookup 13 subtable" g.alt
Substitution2: "'unic' Unicase lookup 2 subtable" G
Substitution2: "'smcp' Lowercase to Small Capitals lookup 1 subtable" G.smcp
EndChar

StartChar: g.alt
Encoding: 65746 -1 432
Width: 1076
GlyphClass: 2
Flags: W
LayerCount: 2
Fore
SplineSet
147 740 m 2,0,-1
 147 762 l 2,1,2
 147 861 147 861 197 937.5 c 128,-1,3
 247 1014 247 1014 333.5 1058 c 128,-1,4
 420 1102 420 1102 530 1102 c 0,5,6
 603 1102 603 1102 668 1082 c 1,7,-1
 978 1082 l 1,8,-1
 980 1028 l 1,9,-1
 778 1028 l 1,10,11
 841 982 841 982 877.5 913.5 c 128,-1,12
 914 845 914 845 914 762 c 2,13,-1
 914 740 l 2,14,15
 914 653 914 653 864.5 580 c 128,-1,16
 815 507 815 507 729 463 c 128,-1,17
 643 419 643 419 532 419 c 0,18,19
 461 419 461 419 396 439 c 1,20,21
 367 418 367 418 334.5 381 c 128,-1,22
 302 344 302 344 302 288 c 0,23,24
 302 221 302 221 342.5 199.5 c 128,-1,25
 383 178 383 178 429 178 c 2,26,-1
 619 178 l 2,27,28
 777 178 777 178 883 107 c 128,-1,29
 989 36 989 36 989 -107 c 0,30,31
 989 -183 989 -183 931.5 -259.5 c 128,-1,32
 874 -336 874 -336 763.5 -387 c 128,-1,33
 653 -438 653 -438 494 -438 c 0,34,35
 295 -438 295 -438 192.5 -354 c 128,-1,36
 90 -270 90 -270 90 -152 c 0,37,38
 90 -43 90 -43 161.5 32.5 c 128,-1,39
 233 108 233 108 325 147 c 1,40,41
 291 165 291 165 269.5 199 c 128,-1,42
 248 233 248 233 248 288 c 0,43,44
 248 349 248 349 276.5 391 c 128,-1,45
 305 433 305 433 338 461 c 1,46,47
 250 503 250 503 198.5 577 c 128,-1,48
 147 651 147 651 147 740 c 2,0,-1
389 499 m 1,49,-1
 389 498 l 1,50,51
 455 473 455 473 532 473 c 0,52,53
 632 473 632 473 705.5 512.5 c 128,-1,54
 779 552 779 552 819.5 613.5 c 128,-1,55
 860 675 860 675 860 740 c 2,56,-1
 860 762 l 2,57,58
 860 837 860 837 819 902 c 128,-1,59
 778 967 778 967 704 1007.5 c 128,-1,60
 630 1048 630 1048 530 1048 c 0,61,62
 431 1048 431 1048 357 1007.5 c 128,-1,63
 283 967 283 967 242 902 c 128,-1,64
 201 837 201 837 201 762 c 2,65,-1
 201 740 l 2,66,67
 201 668 201 668 250.5 600.5 c 128,-1,68
 300 533 300 533 389 499 c 1,69,-1
 389 499 l 1,49,-1
144 -152 m 0,70,71
 144 -248 144 -248 228.5 -316 c 128,-1,72
 313 -384 313 -384 494 -384 c 0,73,74
 636 -384 636 -384 734.5 -341 c 128,-1,75
 833 -298 833 -298 884 -233.5 c 128,-1,76
 935 -169 935 -169 935 -107 c 0,77,78
 935 -9 935 -9 859.5 57.5 c 128,-1,79
 784 124 784 124 619 124 c 2,80,-1
 429 124 l 2,81,82
 425 124 425 124 422 124 c 0,83,84
 347 114 347 114 283.5 73 c 128,-1,85
 220 32 220 32 182 -27 c 128,-1,86
 144 -86 144 -86 144 -152 c 0,70,71
EndSplineSet
EndChar

StartChar: germandbls
Encoding: 223 223 437
Width: 1183
VWidth: 1798
GlyphClass: 2
Flags: W
LayerCount: 2
Fore
SplineSet
218 893 m 2,0,-1
 218 -250 l 1,1,-1
 164 -250 l 1,2,-1
 164 893 l 2,3,4
 164 1083 164 1083 249 1184 c 128,-1,5
 334 1285 334 1285 493 1285 c 0,6,7
 572 1285 572 1285 643 1250.5 c 128,-1,8
 714 1216 714 1216 759 1153.5 c 128,-1,9
 804 1091 804 1091 804 1007 c 0,10,11
 804 936 804 936 786 888.5 c 128,-1,12
 768 841 768 841 744.5 800 c 128,-1,13
 721 759 721 759 703 708 c 128,-1,14
 685 657 685 657 685 579 c 0,15,16
 685 517 685 517 723 469.5 c 128,-1,17
 761 422 761 422 817.5 380 c 128,-1,18
 874 338 874 338 930 292 c 128,-1,19
 986 246 986 246 1024 187.5 c 128,-1,20
 1062 129 1062 129 1062 47 c 0,21,22
 1062 -54 1062 -54 1004.5 -125 c 128,-1,23
 947 -196 947 -196 862 -233.5 c 128,-1,24
 777 -271 777 -271 695 -271 c 0,25,26
 637 -271 637 -271 575 -259 c 128,-1,27
 513 -247 513 -247 461.5 -226.5 c 128,-1,28
 410 -206 410 -206 383 -182 c 1,29,-1
 408 -133 l 1,30,31
 448 -164 448 -164 528 -191 c 128,-1,32
 608 -218 608 -218 687 -218 c 0,33,34
 781 -218 781 -218 853.5 -180 c 128,-1,35
 926 -142 926 -142 967 -79.5 c 128,-1,36
 1008 -17 1008 -17 1008 56 c 0,37,38
 1008 125 1008 125 970 176 c 128,-1,39
 932 227 932 227 876 269.5 c 128,-1,40
 820 312 820 312 763.5 356 c 128,-1,41
 707 400 707 400 669 453.5 c 128,-1,42
 631 507 631 507 631 581 c 0,43,44
 631 658 631 658 648 710 c 128,-1,45
 665 762 665 762 687.5 804.5 c 128,-1,46
 710 847 710 847 727 894.5 c 128,-1,47
 744 942 744 942 744 1009 c 0,48,49
 744 1072 744 1072 709 1122 c 128,-1,50
 674 1172 674 1172 619 1201.5 c 128,-1,51
 564 1231 564 1231 503 1231 c 0,52,53
 374 1231 374 1231 296 1154.5 c 128,-1,54
 218 1078 218 1078 218 893 c 2,0,-1
EndSplineSet
Substitution2: "'smcp' Lowercase to Small Capitals lookup 1 subtable" Germandbls.smcp
EndChar

StartChar: grave
Encoding: 96 96 438
Width: 537
VWidth: 1798
GlyphClass: 2
Flags: W
LayerCount: 2
Fore
SplineSet
215 1286 m 1,0,-1
 403 1020 l 1,1,-1
 344 1020 l 1,2,-1
 149 1286 l 1,3,-1
 215 1286 l 1,0,-1
EndSplineSet
EndChar

StartChar: gravecomb
Encoding: 768 768 439
Width: 0
VWidth: 1798
GlyphClass: 4
Flags: W
AnchorPoint: "Anchor-3" -530 1391 basemark 0
AnchorPoint: "Anchor-3" -530 1040 mark 0
AnchorPoint: "Anchor-0" -530 1040 mark 0
LayerCount: 2
Fore
SplineSet
-678 1286 m 1,0,-1
 -490 1020 l 1,1,-1
 -549 1020 l 1,2,-1
 -744 1286 l 1,3,-1
 -678 1286 l 1,0,-1
EndSplineSet
EndChar

StartChar: greater
Encoding: 62 62 440
Width: 1053
VWidth: 1798
GlyphClass: 2
Flags: W
LayerCount: 2
Fore
SplineSet
114 74 m 1,0,-1
 873 418 l 1,1,-1
 114 763 l 1,2,-1
 114 822 l 1,3,-1
 950 444 l 1,4,-1
 950 394 l 1,5,-1
 114 15 l 1,6,-1
 114 74 l 1,0,-1
EndSplineSet
EndChar

StartChar: greaterequal
Encoding: 8805 8805 441
Width: 1053
GlyphClass: 2
Flags: W
LayerCount: 2
Fore
SplineSet
114 418 m 1,0,-1
 873 764 l 1,1,-1
 114 1110 l 1,2,-1
 114 1169 l 1,3,-1
 950 790 l 1,4,-1
 950 740 l 1,5,-1
 114 359 l 1,6,-1
 114 418 l 1,0,-1
940 55 m 1,7,-1
 940 1 l 1,8,-1
 105 1 l 1,9,-1
 105 55 l 1,10,-1
 940 55 l 1,7,-1
EndSplineSet
EndChar

StartChar: guillemotleft
Encoding: 171 171 442
Width: 858
VWidth: 1798
GlyphClass: 2
Flags: W
LayerCount: 2
Fore
SplineSet
404 -243 m 1,0,-1
 374 -271 l 1,1,2
 273 -147 273 -147 222 -49 c 128,-1,3
 171 49 171 49 171 142 c 256,4,5
 171 235 171 235 222 332.5 c 128,-1,6
 273 430 273 430 374 554 c 1,7,-1
 404 525 l 1,8,9
 314 409 314 409 269 318.5 c 128,-1,10
 224 228 224 228 224 142 c 256,11,12
 224 56 224 56 269 -35 c 128,-1,13
 314 -126 314 -126 404 -243 c 1,0,-1
717 -243 m 1,14,-1
 687 -271 l 1,15,16
 586 -147 586 -147 535 -49 c 128,-1,17
 484 49 484 49 484 142 c 256,18,19
 484 235 484 235 535 332.5 c 128,-1,20
 586 430 586 430 687 554 c 1,21,-1
 717 525 l 1,22,23
 627 409 627 409 582 318.5 c 128,-1,24
 537 228 537 228 537 142 c 256,25,26
 537 56 537 56 582 -35 c 128,-1,27
 627 -126 627 -126 717 -243 c 1,14,-1
EndSplineSet
EndChar

StartChar: guillemotright
Encoding: 187 187 443
Width: 858
VWidth: 1798
GlyphClass: 2
Flags: W
LayerCount: 2
Fore
SplineSet
454 -243 m 1,0,1
 544 -126 544 -126 589 -35 c 128,-1,2
 634 56 634 56 634 142 c 256,3,4
 634 228 634 228 589 318.5 c 128,-1,5
 544 409 544 409 454 525 c 1,6,-1
 484 554 l 1,7,8
 585 430 585 430 636 332.5 c 128,-1,9
 687 235 687 235 687 142 c 256,10,11
 687 49 687 49 636 -49 c 128,-1,12
 585 -147 585 -147 483 -271 c 1,13,-1
 454 -243 l 1,0,1
141 -243 m 1,14,15
 231 -126 231 -126 276 -35 c 128,-1,16
 321 56 321 56 321 142 c 256,17,18
 321 228 321 228 276 318.5 c 128,-1,19
 231 409 231 409 141 525 c 1,20,-1
 171 554 l 1,21,22
 272 430 272 430 323 332.5 c 128,-1,23
 374 235 374 235 374 142 c 256,24,25
 374 49 374 49 323 -49 c 128,-1,26
 272 -147 272 -147 170 -271 c 1,27,-1
 141 -243 l 1,14,15
EndSplineSet
EndChar

StartChar: guilsinglleft
Encoding: 8249 8249 444
Width: 604
GlyphClass: 2
Flags: W
LayerCount: 2
Fore
SplineSet
473 940 m 1,0,-1
 179 561 l 1,1,-1
 473 181 l 1,2,-1
 403 181 l 1,3,-1
 108 551 l 1,4,-1
 108 570 l 1,5,-1
 403 940 l 1,6,-1
 473 940 l 1,0,-1
EndSplineSet
EndChar

StartChar: guilsinglright
Encoding: 8250 8250 445
Width: 604
GlyphClass: 2
Flags: W
LayerCount: 2
Fore
SplineSet
106 171 m 1,0,-1
 400 551 l 1,1,-1
 106 940 l 1,2,-1
 176 940 l 1,3,-1
 470 560 l 1,4,-1
 470 541 l 1,5,-1
 176 171 l 1,6,-1
 106 171 l 1,0,-1
EndSplineSet
EndChar

StartChar: h
Encoding: 104 104 446
Width: 1121
VWidth: 1798
GlyphClass: 2
Flags: W
AnchorPoint: "Anchor-1" 588 -240 basechar 0
AnchorPoint: "Anchor-0" 501 1361 basechar 0
LayerCount: 2
Fore
SplineSet
226 1286 m 1,0,-1
 226 581 l 1,1,2
 275 695 275 695 374.5 773.5 c 128,-1,3
 474 852 474 852 610 852 c 0,4,5
 774 852 774 852 864 758.5 c 128,-1,6
 954 665 954 665 954 450 c 2,7,-1
 954 -250 l 1,8,-1
 900 -250 l 1,9,-1
 900 450 l 2,10,11
 900 588 900 588 862.5 663.5 c 128,-1,12
 825 739 825 739 759 769 c 128,-1,13
 693 799 693 799 607 799 c 0,14,15
 519 799 519 799 452.5 764 c 128,-1,16
 386 729 386 729 340 674 c 128,-1,17
 294 619 294 619 266 557.5 c 128,-1,18
 238 496 238 496 226 443 c 1,19,-1
 226 -250 l 1,20,-1
 172 -250 l 1,21,-1
 172 1286 l 1,22,-1
 226 1286 l 1,0,-1
EndSplineSet
Substitution2: "'unic' Unicase lookup 2 subtable" H
Substitution2: "'smcp' Lowercase to Small Capitals lookup 1 subtable" H.smcp
EndChar

StartChar: hbar
Encoding: 295 295 447
Width: 1151
VWidth: 1798
GlyphClass: 2
Flags: W
AnchorPoint: "Anchor-1" 588 -240 basechar 0
AnchorPoint: "Anchor-0" 501 1361 basechar 0
LayerCount: 2
Fore
SplineSet
648 1085 m 1,0,-1
 648 1031 l 1,1,-1
 256 1031 l 1,2,-1
 256 581 l 1,3,4
 305 695 305 695 404.5 773.5 c 128,-1,5
 504 852 504 852 640 852 c 0,6,7
 804 852 804 852 894 758.5 c 128,-1,8
 984 665 984 665 984 450 c 2,9,-1
 984 -250 l 1,10,-1
 930 -250 l 1,11,-1
 930 450 l 2,12,13
 930 588 930 588 892.5 663.5 c 128,-1,14
 855 739 855 739 789 769 c 128,-1,15
 723 799 723 799 637 799 c 0,16,17
 549 799 549 799 482.5 764 c 128,-1,18
 416 729 416 729 370 674 c 128,-1,19
 324 619 324 619 296 557.5 c 128,-1,20
 268 496 268 496 256 443 c 1,21,-1
 256 -250 l 1,22,-1
 202 -250 l 1,23,-1
 202 1031 l 1,24,-1
 61 1031 l 1,25,-1
 61 1085 l 1,26,-1
 202 1085 l 1,27,-1
 202 1286 l 1,28,-1
 256 1286 l 1,29,-1
 256 1085 l 1,30,-1
 648 1085 l 1,0,-1
EndSplineSet
Substitution2: "'unic' Unicase lookup 2 subtable" Hbar
Substitution2: "'smcp' Lowercase to Small Capitals lookup 1 subtable" Hbar.smcp
EndChar

StartChar: hook
Encoding: 777 777 449
Width: 0
VWidth: 1798
GlyphClass: 4
Flags: W
AnchorPoint: "Anchor-3" -590 1471 basemark 0
AnchorPoint: "Anchor-3" -590 1024 mark 0
AnchorPoint: "Anchor-0" -590 1024 mark 0
LayerCount: 2
Fore
SplineSet
-550 977 m 1,0,-1
 -598 977 l 1,1,-1
 -598 1076 l 1,2,3
 -500 1084 -500 1084 -454.5 1109.5 c 128,-1,4
 -409 1135 -409 1135 -409 1190 c 0,5,6
 -409 1232 -409 1232 -445.5 1256 c 128,-1,7
 -482 1280 -482 1280 -536.5 1290 c 128,-1,8
 -591 1300 -591 1300 -645 1300 c 1,9,-1
 -638 1349 l 1,10,11
 -513 1349 -513 1349 -433 1307 c 128,-1,12
 -353 1265 -353 1265 -353 1190 c 0,13,14
 -353 1110 -353 1110 -410.5 1073.5 c 128,-1,15
 -468 1037 -468 1037 -550 1031 c 1,16,-1
 -550 977 l 1,0,-1
EndSplineSet
EndChar

StartChar: hungarumlaut
Encoding: 733 733 450
Width: 783
VWidth: 1798
GlyphClass: 2
Flags: W
LayerCount: 2
Fore
SplineSet
381 982 m 1,0,-1
 662 1286 l 1,1,-1
 742 1286 l 1,2,-1
 454 982 l 1,3,-1
 381 982 l 1,0,-1
146 982 m 1,4,-1
 382 1286 l 1,5,-1
 458 1286 l 1,6,-1
 215 982 l 1,7,-1
 146 982 l 1,4,-1
EndSplineSet
EndChar

StartChar: hyphen
Encoding: 45 45 451
Width: 901
VWidth: 1798
GlyphClass: 2
Flags: W
LayerCount: 2
Fore
SplineSet
736 245 m 1,0,-1
 165 245 l 1,1,-1
 165 292 l 1,2,-1
 736 292 l 1,3,-1
 736 245 l 1,0,-1
EndSplineSet
EndChar

StartChar: hyphendot
Encoding: 8231 8231 453
Width: 311
GlyphClass: 2
Flags: W
LayerCount: 2
Fore
SplineSet
100 666 m 256,0,1
 100 689 100 689 116 705.5 c 128,-1,2
 132 722 132 722 155 722 c 256,3,4
 178 722 178 722 194.5 705.5 c 128,-1,5
 211 689 211 689 211 666 c 256,6,7
 211 643 211 643 194.5 627 c 128,-1,8
 178 611 178 611 155 611 c 256,9,10
 132 611 132 611 116 627 c 128,-1,11
 100 643 100 643 100 666 c 256,0,1
EndSplineSet
EndChar

StartChar: i
Encoding: 105 105 455
Width: 422
VWidth: 1798
GlyphClass: 2
Flags: W
AnchorPoint: "Anchor-1" 249 -240 basechar 0
AnchorPoint: "Anchor-0" 251 1350 basechar 0
LayerCount: 2
Fore
SplineSet
157 1170 m 256,0,1
 157 1193 157 1193 173 1209.5 c 128,-1,2
 189 1226 189 1226 212 1226 c 256,3,4
 235 1226 235 1226 251.5 1209.5 c 128,-1,5
 268 1193 268 1193 268 1170 c 256,6,7
 268 1147 268 1147 251.5 1131 c 128,-1,8
 235 1115 235 1115 212 1115 c 256,9,10
 189 1115 189 1115 173 1131 c 128,-1,11
 157 1147 157 1147 157 1170 c 256,0,1
239 832 m 1,12,-1
 239 -250 l 1,13,-1
 185 -250 l 1,14,-1
 185 832 l 1,15,-1
 239 832 l 1,12,-1
EndSplineSet
Substitution2: "Single Substitution lookup 3 subtable" uni0069.ccmp
Substitution2: "'unic' Unicase lookup 2 subtable" I
Substitution2: "'smcp' Lowercase to Small Capitals lookup 1 subtable" I.smcp
EndChar

StartChar: infinity
Encoding: 8734 8734 463
Width: 2223
GlyphClass: 2
Flags: W
LayerCount: 2
Fore
SplineSet
140 517 m 2,0,-1
 140 565 l 2,1,2
 140 710 140 710 195 832 c 128,-1,3
 250 954 250 954 351.5 1028 c 128,-1,4
 453 1102 453 1102 593 1102 c 0,5,6
 707 1102 707 1102 793.5 1051 c 128,-1,7
 880 1000 880 1000 941.5 923 c 128,-1,8
 1003 846 1003 846 1042.5 765 c 128,-1,9
 1082 684 1082 684 1103 624 c 1,10,11
 1124 684 1124 684 1164 765 c 128,-1,12
 1204 846 1204 846 1266 923 c 128,-1,13
 1328 1000 1328 1000 1414.5 1051 c 128,-1,14
 1501 1102 1501 1102 1615 1102 c 0,15,16
 1755 1102 1755 1102 1856 1028 c 128,-1,17
 1957 954 1957 954 2012 832 c 128,-1,18
 2067 710 2067 710 2067 565 c 2,19,-1
 2067 517 l 2,20,21
 2067 373 2067 373 2012 250.5 c 128,-1,22
 1957 128 1957 128 1855.5 53.5 c 128,-1,23
 1754 -21 1754 -21 1613 -21 c 0,24,25
 1499 -21 1499 -21 1412.5 30.5 c 128,-1,26
 1326 82 1326 82 1264.5 159.5 c 128,-1,27
 1203 237 1203 237 1163.5 318 c 128,-1,28
 1124 399 1124 399 1103 458 c 1,29,30
 1082 399 1082 399 1043 318 c 128,-1,31
 1004 237 1004 237 943 159.5 c 128,-1,32
 882 82 882 82 795.5 30.5 c 128,-1,33
 709 -21 709 -21 595 -21 c 0,34,35
 454 -21 454 -21 352 53.5 c 128,-1,36
 250 128 250 128 195 250.5 c 128,-1,37
 140 373 140 373 140 517 c 2,0,-1
194 565 m 2,38,-1
 194 517 l 2,39,40
 194 429 194 429 219 343 c 128,-1,41
 244 257 244 257 294 187 c 128,-1,42
 344 117 344 117 419.5 75 c 128,-1,43
 495 33 495 33 595 33 c 0,44,45
 699 33 699 33 777.5 82.5 c 128,-1,46
 856 132 856 132 911.5 205 c 128,-1,47
 967 278 967 278 1002 351 c 128,-1,48
 1037 424 1037 424 1053 472.5 c 128,-1,49
 1069 521 1069 521 1069 520 c 1,50,-1
 1069 562 l 1,51,52
 1069 561 1069 561 1053 609.5 c 128,-1,53
 1037 658 1037 658 1002 730.5 c 128,-1,54
 967 803 967 803 911 876 c 128,-1,55
 855 949 855 949 776 998.5 c 128,-1,56
 697 1048 697 1048 593 1048 c 0,57,58
 493 1048 493 1048 418.5 1005.5 c 128,-1,59
 344 963 344 963 294 893 c 128,-1,60
 244 823 244 823 219 737.5 c 128,-1,61
 194 652 194 652 194 565 c 2,38,-1
2013 517 m 2,62,-1
 2013 565 l 2,63,64
 2013 652 2013 652 1988 737.5 c 128,-1,65
 1963 823 1963 823 1913.5 893 c 128,-1,66
 1864 963 1864 963 1789 1005.5 c 128,-1,67
 1714 1048 1714 1048 1615 1048 c 0,68,69
 1511 1048 1511 1048 1432 999 c 128,-1,70
 1353 950 1353 950 1297 878 c 128,-1,71
 1241 806 1241 806 1206 734 c 128,-1,72
 1171 662 1171 662 1154.5 612.5 c 128,-1,73
 1138 563 1138 563 1138 562 c 2,74,-1
 1138 520 l 2,75,76
 1138 519 1138 519 1154.5 469.5 c 128,-1,77
 1171 420 1171 420 1206 347.5 c 128,-1,78
 1241 275 1241 275 1297 203 c 128,-1,79
 1353 131 1353 131 1431 82 c 128,-1,80
 1509 33 1509 33 1613 33 c 0,81,82
 1713 33 1713 33 1788 75 c 128,-1,83
 1863 117 1863 117 1913 187 c 128,-1,84
 1963 257 1963 257 1988 343 c 128,-1,85
 2013 429 2013 429 2013 517 c 2,62,-1
EndSplineSet
EndChar

StartChar: integral
Encoding: 8747 8747 464
Width: 514
GlyphClass: 2
Flags: W
LayerCount: 2
Fore
SplineSet
238 -89 m 2,0,1
 238 -258 238 -258 162.5 -347.5 c 128,-1,2
 87 -437 87 -437 -47 -437 c 0,3,4
 -78 -437 -78 -437 -104 -432 c 128,-1,5
 -130 -427 -130 -427 -159 -417 c 1,6,-1
 -146 -365 l 1,7,8
 -130 -371 -130 -371 -102.5 -377 c 128,-1,9
 -75 -383 -75 -383 -47 -383 c 0,10,11
 64 -383 64 -383 124 -306.5 c 128,-1,12
 184 -230 184 -230 184 -89 c 2,13,-1
 184 1236 l 2,14,15
 184 1391 184 1391 259 1474 c 128,-1,16
 334 1557 334 1557 466 1557 c 0,17,18
 498 1557 498 1557 530.5 1553.5 c 128,-1,19
 563 1550 563 1550 594 1540 c 1,20,-1
 586 1488 l 1,21,22
 558 1496 558 1496 533 1499.5 c 128,-1,23
 508 1503 508 1503 467 1503 c 0,24,25
 361 1503 361 1503 299.5 1433 c 128,-1,26
 238 1363 238 1363 238 1236 c 2,27,-1
 238 -89 l 2,0,1
EndSplineSet
EndChar

StartChar: j
Encoding: 106 106 467
Width: 445
VWidth: 1798
GlyphClass: 2
Flags: W
AnchorPoint: "Anchor-1" 190 -709 basechar 0
AnchorPoint: "Anchor-0" 223 1350 basechar 0
LayerCount: 2
Fore
SplineSet
163 1170 m 256,0,1
 163 1193 163 1193 179 1209.5 c 128,-1,2
 195 1226 195 1226 218 1226 c 256,3,4
 241 1226 241 1226 257.5 1209.5 c 128,-1,5
 274 1193 274 1193 274 1170 c 256,6,7
 274 1147 274 1147 257.5 1131 c 128,-1,8
 241 1115 241 1115 218 1115 c 256,9,10
 195 1115 195 1115 179 1131 c 128,-1,11
 163 1147 163 1147 163 1170 c 256,0,1
186 832 m 1,12,-1
 240 832 l 1,13,-1
 240 -379 l 2,14,15
 240 -528 240 -528 164.5 -607.5 c 128,-1,16
 89 -687 89 -687 -45 -687 c 0,17,18
 -94 -687 -94 -687 -143 -667 c 1,19,-1
 -140 -615 l 1,20,21
 -124 -621 -124 -621 -98.5 -627 c 128,-1,22
 -73 -633 -73 -633 -45 -633 c 0,23,24
 66 -633 66 -633 126 -566.5 c 128,-1,25
 186 -500 186 -500 186 -379 c 2,26,-1
 186 832 l 1,12,-1
EndSplineSet
Substitution2: "Single Substitution lookup 3 subtable" uni006A.ccmp
Substitution2: "'unic' Unicase lookup 2 subtable" J
Substitution2: "'smcp' Lowercase to Small Capitals lookup 1 subtable" J.smcp
EndChar

StartChar: k
Encoding: 107 107 469
Width: 969
VWidth: 1798
GlyphClass: 2
Flags: W
AnchorPoint: "Anchor-1" 529 -179 basechar 0
AnchorPoint: "Anchor-0" 549 1361 basechar 0
LayerCount: 2
Fore
SplineSet
883 -250 m 1,0,-1
 385 335 l 1,1,-1
 383 333 l 1,2,-1
 226 199 l 1,3,-1
 226 -250 l 1,4,-1
 172 -250 l 1,5,-1
 172 1286 l 1,6,-1
 226 1286 l 1,7,-1
 226 257 l 1,8,-1
 353 377 l 1,9,-1
 845 832 l 1,10,-1
 922 832 l 1,11,-1
 425 372 l 1,12,-1
 953 -250 l 1,13,-1
 883 -250 l 1,0,-1
EndSplineSet
Substitution2: "'unic' Unicase lookup 2 subtable" K
Substitution2: "'smcp' Lowercase to Small Capitals lookup 1 subtable" K.smcp
EndChar

StartChar: kgreenlandic
Encoding: 312 312 471
Width: 1084
VWidth: 1798
GlyphClass: 2
Flags: W
AnchorPoint: "Anchor-1" 590 -240 basechar 0
AnchorPoint: "Anchor-0" 590 1040 basechar 0
LayerCount: 2
Fore
SplineSet
954 -250 m 1,0,-1
 394 279 l 1,1,-1
 226 279 l 1,2,-1
 226 -250 l 1,3,-1
 171 -250 l 1,4,-1
 171 832 l 1,5,-1
 226 832 l 1,6,-1
 226 332 l 1,7,-1
 404 332 l 1,8,-1
 893 832 l 1,9,-1
 962 832 l 1,10,-1
 454 303 l 1,11,-1
 1025 -250 l 1,12,-1
 954 -250 l 1,0,-1
EndSplineSet
EndChar

StartChar: l
Encoding: 108 108 472
Width: 422
VWidth: 1798
GlyphClass: 2
Flags: W
AnchorPoint: "Anchor-1" 249 -240 basechar 0
AnchorPoint: "Anchor-0" 249 1447 basechar 0
LayerCount: 2
Fore
SplineSet
239 1286 m 1,0,-1
 239 -250 l 1,1,-1
 185 -250 l 1,2,-1
 185 1286 l 1,3,-1
 239 1286 l 1,0,-1
EndSplineSet
Substitution2: "'unic' Unicase lookup 2 subtable" L
Substitution2: "'smcp' Lowercase to Small Capitals lookup 1 subtable" L.smcp
EndChar

StartChar: less
Encoding: 60 60 478
Width: 1053
VWidth: 1798
GlyphClass: 2
Flags: W
LayerCount: 2
Fore
SplineSet
919 761 m 1,0,-1
 155 416 l 1,1,-1
 919 71 l 1,2,-1
 919 12 l 1,3,-1
 82 391 l 1,4,-1
 82 441 l 1,5,-1
 919 819 l 1,6,-1
 919 761 l 1,0,-1
EndSplineSet
EndChar

StartChar: lessequal
Encoding: 8804 8804 479
Width: 1053
GlyphClass: 2
Flags: W
LayerCount: 2
Fore
SplineSet
919 1105 m 1,0,-1
 155 759 l 1,1,-1
 919 412 l 1,2,-1
 919 353 l 1,3,-1
 82 734 l 1,4,-1
 82 784 l 1,5,-1
 919 1163 l 1,6,-1
 919 1105 l 1,0,-1
910 54 m 1,7,-1
 910 0 l 1,8,-1
 75 0 l 1,9,-1
 75 54 l 1,10,-1
 910 54 l 1,7,-1
EndSplineSet
EndChar

StartChar: lira
Encoding: 8356 8356 480
Width: 1150
GlyphClass: 2
Flags: W
LayerCount: 2
Fore
SplineSet
726 539 m 1,0,-1
 726 484 l 1,1,-1
 366 484 l 1,2,-1
 370 336 l 2,3,4
 375 142 375 142 303 54 c 1,5,-1
 1060 54 l 1,6,-1
 1061 0 l 1,7,-1
 99 0 l 1,8,-1
 99 54 l 1,9,-1
 219 54 l 1,10,11
 255 65 255 65 277 109.5 c 128,-1,12
 299 154 299 154 308.5 215 c 128,-1,13
 318 276 318 276 316 336 c 2,14,-1
 312 484 l 1,15,-1
 102 484 l 1,16,-1
 102 539 l 1,17,-1
 310 539 l 1,18,-1
 304 740 l 1,19,-1
 102 740 l 1,20,-1
 102 796 l 1,21,-1
 302 796 l 1,22,-1
 295 1039 l 1,23,24
 295 1246 295 1246 395 1361 c 128,-1,25
 495 1476 495 1476 661 1476 c 0,26,27
 842 1476 842 1476 938.5 1368 c 128,-1,28
 1035 1260 1035 1260 1035 1089 c 1,29,-1
 981 1089 l 1,30,31
 981 1207 981 1207 937.5 1280.5 c 128,-1,32
 894 1354 894 1354 821.5 1388 c 128,-1,33
 749 1422 749 1422 661 1422 c 0,34,35
 517 1422 517 1422 433 1323.5 c 128,-1,36
 349 1225 349 1225 349 1039 c 1,37,-1
 356 796 l 1,38,-1
 726 796 l 1,39,-1
 726 740 l 1,40,-1
 358 740 l 1,41,-1
 364 539 l 1,42,-1
 726 539 l 1,0,-1
EndSplineSet
Substitution2: "'c2sc' Capitals to Small Capitals lookup 0 subtable" lira.smcp
Position2: "'cpsp' Capital Spacing lookup 0 subtable" dx=36 dy=0 dh=72 dv=0
EndChar

StartChar: lira.smcp
Encoding: 65749 -1 481
Width: 986
GlyphClass: 2
Flags: W
LayerCount: 2
Fore
SplineSet
299 744 m 2,0,-1
 302 675 l 1,1,-1
 728 675 l 1,2,-1
 728 621 l 1,3,-1
 304 621 l 1,4,-1
 310 466 l 1,5,-1
 310 465 l 1,6,-1
 728 465 l 1,7,-1
 728 411 l 1,8,-1
 311 411 l 1,9,10
 310 305 310 305 283 210 c 128,-1,11
 256 115 256 115 188 54 c 1,12,-1
 930 54 l 1,13,-1
 931 0 l 1,14,-1
 79 0 l 1,15,-1
 79 54 l 1,16,-1
 89 54 l 1,17,18
 147 72 147 72 182.5 130.5 c 128,-1,19
 218 189 218 189 235.5 264.5 c 128,-1,20
 253 340 253 340 256 411 c 1,21,-1
 35 411 l 1,22,-1
 35 465 l 1,23,-1
 256 465 l 1,24,-1
 256 466 l 1,25,-1
 250 621 l 1,26,-1
 35 621 l 1,27,-1
 35 675 l 1,28,-1
 248 675 l 1,29,-1
 245 744 l 2,30,31
 237 948 237 948 323.5 1064.5 c 128,-1,32
 410 1181 410 1181 576 1181 c 0,33,34
 698 1181 698 1181 767.5 1132.5 c 128,-1,35
 837 1084 837 1084 866 997 c 128,-1,36
 895 910 895 910 895 794 c 1,37,-1
 841 794 l 1,38,39
 841 978 841 978 774 1052.5 c 128,-1,40
 707 1127 707 1127 576 1127 c 0,41,42
 432 1127 432 1127 362 1029.5 c 128,-1,43
 292 932 292 932 299 744 c 2,0,-1
EndSplineSet
EndChar

StartChar: logicalnot
Encoding: 172 172 482
Width: 1101
VWidth: 1798
GlyphClass: 2
Flags: W
LayerCount: 2
Fore
SplineSet
915 503 m 1,0,-1
 915 146 l 1,1,-1
 861 146 l 1,2,-1
 861 450 l 1,3,-1
 122 450 l 1,4,-1
 122 503 l 1,5,-1
 915 503 l 1,0,-1
EndSplineSet
EndChar

StartChar: longs
Encoding: 383 383 483
Width: 422
VWidth: 1798
GlyphClass: 2
Flags: W
AnchorPoint: "Anchor-1" 248 -240 basechar 0
AnchorPoint: "Anchor-0" 428 1504 basechar 0
LayerCount: 2
Fore
SplineSet
228 -250 m 1,0,-1
 174 -250 l 1,1,-1
 174 986 l 2,2,3
 174 1141 174 1141 249 1224 c 128,-1,4
 324 1307 324 1307 456 1307 c 0,5,6
 488 1307 488 1307 520.5 1303.5 c 128,-1,7
 553 1300 553 1300 584 1290 c 1,8,-1
 576 1238 l 1,9,10
 548 1246 548 1246 523 1249.5 c 128,-1,11
 498 1253 498 1253 457 1253 c 0,12,13
 351 1253 351 1253 289.5 1183 c 128,-1,14
 228 1113 228 1113 228 986 c 2,15,-1
 228 -250 l 1,0,-1
EndSplineSet
EndChar

StartChar: longst
Encoding: 65750 -1 484
Width: 1167
GlyphClass: 3
Flags: W
LayerCount: 2
Fore
SplineSet
1058 1082 m 1,0,-1
 1058 1027 l 1,1,-1
 812 1027 l 1,2,-1
 812 259 l 2,3,4
 812 164 812 164 834.5 115.5 c 128,-1,5
 857 67 857 67 894.5 50.5 c 128,-1,6
 932 34 932 34 975 34 c 0,7,8
 1006 34 1006 34 1030 36.5 c 128,-1,9
 1054 39 1054 39 1082 43 c 1,10,-1
 1091 -8 l 1,11,12
 1069 -15 1069 -15 1034 -17.5 c 128,-1,13
 999 -20 999 -20 978 -20 c 0,14,15
 875 -20 875 -20 816 38 c 128,-1,16
 757 96 757 96 757 259 c 2,17,-1
 757 1027 l 1,18,-1
 557 1027 l 1,19,-1
 557 1082 l 1,20,-1
 757 1082 l 1,21,-1
 757 1452 l 1,22,23
 720 1474 720 1474 655.5 1488.5 c 128,-1,24
 591 1503 591 1503 537 1503 c 0,25,26
 431 1503 431 1503 369.5 1433 c 128,-1,27
 308 1363 308 1363 308 1236 c 2,28,-1
 308 0 l 1,29,-1
 254 0 l 1,30,-1
 254 1027 l 1,31,-1
 66 1027 l 1,32,-1
 66 1082 l 1,33,-1
 254 1082 l 1,34,-1
 254 1236 l 2,35,36
 254 1391 254 1391 329 1474 c 128,-1,37
 404 1557 404 1557 536 1557 c 0,38,39
 611 1557 611 1557 684 1536.5 c 128,-1,40
 757 1516 757 1516 812 1488 c 1,41,-1
 812 1082 l 1,42,-1
 1058 1082 l 1,0,-1
EndSplineSet
Ligature2: "'dlig' Discretionary Ligatures lookup 12 subtable" longs t
EndChar

StartChar: lozenge
Encoding: 9674 9674 485
Width: 1036
GlyphClass: 2
Flags: W
LayerCount: 2
Fore
SplineSet
68 727 m 1,0,-1
 489 1456 l 1,1,-1
 540 1456 l 1,2,-1
 960 727 l 1,3,-1
 540 0 l 1,4,-1
 489 0 l 1,5,-1
 68 727 l 1,0,-1
137 727 m 1,6,-1
 514 63 l 1,7,-1
 892 727 l 1,8,-1
 514 1391 l 1,9,-1
 137 727 l 1,6,-1
EndSplineSet
EndChar

StartChar: lslash
Encoding: 322 322 486
Width: 505
VWidth: 1798
GlyphClass: 2
Flags: W
AnchorPoint: "Anchor-1" 280 -240 basechar 0
AnchorPoint: "Anchor-0" 280 1447 basechar 0
LayerCount: 2
Fore
SplineSet
487 680 m 1,0,-1
 487 621 l 1,1,-1
 286 541 l 1,2,-1
 286 -250 l 1,3,-1
 232 -250 l 1,4,-1
 232 520 l 1,5,-1
 17 434 l 1,6,-1
 17 493 l 1,7,-1
 232 579 l 1,8,-1
 232 1286 l 1,9,-1
 286 1286 l 1,10,-1
 286 600 l 1,11,-1
 487 680 l 1,0,-1
EndSplineSet
Substitution2: "'smcp' Lowercase to Small Capitals lookup 1 subtable" Lslash.smcp
EndChar

StartChar: m
Encoding: 109 109 487
Width: 1836
VWidth: 1798
GlyphClass: 2
Flags: W
AnchorPoint: "Anchor-1" 897 -240 basechar 0
AnchorPoint: "Anchor-0" 911 1040 basechar 0
LayerCount: 2
Fore
SplineSet
946 470 m 1,0,-1
 946 -250 l 1,1,-1
 892 -250 l 1,2,-1
 892 470 l 2,3,4
 892 600 892 600 854 671 c 128,-1,5
 816 742 816 742 749 770.5 c 128,-1,6
 682 799 682 799 596 799 c 0,7,8
 506 799 506 799 439 762.5 c 128,-1,9
 372 726 372 726 326.5 669 c 128,-1,10
 281 612 281 612 254 549.5 c 128,-1,11
 227 487 227 487 216 434 c 1,12,-1
 216 -250 l 1,13,-1
 161 -250 l 1,14,-1
 161 832 l 1,15,-1
 216 832 l 1,16,-1
 216 577 l 1,17,18
 264 693 264 693 362.5 772.5 c 128,-1,19
 461 852 461 852 599 852 c 0,20,21
 735 852 735 852 821.5 792 c 128,-1,22
 908 732 908 732 935 596 c 1,23,24
 980 703 980 703 1083.5 777.5 c 128,-1,25
 1187 852 1187 852 1333 852 c 0,26,27
 1497 852 1497 852 1588.5 758.5 c 128,-1,28
 1680 665 1680 665 1680 450 c 2,29,-1
 1680 -250 l 1,30,-1
 1626 -250 l 1,31,-1
 1626 450 l 2,32,33
 1626 588 1626 588 1588 664 c 128,-1,34
 1550 740 1550 740 1483 770 c 128,-1,35
 1416 800 1416 800 1330 799 c 0,36,37
 1234 798 1234 798 1163.5 763.5 c 128,-1,38
 1093 729 1093 729 1046 677 c 128,-1,39
 999 625 999 625 974.5 569.5 c 128,-1,40
 950 514 950 514 946 470 c 1,0,-1
EndSplineSet
Substitution2: "'unic' Unicase lookup 2 subtable" M.unic
Substitution2: "'smcp' Lowercase to Small Capitals lookup 1 subtable" M.smcp
EndChar

StartChar: macron
Encoding: 175 175 488
Width: 811
VWidth: 1798
GlyphClass: 2
Flags: W
LayerCount: 2
Fore
SplineSet
699 1186 m 1,0,-1
 699 1133 l 1,1,-1
 132 1133 l 1,2,-1
 132 1186 l 1,3,-1
 699 1186 l 1,0,-1
EndSplineSet
EndChar

StartChar: mu
Encoding: 181 181 491
Width: 1121
VWidth: 1798
GlyphClass: 2
Flags: W
LayerCount: 2
Fore
SplineSet
171 832 m 1,0,-1
 223 832 l 1,1,-1
 223 190 l 2,2,3
 223 29 223 29 267 -59 c 128,-1,4
 311 -147 311 -147 381 -181.5 c 128,-1,5
 451 -216 451 -216 529 -216 c 0,6,7
 665 -216 665 -216 743 -166.5 c 128,-1,8
 821 -117 821 -117 856 -31 c 128,-1,9
 891 55 891 55 899 163 c 1,10,-1
 899 832 l 1,11,-1
 953 832 l 1,12,-1
 953 -250 l 1,13,-1
 902 -250 l 1,14,-1
 900 -46 l 1,15,16
 854 -149 854 -149 765.5 -209.5 c 128,-1,17
 677 -270 677 -270 538 -270 c 0,18,19
 445 -270 445 -270 359.5 -228 c 128,-1,20
 274 -186 274 -186 223 -79 c 1,21,-1
 223 -666 l 1,22,-1
 171 -666 l 1,23,-1
 171 832 l 1,0,-1
EndSplineSet
EndChar

StartChar: multiply
Encoding: 215 215 492
Width: 932
VWidth: 1798
GlyphClass: 2
Flags: W
LayerCount: 2
Fore
SplineSet
432 265 m 1,0,-1
 166 536 l 1,1,-1
 200 571 l 1,2,-1
 466 300 l 1,3,-1
 732 571 l 1,4,-1
 766 536 l 1,5,-1
 500 265 l 1,6,-1
 767 -7 l 1,7,-1
 734 -42 l 1,8,-1
 466 231 l 1,9,-1
 198 -42 l 1,10,-1
 165 -7 l 1,11,-1
 432 265 l 1,0,-1
EndSplineSet
EndChar

StartChar: n
Encoding: 110 110 493
Width: 1121
VWidth: 1798
GlyphClass: 2
Flags: W
AnchorPoint: "Anchor-1" 563 -240 basechar 0
AnchorPoint: "Anchor-0" 573 1040 basechar 0
LayerCount: 2
Fore
SplineSet
607 799 m 0,0,1
 519 799 519 799 452.5 764 c 128,-1,2
 386 729 386 729 340 674 c 128,-1,3
 294 619 294 619 266 557.5 c 128,-1,4
 238 496 238 496 226 443 c 1,5,-1
 226 -250 l 1,6,-1
 172 -250 l 1,7,-1
 172 832 l 1,8,-1
 226 832 l 1,9,-1
 226 581 l 1,10,11
 275 695 275 695 374.5 773.5 c 128,-1,12
 474 852 474 852 610 852 c 0,13,14
 774 852 774 852 864 758.5 c 128,-1,15
 954 665 954 665 954 450 c 2,16,-1
 954 -250 l 1,17,-1
 900 -250 l 1,18,-1
 900 450 l 2,19,20
 900 588 900 588 862.5 663.5 c 128,-1,21
 825 739 825 739 759 769 c 128,-1,22
 693 799 693 799 607 799 c 0,0,1
EndSplineSet
Substitution2: "'unic' Unicase lookup 2 subtable" N.unic
Substitution2: "'smcp' Lowercase to Small Capitals lookup 1 subtable" N.smcp
EndChar

StartChar: naira
Encoding: 8358 8358 495
Width: 1529
GlyphClass: 2
Flags: W
LayerCount: 2
Fore
SplineSet
1489 589 m 1,0,-1
 1489 535 l 1,1,-1
 1289 535 l 1,2,-1
 1289 0 l 1,3,-1
 1235 0 l 1,4,-1
 866 535 l 1,5,-1
 295 535 l 1,6,-1
 295 0 l 1,7,-1
 240 0 l 1,8,-1
 240 535 l 1,9,-1
 40 535 l 1,10,-1
 40 589 l 1,11,-1
 240 589 l 1,12,-1
 240 835 l 1,13,-1
 40 835 l 1,14,-1
 40 889 l 1,15,-1
 240 889 l 1,16,-1
 240 1456 l 1,17,-1
 295 1456 l 1,18,-1
 687 889 l 1,19,-1
 1235 889 l 1,20,-1
 1235 1456 l 1,21,-1
 1289 1456 l 1,22,-1
 1289 889 l 1,23,-1
 1489 889 l 1,24,-1
 1489 835 l 1,25,-1
 1289 835 l 1,26,-1
 1289 589 l 1,27,-1
 1489 589 l 1,0,-1
295 1364 m 1,28,-1
 295 889 l 1,29,-1
 622 889 l 1,30,-1
 295 1364 l 1,28,-1
295 589 m 1,31,-1
 829 589 l 1,32,-1
 660 835 l 1,33,-1
 295 835 l 1,34,-1
 295 589 l 1,31,-1
894 589 m 1,35,-1
 1235 589 l 1,36,-1
 1235 835 l 1,37,-1
 724 835 l 1,38,-1
 894 589 l 1,35,-1
1235 95 m 1,39,-1
 1235 535 l 1,40,-1
 931 535 l 1,41,-1
 1235 95 l 1,39,-1
EndSplineSet
EndChar

StartChar: nine
Encoding: 57 57 500
Width: 1121
VWidth: 1798
GlyphClass: 2
Flags: W
LayerCount: 2
Fore
SplineSet
300 -216 m 1,0,-1
 332 -216 l 2,1,2
 541 -216 541 -216 675.5 -132.5 c 128,-1,3
 810 -49 810 -49 874.5 104 c 128,-1,4
 939 257 939 257 939 468 c 2,5,-1
 939 474 l 1,6,7
 884 357 884 357 773.5 287.5 c 128,-1,8
 663 218 663 218 523 218 c 0,9,10
 395 218 395 218 300.5 285.5 c 128,-1,11
 206 353 206 353 154.5 465 c 128,-1,12
 103 577 103 577 103 708 c 0,13,14
 103 849 103 849 156.5 966.5 c 128,-1,15
 210 1084 210 1084 306.5 1155 c 128,-1,16
 403 1226 403 1226 531 1226 c 0,17,18
 749 1226 749 1226 871 1083 c 128,-1,19
 993 940 993 940 993 653 c 2,20,-1
 993 490 l 2,21,22
 993 127 993 127 830 -71.5 c 128,-1,23
 667 -270 667 -270 332 -270 c 2,24,-1
 298 -270 l 1,25,-1
 300 -216 l 1,0,-1
157 708 m 0,26,27
 157 596 157 596 200.5 496.5 c 128,-1,28
 244 397 244 397 326 334.5 c 128,-1,29
 408 272 408 272 523 272 c 0,30,31
 644 272 644 272 730 321.5 c 128,-1,32
 816 371 816 371 867.5 444.5 c 128,-1,33
 919 518 919 518 939 591 c 1,34,-1
 939 652 l 2,35,36
 939 912 939 912 832.5 1042 c 128,-1,37
 726 1172 726 1172 535 1172 c 0,38,39
 419 1172 419 1172 334 1105 c 128,-1,40
 249 1038 249 1038 203 932 c 128,-1,41
 157 826 157 826 157 708 c 0,26,27
EndSplineSet
Substitution2: "'ss01' Style Set 1 lookup 35 subtable" uni06F9
Substitution2: "'numr' Numerators lookup 21 subtable" nine.frac
Substitution2: "'dnom' Denominators lookup 20 subtable" nine.sup
Substitution2: "'frac' Diagonal Fractions lookup 19 subtable" nine.frac
Substitution2: "Single Substitution lookup 18 subtable" nine.sup
Substitution2: "'onum' Oldstyle Figures lookup 14 subtable" nine.tnum
Substitution2: "'c2sc' Capitals to Small Capitals lookup 0 subtable" nine.smcp
Position2: "'cpsp' Capital Spacing lookup 0 subtable" dx=36 dy=0 dh=72 dv=0
EndChar

StartChar: nine.onum
Encoding: 65752 -1 502
Width: 1152
GlyphClass: 1
Flags: W
LayerCount: 2
Fore
SplineSet
462 -295 m 0,0,1
 603 -295 603 -295 710.5 -217 c 128,-1,2
 818 -139 818 -139 878.5 1 c 128,-1,3
 939 141 939 141 939 327 c 2,4,-1
 939 432 l 1,5,6
 885 315 885 315 774.5 246 c 128,-1,7
 664 177 664 177 523 177 c 0,8,9
 395 177 395 177 298.5 244.5 c 128,-1,10
 202 312 202 312 148.5 424 c 128,-1,11
 95 536 95 536 95 667 c 0,12,13
 95 808 95 808 150.5 926 c 128,-1,14
 206 1044 206 1044 304.5 1115 c 128,-1,15
 403 1186 403 1186 531 1186 c 0,16,17
 749 1186 749 1186 871 1042.5 c 128,-1,18
 993 899 993 899 993 612 c 2,19,-1
 993 329 l 2,20,21
 993 120 993 120 925 -32.5 c 128,-1,22
 857 -185 857 -185 737 -267 c 128,-1,23
 617 -349 617 -349 462 -349 c 0,24,25
 325 -349 325 -349 188 -283 c 1,26,-1
 205 -232 l 1,27,28
 267 -263 267 -263 325.5 -279 c 128,-1,29
 384 -295 384 -295 462 -295 c 0,0,1
157 667 m 0,30,31
 157 555 157 555 200.5 455 c 128,-1,32
 244 355 244 355 326 292.5 c 128,-1,33
 408 230 408 230 523 230 c 0,34,35
 644 230 644 230 730 279.5 c 128,-1,36
 816 329 816 329 867.5 403 c 128,-1,37
 919 477 919 477 939 549 c 1,38,-1
 939 611 l 2,39,40
 939 871 939 871 832.5 1001.5 c 128,-1,41
 726 1132 726 1132 535 1132 c 0,42,43
 419 1132 419 1132 334 1065 c 128,-1,44
 249 998 249 998 203 891.5 c 128,-1,45
 157 785 157 785 157 667 c 0,30,31
EndSplineSet
EndChar

StartChar: nine.smcp
Encoding: 65753 -1 503
Width: 1010
GlyphClass: 2
Flags: W
LayerCount: 2
Fore
SplineSet
270 40 m 1,0,-1
 298 40 l 2,1,2
 480 40 480 40 596 106 c 128,-1,3
 712 172 712 172 767.5 290.5 c 128,-1,4
 823 409 823 409 823 568 c 1,5,6
 775 481 775 481 681.5 428.5 c 128,-1,7
 588 376 588 376 470 376 c 0,8,9
 354 376 354 376 267.5 430.5 c 128,-1,10
 181 485 181 485 133 574.5 c 128,-1,11
 85 664 85 664 85 768 c 0,12,13
 85 881 85 881 135 974.5 c 128,-1,14
 185 1068 185 1068 273.5 1124.5 c 128,-1,15
 362 1181 362 1181 478 1181 c 0,16,17
 668 1181 668 1181 772.5 1062 c 128,-1,18
 877 943 877 943 877 720 c 2,19,-1
 877 601 l 2,20,21
 877 319 877 319 735.5 152.5 c 128,-1,22
 594 -14 594 -14 298 -14 c 2,23,-1
 268 -14 l 1,24,-1
 270 40 l 1,0,-1
146 769 m 0,25,26
 146 682 146 682 184.5 604.5 c 128,-1,27
 223 527 223 527 296 478.5 c 128,-1,28
 369 430 369 430 472 430 c 0,29,30
 573 430 573 430 645 467 c 128,-1,31
 717 504 717 504 761.5 560.5 c 128,-1,32
 806 617 806 617 823 674 c 1,33,-1
 823 722 l 2,34,35
 823 923 823 923 732.5 1024.5 c 128,-1,36
 642 1126 642 1126 481 1126 c 0,37,38
 378 1126 378 1126 303 1075 c 128,-1,39
 228 1024 228 1024 187 942.5 c 128,-1,40
 146 861 146 861 146 769 c 0,25,26
EndSplineSet
EndChar

StartChar: nine.sup
Encoding: 65754 -1 504
Width: 728
GlyphClass: 2
Flags: W
LayerCount: 2
Fore
SplineSet
203 40 m 1,0,-1
 221 40 l 2,1,2
 400 40 400 40 482 131.5 c 128,-1,3
 564 223 564 223 566 372 c 1,4,5
 534 320 534 320 474 287.5 c 128,-1,6
 414 255 414 255 337 255 c 0,7,8
 257 255 257 255 199 292 c 128,-1,9
 141 329 141 329 109.5 390 c 128,-1,10
 78 451 78 451 78 521 c 0,11,12
 78 597 78 597 111.5 660.5 c 128,-1,13
 145 724 145 724 205.5 762 c 128,-1,14
 266 800 266 800 347 800 c 0,15,16
 479 800 479 800 549.5 717 c 128,-1,17
 620 634 620 634 620 486 c 2,18,-1
 620 411 l 2,19,20
 620 224 620 224 525.5 108 c 128,-1,21
 431 -8 431 -8 221 -8 c 2,22,-1
 202 -8 l 1,23,-1
 203 40 l 1,0,-1
134 522 m 0,24,25
 134 437 134 437 188 370.5 c 128,-1,26
 242 304 242 304 342 304 c 0,27,28
 435 304 435 304 491 351.5 c 128,-1,29
 547 399 547 399 566 453 c 1,30,-1
 566 491 l 2,31,32
 566 620 566 620 507.5 685 c 128,-1,33
 449 750 449 750 348 750 c 0,34,35
 249 750 249 750 191.5 680.5 c 128,-1,36
 134 611 134 611 134 522 c 0,24,25
EndSplineSet
EndChar

StartChar: notequal
Encoding: 8800 8800 506
Width: 1142
GlyphClass: 2
Flags: W
LayerCount: 2
Fore
SplineSet
981 490 m 1,0,-1
 981 436 l 1,1,-1
 453 436 l 1,2,-1
 292 152 l 1,3,-1
 245 176 l 1,4,-1
 392 436 l 1,5,-1
 147 436 l 1,6,-1
 147 490 l 1,7,-1
 423 490 l 1,8,-1
 623 843 l 1,9,-1
 147 843 l 1,10,-1
 147 897 l 1,11,-1
 654 897 l 1,12,-1
 814 1180 l 1,13,-1
 861 1156 l 1,14,-1
 714 897 l 1,15,-1
 981 897 l 1,16,-1
 981 843 l 1,17,-1
 684 843 l 1,18,-1
 484 490 l 1,19,-1
 981 490 l 1,0,-1
EndSplineSet
EndChar

StartChar: nsuperior
Encoding: 8319 8319 507
Width: 861
GlyphClass: 2
Flags: W
LayerCount: 2
Fore
SplineSet
447 1417 m 0,0,1
 340 1417 340 1417 272 1355.5 c 128,-1,2
 204 1294 204 1294 179 1196 c 1,3,-1
 179 651 l 1,4,-1
 124 651 l 1,5,-1
 124 1456 l 1,6,-1
 168 1456 l 1,7,-1
 178 1301 l 1,8,9
 218 1377 218 1377 287 1421.5 c 128,-1,10
 356 1466 356 1466 447 1466 c 0,11,12
 582 1466 582 1466 660.5 1393.5 c 128,-1,13
 739 1321 739 1321 739 1159 c 2,14,-1
 739 651 l 1,15,-1
 686 651 l 1,16,-1
 686 1165 l 2,17,18
 686 1306 686 1306 620.5 1361.5 c 128,-1,19
 555 1417 555 1417 447 1417 c 0,0,1
EndSplineSet
EndChar

StartChar: numbersign
Encoding: 35 35 509
Width: 1121
VWidth: 1798
GlyphClass: 2
Flags: W
LayerCount: 2
Fore
SplineSet
248 -250 m 1,0,-1
 322 160 l 1,1,-1
 51 160 l 1,2,-1
 51 212 l 1,3,-1
 332 212 l 1,4,-1
 427 736 l 1,5,-1
 127 736 l 1,6,-1
 127 790 l 1,7,-1
 437 790 l 1,8,-1
 512 1206 l 1,9,-1
 568 1206 l 1,10,-1
 493 790 l 1,11,-1
 857 790 l 1,12,-1
 933 1206 l 1,13,-1
 989 1206 l 1,14,-1
 913 790 l 1,15,-1
 1167 790 l 1,16,-1
 1167 736 l 1,17,-1
 903 736 l 1,18,-1
 807 212 l 1,19,-1
 1092 212 l 1,20,-1
 1092 160 l 1,21,-1
 798 160 l 1,22,-1
 723 -250 l 1,23,-1
 667 -250 l 1,24,-1
 742 160 l 1,25,-1
 378 160 l 1,26,-1
 304 -250 l 1,27,-1
 248 -250 l 1,0,-1
388 212 m 1,28,-1
 751 212 l 1,29,-1
 847 736 l 1,30,-1
 483 736 l 1,31,-1
 388 212 l 1,28,-1
EndSplineSet
EndChar

StartChar: o
Encoding: 111 111 510
Width: 1127
VWidth: 1798
GlyphClass: 2
Flags: W
AnchorPoint: "Anchor-1" 584 -251 basechar 0
AnchorPoint: "Anchor-0" 575 1040 basechar 0
LayerCount: 2
Fore
SplineSet
90 270 m 2,0,-1
 90 312 l 2,1,2
 90 471 90 471 150 592.5 c 128,-1,3
 210 714 210 714 316.5 783 c 128,-1,4
 423 852 423 852 563 852 c 0,5,6
 705 852 705 852 811.5 783 c 128,-1,7
 918 714 918 714 977.5 592.5 c 128,-1,8
 1037 471 1037 471 1037 312 c 2,9,-1
 1037 270 l 2,10,11
 1037 112 1037 112 977.5 -10 c 128,-1,12
 918 -132 918 -132 812 -201 c 128,-1,13
 706 -270 706 -270 565 -270 c 256,14,15
 424 -270 424 -270 317 -201 c 128,-1,16
 210 -132 210 -132 150 -10 c 128,-1,17
 90 112 90 112 90 270 c 2,0,-1
144 312 m 2,18,-1
 144 270 l 2,19,20
 144 141 144 141 194 30 c 128,-1,21
 244 -81 244 -81 338 -148.5 c 128,-1,22
 432 -216 432 -216 565 -216 c 0,23,24
 697 -216 697 -216 790.5 -148.5 c 128,-1,25
 884 -81 884 -81 933.5 30 c 128,-1,26
 983 141 983 141 983 270 c 2,27,-1
 983 312 l 2,28,29
 983 439 983 439 933 549.5 c 128,-1,30
 883 660 883 660 789.5 729 c 128,-1,31
 696 798 696 798 563 798 c 0,32,33
 431 798 431 798 337.5 729 c 128,-1,34
 244 660 244 660 194 549.5 c 128,-1,35
 144 439 144 439 144 312 c 2,18,-1
EndSplineSet
Substitution2: "'unic' Unicase lookup 2 subtable" O
Substitution2: "'smcp' Lowercase to Small Capitals lookup 1 subtable" O.smcp
EndChar

